<svg width="28" height="25" viewBox="0 0 28 25" fill="none" xmlns="http://www.w3.org/2000/svg">
<path d="M24.5322 12.3555C26.3734 12.3211 26.8259 12.3463 27.1699 12.5029C27.3988 12.6063 27.6782 12.852 27.792 13.0488C27.9806 13.3739 28 13.8569 28 18.3301C28 22.2546 27.967 23.3194 27.8379 23.5801C27.749 23.7591 27.5353 24.0003 27.3633 24.1143C27.0928 24.2946 26.7424 24.3223 24.7373 24.3223C22.7322 24.3223 22.3818 24.2946 22.1113 24.1143C21.9394 24.0003 21.7256 23.7591 21.6367 23.5801C21.5171 23.3376 21.4746 22.6666 21.4746 18.7461L18.3896 17.5596L14.0293 17.5645C9.76448 17.5692 9.65296 17.5762 8.89844 17.8467C8.47369 17.9997 7.76641 18.2644 6.52539 18.7461L6.52441 21.0293C6.52441 23.1139 6.50304 23.3448 6.28711 23.6699C6.15665 23.8655 5.93006 24.0906 5.78418 24.1689C5.60147 24.2686 4.77855 24.3151 0.830078 24.3223L0 23.4912V18.4492C0 14.4248 0.0327873 13.3399 0.162109 13.0801C0.25117 12.9009 0.505956 12.6615 0.726562 12.5488C1.06106 12.3782 1.47703 12.3442 3.2334 12.3418C4.8716 12.3406 5.41889 12.3778 5.69531 12.5166C5.89096 12.6139 6.15754 12.8678 6.28809 13.0801C6.49927 13.4241 6.5242 13.6766 6.52539 15.3945C6.5254 16.8333 6.5635 17.333 6.67383 17.3662C6.75615 17.3897 7.22343 17.2509 7.71191 17.0576C8.20137 16.8633 8.64328 16.6709 8.69629 16.6279C8.74849 16.5852 8.64748 16.2579 8.4707 15.8984C8.2845 15.5177 8.18373 15.1592 8.22754 15.0381C8.29991 14.8447 8.68475 14.8301 14 14.8301C18.4512 14.8301 19.7022 14.8625 19.7363 14.9785C19.7589 15.0604 19.6452 15.3944 19.4814 15.7207C19.3192 16.0465 19.2133 16.3934 19.2461 16.4912C19.2805 16.5885 19.7558 16.8423 20.3027 17.0547C20.8479 17.2664 21.3197 17.4088 21.3555 17.3721C21.3887 17.3341 21.4416 16.3739 21.5342 13.1729L22.3086 12.3984L24.5322 12.3555ZM19.2793 0C21.4344 0 21.6095 0.0168227 21.8301 0.237305C21.9606 0.367813 22.0674 0.581406 22.0674 0.711914C22.0674 0.842427 21.9606 1.05603 21.8301 1.18652C21.6119 1.40459 21.4337 1.42383 17.6777 1.42383L17.3516 1.87598C17.1724 2.12518 16.8982 2.59262 16.4629 3.5L17.1299 4.77539C17.4965 5.47658 17.9037 6.10467 18.0342 6.16992C18.166 6.23509 18.9939 6.28809 21.4746 6.28809L23.1465 7.88965L23.1367 10.7373L19.9912 13.8799L7.88965 13.874L4.74219 10.7373L4.73535 7.88965L6.40723 6.28809L8.09766 6.29199C9.57325 6.29555 9.81166 6.26901 9.97656 6.08398C10.0798 5.96773 10.4083 5.44578 10.7061 4.92383C11.0039 4.40179 11.2827 3.84146 11.3242 3.67773C11.3799 3.463 11.2821 3.15095 10.9678 2.55078C10.7293 2.094 10.4468 1.65239 10.3389 1.56934C10.2 1.46257 9.59322 1.41971 8.21582 1.4209C6.36626 1.42327 6.2787 1.41307 6.04883 1.15723C5.91729 1.01028 5.8106 0.796618 5.81152 0.682617C5.81271 0.568731 5.92029 0.367814 6.05078 0.237305C6.27145 0.0166401 6.44591 2.01057e-06 8.54199 0C9.78182 0 10.8835 0.0402231 10.9902 0.0888672C11.096 0.137848 11.4302 0.569741 11.7314 1.04883C12.0432 1.54425 12.3811 1.94109 12.5166 1.97266C12.6471 2.00232 13.394 2.0114 15.5996 1.95801L16.1035 1.18652C16.381 0.76195 16.6885 0.322124 16.7871 0.208008C16.9461 0.022934 17.2235 2.6632e-06 19.2793 0ZM19.6562 9.0166C19.279 9.0166 19.0675 9.08942 18.8623 9.29102C18.6559 9.4939 18.5879 9.6814 18.6045 10.0029C18.6187 10.29 18.7293 10.5427 18.9238 10.7373C19.1291 10.9425 19.351 11.0342 19.6416 11.0342C19.9334 11.0342 20.1507 10.9437 20.3535 10.7373C20.5386 10.5487 20.6451 10.3003 20.6475 10.0547C20.6497 9.84231 20.543 9.52182 20.4102 9.34277C20.2122 9.07506 20.078 9.01665 19.6562 9.0166ZM8.26953 9.01465C7.93623 9.01583 7.74627 9.09748 7.53516 9.33105C7.37855 9.50309 7.24672 9.77057 7.24316 9.9248C7.2397 10.0779 7.33147 10.3649 7.44531 10.5605C7.59234 10.813 7.77467 10.9399 8.06738 10.9922C8.33064 11.0396 8.58956 11.0066 8.77344 10.9023C8.93361 10.8122 9.1426 10.603 9.23633 10.4404C9.34068 10.2589 9.37731 10.0167 9.33105 9.81738C9.2882 9.63828 9.13428 9.38355 8.9873 9.25195C8.81646 9.09891 8.55782 9.01347 8.26953 9.01465Z" fill="black"/>
</svg>
