<svg width="29" height="24" viewBox="0 0 29 24" fill="none" xmlns="http://www.w3.org/2000/svg">
<path d="M27.8311 1.84889L20.4445 4.15111V7.76H18.6667V4.46222L10.6667 0.364444V3.31556H8.8889V0L0.293343 3.55556C0.208125 3.59026 0.134934 3.64916 0.0828065 3.72498C0.0306786 3.8008 0.00189517 3.89023 9.60315e-06 3.98222V22.3822C-0.000490388 22.4605 0.0185411 22.5377 0.0553827 22.6069C0.0922242 22.676 0.145713 22.7348 0.211012 22.778C0.27631 22.8213 0.351358 22.8475 0.429366 22.8545C0.507374 22.8614 0.585882 22.8488 0.657787 22.8178L8.8889 19.4222V15.76H10.6667V19.7867L18.6667 23.8844V20.2044H20.4445V23.5733L28.1156 21.1733C28.2117 21.1429 28.2955 21.0824 28.3547 21.0008C28.4139 20.9192 28.4454 20.8208 28.4445 20.72V2.30222C28.4451 2.22782 28.4282 2.15432 28.3949 2.08774C28.3617 2.02115 28.3132 1.96338 28.2534 1.91916C28.1936 1.87493 28.1241 1.84551 28.0507 1.83329C27.9773 1.82108 27.9021 1.82642 27.8311 1.84889ZM10.6667 13.9822H8.8889V10.4267H10.6667V13.9822ZM10.6667 8.64889H8.8889V5.09333H10.6667V8.64889ZM20.4445 18.4267H18.6667V14.8711H20.4445V18.4267ZM20.4445 13.0933H18.6667V9.53778H20.4445V13.0933Z" fill="black"/>
</svg>
