<svg width="39" height="39" viewBox="0 0 39 39" fill="none" xmlns="http://www.w3.org/2000/svg">
<path d="M21.1381 0C23.2943 0.00575 24.3888 0.01725 25.3337 0.0440833L25.7055 0.0574999C26.1348 0.0728333 26.5584 0.0919999 27.0702 0.115C29.1095 0.210833 30.501 0.532834 31.7219 1.00625C32.9869 1.49308 34.0526 2.15242 35.1183 3.21617C36.0933 4.17399 36.8474 5.33307 37.3282 6.6125C37.8016 7.83342 38.1236 9.22492 38.2194 11.2662C38.2424 11.776 38.2616 12.1996 38.2769 12.6308L38.2884 13.0027C38.3172 13.9457 38.3287 15.0401 38.3325 17.1963L38.3344 18.6262V21.137C38.3391 22.535 38.3244 23.933 38.2903 25.3307L38.2788 25.7025C38.2635 26.1338 38.2443 26.5573 38.2213 27.0672C38.1255 29.1084 37.7997 30.498 37.3282 31.7208C36.8474 33.0003 36.0933 34.1593 35.1183 35.1172C34.1604 36.0922 33.0014 36.8464 31.7219 37.3271C30.501 37.8005 29.1095 38.1225 27.0702 38.2183L25.7055 38.2758L25.3337 38.2873C24.3888 38.3142 23.2943 38.3276 21.1381 38.3314L19.7083 38.3333H17.1993C15.8007 38.3383 14.402 38.3236 13.0038 38.2892L12.6319 38.2778C12.1769 38.2605 11.722 38.2407 11.2673 38.2183C9.22792 38.1225 7.83642 37.8005 6.61359 37.3271C5.33485 36.8461 4.17644 36.0919 3.21917 35.1172C2.24349 34.1595 1.48863 33.0004 1.00734 31.7208C0.533924 30.4999 0.211923 29.1084 0.11609 27.0672L0.0585901 25.7025L0.049007 25.3307C0.0136753 23.9331 -0.00229865 22.535 0.00109019 21.137V17.1963C-0.00421494 15.7983 0.00984211 14.4003 0.043257 13.0027L0.0566736 12.6308C0.0720069 12.1996 0.0911736 11.776 0.114174 11.2662C0.210007 9.22492 0.532007 7.83533 1.00542 6.6125C1.48784 5.33255 2.24402 4.17342 3.22109 3.21617C4.1778 2.24164 5.33553 1.48747 6.61359 1.00625C7.83642 0.532834 9.22601 0.210833 11.2673 0.115C11.7771 0.0919999 12.2026 0.0728333 12.6319 0.0574999L13.0038 0.0459999C14.4014 0.011946 15.7994 -0.00274984 17.1974 0.00191653L21.1381 0ZM19.1678 9.58333C16.6261 9.58333 14.1885 10.593 12.3913 12.3902C10.5941 14.1875 9.58442 16.625 9.58442 19.1667C9.58442 21.7083 10.5941 24.1459 12.3913 25.9431C14.1885 27.7403 16.6261 28.75 19.1678 28.75C21.7094 28.75 24.147 27.7403 25.9442 25.9431C27.7414 24.1459 28.7511 21.7083 28.7511 19.1667C28.7511 16.625 27.7414 14.1875 25.9442 12.3902C24.147 10.593 21.7094 9.58333 19.1678 9.58333ZM19.1678 13.4167C19.9229 13.4165 20.6706 13.5651 21.3683 13.854C22.0659 14.1428 22.6999 14.5663 23.2339 15.1001C23.7679 15.634 24.1916 16.2678 24.4807 16.9654C24.7697 17.6629 24.9186 18.4106 24.9187 19.1657C24.9188 19.9208 24.7702 20.6685 24.4814 21.3662C24.1925 22.0639 23.7691 22.6978 23.2353 23.2319C22.7014 23.7659 22.0676 24.1895 21.37 24.4786C20.6725 24.7677 19.9248 24.9165 19.1697 24.9167C17.6447 24.9167 16.1821 24.3109 15.1038 23.2325C14.0255 22.1542 13.4197 20.6917 13.4197 19.1667C13.4197 17.6417 14.0255 16.1791 15.1038 15.1008C16.1821 14.0225 17.6447 13.4167 19.1697 13.4167M29.2322 6.70833C28.5968 6.70833 27.9874 6.96075 27.5381 7.41006C27.0888 7.85936 26.8363 8.46875 26.8363 9.10417C26.8363 9.73958 27.0888 10.349 27.5381 10.7983C27.9874 11.2476 28.5968 11.5 29.2322 11.5C29.8676 11.5 30.477 11.2476 30.9263 10.7983C31.3756 10.349 31.628 9.73958 31.628 9.10417C31.628 8.46875 31.3756 7.85936 30.9263 7.41006C30.477 6.96075 29.8676 6.70833 29.2322 6.70833Z" fill="#E8E8E8"/>
</svg>
