<svg width="30" height="22" viewBox="0 0 30 22" fill="none" xmlns="http://www.w3.org/2000/svg">
<path d="M13.9985 0C13.7333 0 13.4789 0.105357 13.2914 0.292893C13.1039 0.48043 12.9985 0.734784 12.9985 1C12.9985 1.26522 13.1039 1.51957 13.2914 1.70711C13.4789 1.89464 13.7333 2 13.9985 2H15.7445C15.9324 1.99999 16.1164 2.05289 16.2756 2.15264C16.4347 2.25239 16.5626 2.39495 16.6445 2.564L18.3585 6.106C18.0773 6.03518 17.7885 5.99957 17.4985 6H16.6555C15.6714 6.00001 14.7067 6.27403 13.8695 6.79135C13.0324 7.30866 12.3558 8.04885 11.9155 8.929L10.8815 11H5.49851C4.47539 11.0003 3.47262 11.2859 2.60294 11.8248C1.73326 12.3638 1.03114 13.1346 0.575508 14.0506C0.119874 14.9667 -0.0712096 15.9917 0.023737 17.0104C0.118683 18.0291 0.495896 19.0011 1.11297 19.8172C1.73005 20.6333 2.56252 21.2611 3.51682 21.63C4.47111 21.9989 5.50939 22.0943 6.51494 21.9055C7.52049 21.7167 8.45344 21.2512 9.20893 20.5613C9.96441 19.8713 10.5125 18.9843 10.7915 18H12.3355C13.1713 18 13.9905 17.7672 14.7014 17.3278C15.4123 16.8883 15.9868 16.2596 16.3605 15.512L16.8665 14.5H10.6235C10.411 13.9564 10.1132 13.45 9.74151 13H17.6165L17.6175 12.998C18.2722 12.976 18.9076 12.7707 19.4513 12.4055C19.9951 12.0402 20.4255 11.5297 20.6935 10.932L21.2425 12.067C20.1373 12.8796 19.3756 14.0758 19.1069 15.421C18.8383 16.7662 19.082 18.1632 19.7902 19.338C20.4985 20.5128 21.6202 21.3805 22.9353 21.7709C24.2503 22.1612 25.6638 22.0461 26.8983 21.448C28.1328 20.85 29.0993 19.8121 29.6081 18.5382C30.1169 17.2643 30.1313 15.8462 29.6484 14.5623C29.1656 13.2783 28.2203 12.2211 26.9982 11.5981C25.776 10.9752 24.3652 10.8314 23.0425 11.195L22.3755 9.815C22.7275 9.935 23.1055 10 23.4985 10H25.9985C26.2637 10 26.5181 9.89464 26.7056 9.70711C26.8931 9.51957 26.9985 9.26522 26.9985 9V4C26.9985 3.73478 26.8931 3.48043 26.7056 3.29289C26.5181 3.10536 26.2637 3 25.9985 3H23.4985C21.9785 3 20.6845 3.97 20.2015 5.323L18.4445 1.693C18.1989 1.18566 17.8154 0.757763 17.3379 0.458335C16.8604 0.158906 16.3081 6.09199e-05 15.7445 0H13.9985ZM22.1375 13.916L23.5975 16.936C23.7131 17.1748 23.9189 17.3579 24.1696 17.445C24.4202 17.5322 24.6952 17.5161 24.934 17.4005C25.1728 17.2849 25.3559 17.0791 25.4431 16.8285C25.5302 16.5778 25.5141 16.3028 25.3985 16.064L23.9375 13.044C24.1208 13.0147 24.3078 13 24.4985 13C25.315 13.0001 26.1058 13.2856 26.734 13.8072C27.3622 14.3288 27.7883 15.0536 27.9385 15.8562C28.0887 16.6587 27.9536 17.4886 27.5565 18.202C27.1594 18.9155 26.5254 19.4677 25.7642 19.763C25.0029 20.0584 24.1624 20.0783 23.3881 19.8193C22.6137 19.5603 21.9543 19.0387 21.5239 18.3448C21.0935 17.651 20.9193 16.8285 21.0313 16.0197C21.1434 15.2109 21.5347 14.4667 22.1375 13.916ZM1.99851 16.5C1.99851 16.0404 2.08904 15.5852 2.26493 15.1606C2.44082 14.736 2.69863 14.3501 3.02363 14.0251C3.34864 13.7001 3.73447 13.4423 4.15911 13.2664C4.58375 13.0905 5.03888 13 5.49851 13C5.95813 13 6.41326 13.0905 6.8379 13.2664C7.26254 13.4423 7.64837 13.7001 7.97338 14.0251C8.29838 14.3501 8.55619 14.736 8.73208 15.1606C8.90798 15.5852 8.99851 16.0404 8.99851 16.5C8.99851 17.4283 8.62976 18.3185 7.97338 18.9749C7.317 19.6313 6.42676 20 5.49851 20C4.57025 20 3.68001 19.6313 3.02363 18.9749C2.36725 18.3185 1.99851 17.4283 1.99851 16.5ZM21.9985 6.5C21.9985 6.10218 22.1565 5.72064 22.4378 5.43934C22.7192 5.15804 23.1007 5 23.4985 5H24.9985V8H23.4985C23.1007 8 22.7192 7.84196 22.4378 7.56066C22.1565 7.27936 21.9985 6.89782 21.9985 6.5Z" fill="#161616"/>
</svg>
