<svg width="34" height="34" viewBox="0 0 34 34" fill="none" xmlns="http://www.w3.org/2000/svg">
<path d="M24.4375 0C25.0325 0 25.5 0.4675 25.5 1.0625V2.125H30.8125C32.5762 2.125 34 3.54875 34 5.3125V30.8125C34 32.5762 32.5762 34 30.8125 34H3.1875C1.42375 34 0 32.5762 0 30.8125V5.3125C0 3.54875 1.42375 2.125 3.1875 2.125H8.5V1.0625C8.5 0.4675 8.9675 0 9.5625 0C10.1575 0 10.625 0.4675 10.625 1.0625V2.125H23.375V1.0625C23.375 0.4675 23.8425 0 24.4375 0ZM2.125 30.8125C2.125 31.4075 2.5925 31.875 3.1875 31.875H30.8125C31.4075 31.875 31.875 31.4075 31.875 30.8125V12.75H2.125V30.8125ZM8.5 23.375C9.6736 23.375 10.625 24.3264 10.625 25.5C10.625 26.6736 9.6736 27.625 8.5 27.625C7.3264 27.625 6.375 26.6736 6.375 25.5C6.375 24.3264 7.3264 23.375 8.5 23.375ZM17 23.375C18.1736 23.375 19.125 24.3264 19.125 25.5C19.125 26.6736 18.1736 27.625 17 27.625C15.8264 27.625 14.875 26.6736 14.875 25.5C14.875 24.3264 15.8264 23.375 17 23.375ZM25.5 23.375C26.6736 23.375 27.625 24.3264 27.625 25.5C27.625 26.6736 26.6736 27.625 25.5 27.625C24.3264 27.625 23.375 26.6736 23.375 25.5C23.375 24.3264 24.3264 23.375 25.5 23.375ZM8.5 17C9.6736 17 10.625 17.9514 10.625 19.125C10.625 20.2986 9.6736 21.25 8.5 21.25C7.3264 21.25 6.375 20.2986 6.375 19.125C6.375 17.9514 7.3264 17 8.5 17ZM17 17C18.1736 17 19.125 17.9514 19.125 19.125C19.125 20.2986 18.1736 21.25 17 21.25C15.8264 21.25 14.875 20.2986 14.875 19.125C14.875 17.9514 15.8264 17 17 17ZM25.5 17C26.6736 17 27.625 17.9514 27.625 19.125C27.625 20.2986 26.6736 21.25 25.5 21.25C24.3264 21.25 23.375 20.2986 23.375 19.125C23.375 17.9514 24.3264 17 25.5 17ZM3.1875 4.25C2.5925 4.25 2.125 4.7175 2.125 5.3125V10.625H31.875V5.3125C31.875 4.7175 31.4075 4.25 30.8125 4.25H25.5V7.4375C25.5 8.0325 25.0325 8.5 24.4375 8.5C23.8425 8.5 23.375 8.0325 23.375 7.4375V4.25H10.625V7.4375C10.625 8.0325 10.1575 8.5 9.5625 8.5C8.9675 8.5 8.5 8.0325 8.5 7.4375V4.25H3.1875Z" fill="black"/>
</svg>
