<svg width="32" height="35" viewBox="0 0 32 35" fill="none" xmlns="http://www.w3.org/2000/svg">
<path d="M0 0V34.5H2.875V23H31.625V0H0ZM2.875 2.875H7.1875V7.1875H11.5V2.875H15.8125V7.1875H20.125V2.875H24.4375V7.1875H28.75V11.5H24.4375V15.8125H28.75V20.125H24.4375V15.8125H20.125V20.125H15.8125V15.8125H11.5V20.125H7.1875V15.8125H2.875V11.5H7.1875V7.1875H2.875V2.875ZM7.1875 11.5V15.8125H11.5V11.5H7.1875ZM11.5 11.5H15.8125V7.1875H11.5V11.5ZM15.8125 11.5V15.8125H20.125V11.5H15.8125ZM20.125 11.5H24.4375V7.1875H20.125V11.5Z" fill="black"/>
</svg>
