<svg width="29" height="27" viewBox="0 0 29 27" fill="none" xmlns="http://www.w3.org/2000/svg">
<path d="M16.1362 0.000119659C15.0147 0.00424466 13.9002 0.114745 12.8308 0.296745C7.41041 1.21924 4.35509 3.63843 2.70647 7.03575C4.65741 6.88362 6.58159 6.72174 8.45434 6.73337C9.96147 6.74274 11.4353 6.86443 12.8631 7.19399C13.81 7.41274 14.4038 8.23443 14.5885 9.17743C14.7732 10.1204 14.6422 11.2349 14.2726 12.3995L14.2547 12.456L14.2254 12.5076C13.7403 13.3601 12.709 14.0387 11.3945 14.7572C10.08 15.4758 8.47603 16.1756 6.87759 16.784C5.27916 17.3924 3.68934 17.9077 2.40416 18.2488C1.95078 18.3691 1.53853 18.4663 1.17072 18.5399C1.31291 20.4855 1.58084 22.5011 1.92122 24.5386C10.6786 22.148 19.015 19.5456 27.1406 16.8352C28.7615 14.0567 29.011 11.4322 28.201 8.91437C26.8015 4.56406 24.3948 2.22387 21.6251 1.02887C19.8941 0.281995 18.0055 -0.00675534 16.1363 0.000119659H16.1362ZM5.87297 7.94249C5.30672 7.97437 4.73141 8.01474 4.15222 8.05724L1.44334 17.3288C1.65484 17.2794 1.87684 17.2249 2.11547 17.1616C2.38013 17.0908 2.6439 17.0167 2.90672 16.9394C3.53309 14.9976 5.61297 8.72593 5.87297 7.94249ZM2.95422 8.14637C2.27497 8.19799 1.59022 8.24974 0.897469 8.29449C0.877469 8.32231 0.852844 8.35368 0.815094 8.43618C0.716344 8.65181 0.604157 9.02481 0.508094 9.48143C0.315907 10.3947 0.172469 11.6519 0.0890319 12.9112C0.00571936 14.1706 -0.019093 15.4386 0.0144695 16.3851C0.0312195 16.8584 0.0638444 17.2542 0.104594 17.5076C0.107594 17.5267 0.109469 17.5271 0.112719 17.5445C0.141469 17.5439 0.177282 17.5417 0.209345 17.5405L2.95422 8.14637ZM11.7365 8.17968C10.7617 8.17968 9.94522 8.96606 9.94522 9.93918C9.94522 10.9123 10.7617 11.6989 11.7365 11.6989C12.7112 11.6989 13.5277 10.9124 13.5277 9.93918C13.5277 8.96606 12.7112 8.17968 11.7365 8.17968ZM11.7365 9.30468C12.119 9.30468 12.4027 9.59012 12.4027 9.93918C12.4027 10.2883 12.119 10.5739 11.7365 10.5739C11.354 10.5739 11.0702 10.2882 11.0702 9.93918C11.0702 9.59012 11.354 9.30468 11.7365 9.30468ZM26.1233 18.3587C18.3854 20.9204 10.4418 23.3816 2.11484 25.6522C2.14066 25.797 2.16547 25.9416 2.19184 26.0864C11.4173 24.4208 18.1902 21.7761 25.4018 19.2637C25.6514 18.9693 25.892 18.6675 26.1235 18.3587L26.1233 18.3587Z" fill="#161616"/>
</svg>
