<svg width="16" height="19" viewBox="0 0 16 19" fill="none" xmlns="http://www.w3.org/2000/svg">
<path d="M13.6562 2.30475C10.5322 -0.76825 5.46716 -0.76825 2.34316 2.30475C1.60145 3.02938 1.01207 3.89498 0.60968 4.85066C0.207288 5.80634 0 6.83281 0 7.86975C0 8.90669 0.207288 9.93316 0.60968 10.8888C1.01207 11.8445 1.60145 12.7101 2.34316 13.4347L7.99917 18.9998L13.6562 13.4347C14.3979 12.7101 14.9873 11.8445 15.3897 10.8888C15.792 9.93316 15.9993 8.90669 15.9993 7.86975C15.9993 6.83281 15.792 5.80634 15.3897 4.85066C14.9873 3.89498 14.3979 3.02938 13.6562 2.30475ZM7.99917 10.4998C7.33117 10.4998 6.70417 10.2397 6.23117 9.76775C5.76292 9.2985 5.49994 8.66266 5.49994 7.99975C5.49994 7.33684 5.76292 6.701 6.23117 6.23175C6.70317 5.75975 7.33117 5.49975 7.99917 5.49975C8.66716 5.49975 9.29516 5.75975 9.76716 6.23175C10.2354 6.701 10.4984 7.33684 10.4984 7.99975C10.4984 8.66266 10.2354 9.2985 9.76716 9.76775C9.29516 10.2397 8.66716 10.4998 7.99917 10.4998Z" fill="#D6A400"/>
</svg>
