<svg width="39" height="39" viewBox="0 0 39 39" fill="none" xmlns="http://www.w3.org/2000/svg">
<path d="M19.1667 0C8.58667 0 0 8.58667 0 19.1667C0 29.7467 8.58667 38.3333 19.1667 38.3333C29.7467 38.3333 38.3333 29.7467 38.3333 19.1667C38.3333 8.58667 29.7467 0 19.1667 0ZM28.06 13.0333C27.7725 16.0617 26.5267 23.4217 25.8942 26.8142C25.6258 28.2517 25.0892 28.7308 24.5908 28.7883C23.4792 28.8842 22.6358 28.06 21.5625 27.3508C19.8758 26.2392 18.9175 25.5492 17.2883 24.4758C15.3908 23.23 16.6175 22.54 17.71 21.4283C17.9975 21.1408 22.9042 16.675 23 16.2725C23.0133 16.2115 23.0115 16.1482 22.9948 16.0881C22.9781 16.028 22.947 15.9729 22.9042 15.9275C22.7892 15.8317 22.6358 15.87 22.5017 15.8892C22.3292 15.9275 19.6458 17.71 14.4133 21.2367C13.6467 21.7542 12.9567 22.0225 12.3433 22.0033C11.6533 21.9842 10.35 21.62 9.3725 21.2942C8.165 20.9108 7.22583 20.7 7.3025 20.0292C7.34083 19.6842 7.82 19.3392 8.72083 18.975C14.3175 16.5408 18.0358 14.9308 19.895 14.1642C25.2233 11.9408 26.3158 11.5575 27.0442 11.5575C27.1975 11.5575 27.5617 11.5958 27.7917 11.7875C27.9833 11.9408 28.0408 12.1517 28.06 12.305C28.0408 12.42 28.0792 12.765 28.06 13.0333Z" fill="#E8E8E8"/>
</svg>
