<svg width="37" height="40" viewBox="0 0 37 40" fill="none" xmlns="http://www.w3.org/2000/svg">
<path fill-rule="evenodd" clip-rule="evenodd" d="M27.1689 1.01096C21.1387 -0.336988 14.8853 -0.336988 8.85516 1.01096L8.20541 1.15471C6.50873 1.53293 4.95031 2.37463 3.70366 3.58608C2.45701 4.79754 1.57105 6.33122 1.14441 8.01638C-0.38147 14.0399 -0.38147 20.3488 1.14441 26.3723C1.55133 27.9794 2.37639 29.4502 3.53578 30.6351C4.69518 31.8201 6.14757 32.6771 7.74541 33.119L8.63666 38.4396C8.66511 38.6086 8.73833 38.7668 8.84871 38.8979C8.95908 39.0289 9.10257 39.128 9.26422 39.1847C9.42588 39.2415 9.5998 39.2539 9.76787 39.2206C9.93593 39.1873 10.092 39.1096 10.2198 38.9955L15.4542 34.313C19.3836 34.5502 23.3267 34.2361 27.1689 33.3796L27.8206 33.2359C29.5173 32.8577 31.0757 32.016 32.3223 30.8045C33.569 29.5931 34.4549 28.0594 34.8816 26.3742C36.4075 20.3507 36.4075 14.0418 34.8816 8.0183C34.4548 6.3329 33.5685 4.79905 32.3215 3.58757C31.0745 2.37609 29.5157 1.53453 27.8187 1.15663L27.1689 1.01096ZM10.4728 7.86113C10.1166 7.80897 9.75326 7.88069 9.44358 8.0643H9.41674C8.69799 8.48596 8.05016 9.01688 7.49816 9.64171C7.03816 10.1726 6.78899 10.7093 6.72383 11.2268C6.68549 11.5335 6.71233 11.844 6.80241 12.1372L6.83691 12.1564C7.35441 13.6763 8.02908 15.1387 8.85324 16.5149C9.91641 18.4475 11.2241 20.2351 12.7441 21.8336L12.7901 21.8988L12.8629 21.9525L12.907 22.0042L12.9607 22.0502C14.5649 23.5746 16.3567 24.8885 18.2928 25.9602C20.5066 27.1658 21.8502 27.735 22.6571 27.9727V27.9842C22.8928 28.057 23.1075 28.0896 23.3241 28.0896C24.0116 28.0403 24.6625 27.7608 25.1717 27.2961C25.7947 26.7441 26.3217 26.0944 26.7319 25.3718V25.3584C27.1172 24.63 26.9868 23.9439 26.431 23.4781C25.3155 22.5014 24.1081 21.6349 22.8257 20.8906C21.9671 20.4249 21.095 20.7066 20.7423 21.1781L19.9891 22.1288C19.6019 22.6003 18.9004 22.5351 18.9004 22.5351L18.8812 22.5466C13.6468 21.2107 12.2496 15.9111 12.2496 15.9111C12.2496 15.9111 12.1844 15.1905 12.6693 14.8225L13.6123 14.0635C14.0647 13.6955 14.379 12.8253 13.8941 11.9666C13.1515 10.6852 12.2869 9.47848 11.3123 8.3633C11.0991 8.10144 10.8006 7.92298 10.469 7.85921M19.3163 5.5573C19.0622 5.5573 18.8184 5.65826 18.6387 5.83799C18.459 6.01771 18.358 6.26146 18.358 6.51563C18.358 6.7698 18.459 7.01355 18.6387 7.19327C18.8184 7.373 19.0622 7.47396 19.3163 7.47396C21.7409 7.47396 23.7534 8.26555 25.3462 9.78355C26.1646 10.6135 26.8028 11.5967 27.2207 12.6739C27.6404 13.753 27.8321 14.9049 27.7822 16.0587C27.777 16.1846 27.7965 16.3102 27.8398 16.4285C27.8831 16.5468 27.9492 16.6554 28.0345 16.7481C28.2066 16.9354 28.4462 17.0466 28.7003 17.0573C28.9545 17.068 29.2025 16.9772 29.3898 16.8051C29.577 16.6329 29.6882 16.3934 29.6989 16.1392C29.7561 14.72 29.5206 13.3043 29.007 11.98C28.4911 10.6491 27.7054 9.43924 26.6993 8.42655L26.6802 8.40738C24.7041 6.51946 22.2028 5.5573 19.3163 5.5573ZM19.2512 8.7083C18.997 8.7083 18.7532 8.80926 18.5735 8.98899C18.3938 9.16871 18.2928 9.41246 18.2928 9.66663C18.2928 9.9208 18.3938 10.1646 18.5735 10.3443C18.7532 10.524 18.997 10.625 19.2512 10.625H19.2837C21.0317 10.7495 22.3044 11.3322 23.1957 12.2886C24.1099 13.2738 24.5833 14.4985 24.5469 16.0127C24.5411 16.2669 24.6364 16.513 24.812 16.6968C24.9876 16.8807 25.229 16.9872 25.4832 16.9931C25.7374 16.9989 25.9834 16.9036 26.1673 16.728C26.3512 16.5524 26.4577 16.311 26.4636 16.0568C26.5096 14.0692 25.8694 12.3538 24.6006 10.9853V10.9815C23.303 9.58996 21.5224 8.85396 19.3796 8.71021L19.347 8.70638L19.2512 8.7083ZM19.2147 11.9187C19.0865 11.9074 18.9573 11.922 18.8348 11.9618C18.7123 12.0015 18.5991 12.0655 18.5019 12.1499C18.4048 12.2344 18.3256 12.3375 18.2691 12.4533C18.2127 12.569 18.1802 12.6949 18.1735 12.8235C18.1668 12.952 18.1861 13.0807 18.2302 13.2016C18.2743 13.3226 18.3423 13.4334 18.4302 13.5275C18.5181 13.6216 18.624 13.697 18.7417 13.7492C18.8593 13.8015 18.9863 13.8295 19.1151 13.8315C19.9162 13.8737 20.428 14.1152 20.75 14.4391C21.0739 14.765 21.3154 15.2882 21.3595 16.1066C21.3619 16.2352 21.3901 16.362 21.4426 16.4795C21.495 16.597 21.5706 16.7027 21.6647 16.7903C21.7589 16.8779 21.8697 16.9457 21.9906 16.9896C22.1115 17.0335 22.24 17.0526 22.3685 17.0458C22.4969 17.039 22.6227 17.0064 22.7383 16.9499C22.8538 16.8935 22.9569 16.8143 23.0412 16.7172C23.1256 16.6201 23.1895 16.507 23.2292 16.3846C23.2689 16.2623 23.2836 16.1332 23.2723 16.005C23.211 14.855 22.8507 13.8392 22.1127 13.0917C21.371 12.3442 20.3609 11.98 19.2147 11.9187Z" fill="#E8E8E8"/>
</svg>
