<svg width="24" height="26" viewBox="0 0 24 26" fill="none" xmlns="http://www.w3.org/2000/svg">
<path d="M14.736 0.451397C14.5312 0.284025 14.2953 0.158936 14.0418 0.083369C13.7883 0.00780212 13.5224 -0.0167413 13.2594 0.0111594C12.9964 0.0390601 12.7415 0.118851 12.5095 0.245913C12.2776 0.372975 12.0731 0.544784 11.908 0.751397L6.116 8.0074H8.676L13.47 1.9994L15.01 3.2574L11.15 8.0074H13.726L16.56 4.5194L19.996 7.3254L19.4 8.0074H20C20.5964 8.00677 21.1896 8.09507 21.76 8.2694C21.9779 7.86066 22.0471 7.38897 21.956 6.93485C21.8648 6.48073 21.6188 6.07234 21.26 5.7794L14.736 0.451397ZM2 9.0074C2 8.74218 2.10536 8.48783 2.29289 8.30029C2.48043 8.11275 2.73478 8.0074 3 8.0074H4.116L5.706 6.0074H3C2.20435 6.0074 1.44129 6.32347 0.87868 6.88608C0.316071 7.44869 0 8.21175 0 9.0074V21.0074C0 22.3335 0.526784 23.6052 1.46447 24.5429C2.40215 25.4806 3.67392 26.0074 5 26.0074H20C21.0609 26.0074 22.0783 25.586 22.8284 24.8358C23.5786 24.0857 24 23.0683 24 22.0074V14.0074C24 12.9465 23.5786 11.9291 22.8284 11.179C22.0783 10.4288 21.0609 10.0074 20 10.0074H3C2.73478 10.0074 2.48043 9.90204 2.29289 9.7145C2.10536 9.52697 2 9.27261 2 9.0074ZM17 18.0074H19C19.2652 18.0074 19.5196 18.1128 19.7071 18.3003C19.8946 18.4878 20 18.7422 20 19.0074C20 19.2726 19.8946 19.527 19.7071 19.7145C19.5196 19.902 19.2652 20.0074 19 20.0074H17C16.7348 20.0074 16.4804 19.902 16.2929 19.7145C16.1054 19.527 16 19.2726 16 19.0074C16 18.7422 16.1054 18.4878 16.2929 18.3003C16.4804 18.1128 16.7348 18.0074 17 18.0074Z" fill="#161616"/>
</svg>
