<svg xmlns="http://www.w3.org/2000/svg" version="1.1" xmlns:xlink="http://www.w3.org/1999/xlink" width="144" height="144"><svg xmlns="http://www.w3.org/2000/svg" version="1.1" xmlns:xlink="http://www.w3.org/1999/xlink" width="144" height="144"><svg width="144" height="144" viewBox="0 0 144 144" fill="none" xmlns="http://www.w3.org/2000/svg">
<path d="M16.627 72.4697C25.0534 72.4636 27.8664 72.6591 29.2881 73.373C30.2949 73.8734 31.6677 75.1793 32.3389 76.2715C33.4249 78.0409 33.5535 79.3349 33.5596 88.1699C33.5596 95.5709 33.7548 98.1397 34.3223 98.3105C34.7439 98.4323 37.1477 97.718 39.6611 96.7236C42.1808 95.7231 44.4567 94.7354 44.7256 94.5156C44.9941 94.296 44.4755 92.6115 43.5664 90.7627C42.6084 88.804 42.0897 86.9612 42.3154 86.3389C42.6878 85.3444 44.6659 85.2715 72 85.2715C94.9119 85.2715 101.337 85.4362 101.502 86.0342C101.617 86.4558 101.031 88.1701 100.189 89.8477C99.3537 91.5254 98.8108 93.313 98.9814 93.8135C99.1584 94.3138 101.599 95.6197 104.412 96.7119C107.224 97.8039 109.658 98.5357 109.83 98.3408C110.001 98.1456 110.27 93.2094 110.746 76.7471L114.73 72.7627L126.165 72.543C135.634 72.366 137.959 72.4945 139.729 73.2998C140.906 73.8307 142.347 75.0936 142.933 76.1064C143.903 77.7783 144 80.2628 144 103.271C144 123.468 143.829 128.935 143.164 130.271C142.706 131.193 141.608 132.431 140.724 133.017C139.332 133.944 137.532 134.085 127.221 134.085C116.909 134.085 115.108 133.944 113.717 133.017C112.832 132.431 111.734 131.193 111.276 130.271C110.66 129.027 110.44 125.585 110.44 105.407L94.5762 99.3047L72.1523 99.3291C50.2172 99.3535 49.6432 99.3901 45.7627 100.781C43.5783 101.568 39.9419 102.93 33.5596 105.407L33.5527 117.152C33.5527 127.872 33.4434 129.057 32.333 130.729C31.6619 131.735 30.4966 132.895 29.7461 133.298C28.8064 133.81 24.5777 134.048 4.27148 134.085L0 129.813V103.882C0 83.1861 0.17095 77.6082 0.835938 76.2715C1.29355 75.3502 2.59948 74.1178 3.73438 73.5381C5.45504 72.6594 7.59048 72.4819 16.627 72.4697ZM99.1523 9C110.239 9 111.137 9.08579 112.271 10.2207C112.943 10.8919 113.491 11.9901 113.491 12.6611C113.491 13.3323 112.943 14.4304 112.271 15.1016C111.149 16.2243 110.239 16.3223 90.915 16.3223L89.2373 18.6465C88.3159 19.9278 86.9063 22.3322 84.667 27L88.0967 33.5596C89.9821 37.1655 92.0749 40.3929 92.7461 40.7285C93.4178 41.0641 97.6707 41.3389 110.44 41.3389L119.038 49.5762L118.989 64.2207L102.813 80.3838L40.5762 80.3535L24.3887 64.2207L24.3516 49.5762L32.9492 41.3389L41.6445 41.3574C49.2346 41.3757 50.4615 41.2409 51.3096 40.2891C51.8409 39.6902 53.5304 37.0063 55.0615 34.3223C56.593 31.6375 58.0267 28.7571 58.2402 27.915C58.527 26.8106 58.0212 25.2055 56.4043 22.1182C55.1779 19.7691 53.7252 17.4994 53.1699 17.0723C52.4555 16.5233 49.337 16.3035 42.2539 16.3096C32.7357 16.3218 32.2901 16.2671 31.1064 14.9492C30.4293 14.1927 29.8798 13.0946 29.8857 12.5088C29.8918 11.9231 30.4472 10.8919 31.1182 10.2207C32.2531 9.08579 33.1509 9 43.9326 9C50.3078 9.00001 55.969 9.20789 56.5195 9.45801C57.0626 9.70818 58.7842 11.9285 60.334 14.3936C61.9387 16.9441 63.6775 18.9888 64.373 19.1475C65.0449 19.3 68.8832 19.3419 80.2246 19.0674L82.8184 15.1016C84.2461 12.9172 85.8266 10.6531 86.333 10.0674C87.1507 9.1158 88.5794 9 99.1523 9ZM101.087 55.373C99.1466 55.3731 98.0605 55.7449 97.0049 56.7822C95.9433 57.8256 95.5952 58.7899 95.6807 60.4434C95.7539 61.9198 96.3217 63.2191 97.3223 64.2197C98.3778 65.2753 99.5188 65.7451 101.014 65.7451C102.515 65.7451 103.631 65.2814 104.675 64.2197C105.626 63.2497 106.176 61.9748 106.188 60.7119C106.201 59.6198 105.651 57.9722 104.968 57.0508C103.949 55.6718 103.259 55.373 101.087 55.373ZM42.5293 55.3604C40.8148 55.3665 39.838 55.7873 38.752 56.9893C37.9466 57.8739 37.2695 59.2468 37.251 60.04C37.2327 60.8271 37.7024 62.3038 38.2881 63.3105C39.0447 64.6102 39.9851 65.2638 41.4922 65.5322C42.8465 65.7761 44.1764 65.6052 45.1221 65.0684C45.9458 64.6046 47.0199 63.5303 47.502 62.6943C48.0388 61.7608 48.2282 60.5162 47.9902 59.4912C47.7706 58.57 46.9772 57.2584 46.2207 56.5811C45.3421 55.794 44.0119 55.3543 42.5293 55.3604Z" fill="#D6A400"></path>
</svg></svg><style>@media (prefers-color-scheme: light) { :root { filter: none; } }
@media (prefers-color-scheme: dark) { :root { filter: none; } }
</style></svg>