<svg width="17" height="17" viewBox="0 0 17 17" fill="none" xmlns="http://www.w3.org/2000/svg"><path d="M0.500 0.046 C 0.407 0.075,0.318 0.133,0.228 0.222 C 0.013 0.438,-0.051 0.713,0.046 1.008 C 0.088 1.136,0.400 1.456,3.935 4.996 C 6.671 7.736,7.814 8.863,7.906 8.910 C 8.094 9.007,8.264 9.025,8.462 8.968 L 8.627 8.921 12.502 5.048 C 14.775 2.777,16.397 1.135,16.425 1.077 C 16.488 0.945,16.505 0.681,16.461 0.523 C 16.418 0.369,16.242 0.162,16.083 0.077 C 15.914 -0.012,15.590 -0.010,15.413 0.081 C 15.324 0.128,14.240 1.192,11.765 3.665 L 8.245 7.182 4.696 3.636 C 1.228 0.170,1.144 0.088,0.994 0.045 C 0.806 -0.010,0.681 -0.009,0.500 0.046 M0.453 7.567 C 0.297 7.638,0.156 7.769,0.076 7.919 C -0.019 8.097,-0.011 8.412,0.094 8.601 C 0.214 8.818,7.757 16.352,7.933 16.431 C 8.105 16.509,8.384 16.509,8.557 16.432 C 8.749 16.345,16.325 8.774,16.422 8.571 C 16.508 8.391,16.514 8.116,16.436 7.945 C 16.371 7.801,16.223 7.650,16.076 7.577 C 15.926 7.503,15.555 7.502,15.413 7.576 C 15.359 7.604,13.724 9.217,11.780 11.159 L 8.245 14.691 4.710 11.157 C 1.947 8.395,1.148 7.611,1.048 7.567 C 0.878 7.490,0.623 7.491,0.453 7.567 " fill="#333333" stroke="none" fill-rule="evenodd"></path></svg>