<svg width="168" height="245" viewBox="0 0 168 245" fill="none" xmlns="http://www.w3.org/2000/svg">
<path d="M-11.0037 137.794L-20.89 141.181L-19.0292 134.405H-28.7998L-9.72334 121.82L-22.7507 126.175L-8.32925 112.624L-21.3567 118.916L-6.0038 101.492L-18.0998 103.912L-2.74686 93.7475L-12.6331 95.6848C-12.6331 95.6848 -0.886192 85.038 3.53543 74.8737C7.95502 85.038 19.7041 95.6848 19.7041 95.6848L9.81783 93.7475L25.1708 103.912L13.0748 101.492L28.4276 118.916L15.4002 112.624L29.8217 126.175L16.7942 121.82L35.8707 134.405H26.1002L27.961 141.181L18.0747 137.794L32.6138 151.831L20.5178 148.443L27.4963 155.22L5.83053 149.093V176.031H1.24044V149.091L-20.4253 155.218L-13.4468 148.441L-25.5429 151.828L-11.0037 137.794Z" fill="#BCBCBC"/>
<path d="M22.7885 136.638L13.8925 139.687L15.5666 133.59H6.77404L23.9391 122.265L12.2164 126.184L25.1951 113.989L13.4725 119.65L27.2872 103.971L16.4026 106.148L30.2174 97.0028L21.3214 98.7448C21.3214 98.7448 31.8934 89.1643 35.8707 80.0169C39.8479 89.1619 50.418 98.7448 50.418 98.7448L41.522 97.0028L55.3368 106.148L44.4521 103.971L58.267 119.65L46.5443 113.989L59.523 126.184L47.8004 122.265L64.9653 133.59H56.1728L57.8469 139.687L48.951 136.638L62.0331 149.269L51.1486 146.221L57.4289 152.318L37.9344 146.805V171.046H33.8051V146.805L14.3105 152.318L20.5909 146.221L9.70625 149.269L22.7885 136.638Z" fill="#BCBCBC"/>
<path d="M-28.7166 83.6256L-37.6125 86.6739L-35.9385 80.5772H-44.7309L-27.566 69.2525L-39.2887 73.1718L-26.3099 60.9761L-38.0326 66.6373L-24.2179 50.9578L-35.1024 53.1352L-21.2877 43.9902L-30.1837 45.7321C-30.1837 45.7321 -19.6116 36.1493 -15.6364 27.0043C-11.6592 36.1493 -1.08699 45.7321 -1.08699 45.7321L-9.98305 43.9902L3.83168 53.1352L-7.05283 50.9578L6.7619 66.6373L-4.96072 60.9761L8.01801 73.1718L-3.70473 69.2525L13.4603 80.5772H4.66781L6.3418 86.6739L-2.55414 83.6256L10.5281 96.2568L-0.356507 93.2084L5.92379 99.3051L-13.5707 93.7922V118.033H-17.7V93.7922L-37.1945 99.3051L-30.9142 93.2084L-41.7988 96.2568L-28.7166 83.6256Z" fill="#BCBCBC"/>
<path d="M161.88 214.768L93.159 152.054C91.2881 150.348 89.0621 149.239 86.7062 148.841L-24.3436 130.151C-25.6138 129.937 -26.8497 129.515 -28.0185 128.901L-144.876 67.2776C-147.52 65.8841 -150.48 65.5075 -153.323 66.2066L-284.28 98.4342C-286.721 99.0344 -289.257 98.8438 -291.611 97.8834L-426.896 42.6767C-435.737 39.0681 -445 46.6784 -445 57.5535V228.458C-445 237.179 -438.898 244.243 -431.38 244.227L153.501 242.93C166.393 242.902 172.014 224.016 161.88 214.768Z" fill="#BCBCBC"/>
</svg>
