<svg width="1440" height="363" viewBox="0 0 1440 363" fill="none" xmlns="http://www.w3.org/2000/svg">
<path d="M679.099 238.717L688.985 242.104L687.125 235.327H696.895L677.819 222.743L690.846 227.098L676.425 213.546L689.452 219.838L674.099 202.414L686.195 204.834L670.842 194.67L680.729 196.607C680.729 196.607 668.982 185.96 664.56 175.796C660.14 185.96 648.391 196.607 648.391 196.607L658.278 194.67L642.925 204.834L655.021 202.414L639.668 219.838L652.695 213.546L638.274 227.098L651.301 222.743L632.225 235.327H641.995L640.134 242.104L650.021 238.717L635.482 252.753L647.578 249.366L640.599 256.143L662.265 250.016V276.954H666.855V250.013L688.521 256.14L681.542 249.364L693.638 252.751L679.099 238.717Z" fill="#F1F1F1"/>
<path d="M744.853 211.515L760.969 217.037L757.935 205.992H773.863L742.769 185.48L764.003 192.58L740.492 170.49L761.726 180.746L736.7 152.344L756.418 156.289L731.392 139.722L747.507 142.879C747.507 142.879 728.358 125.523 721.154 108.954C713.951 125.521 694.801 142.879 694.801 142.879L710.917 139.722L685.891 156.289L705.609 152.344L680.582 180.746L701.816 170.49L678.308 192.58L699.541 185.48L668.448 205.992H684.375L681.341 217.037L697.457 211.515L673.758 234.392L693.476 228.87L682.1 239.915L717.414 229.927V273.84H724.896V229.927L760.21 239.915L748.834 228.87L768.552 234.392L744.853 211.515Z" fill="#F1F1F1"/>
<path d="M784.694 215.554L799.765 220.718L796.928 210.389H811.823L782.744 191.207L802.602 197.848L780.616 177.19L800.473 186.782L777.069 160.22L795.508 163.909L772.103 148.415L787.174 151.367C787.174 151.367 769.266 135.134 762.528 119.641C755.791 135.134 737.881 151.367 737.881 151.367L752.952 148.415L729.549 163.909L747.988 160.22L724.583 186.782L744.441 177.19L722.457 197.848L742.315 191.207L713.236 210.389H728.131L725.294 220.718L740.365 215.554L718.202 236.951L736.641 231.787L726.004 242.116L759.029 232.775V273.839H766.026V232.775L799.051 242.116L788.412 231.787L806.851 236.951L784.694 215.554Z" fill="#F1F1F1"/>
<path d="M856.751 214.344L869.032 218.553L866.721 210.135H878.859L855.162 194.503L871.345 199.915L853.429 183.079L869.612 190.897L850.54 169.252L865.566 172.258L846.494 159.632L858.776 162.038C858.776 162.038 844.182 148.811 838.691 136.184C833.2 148.811 818.606 162.038 818.606 162.038L830.889 159.632L811.817 172.258L826.843 169.252L807.77 190.897L823.953 183.079L806.037 199.915L822.22 194.503L798.523 210.135H810.662L808.351 218.553L820.631 214.344L802.57 231.78L817.596 227.571L808.927 235.988L835.84 228.378V261.844H841.542V228.378L868.456 235.988L859.787 227.571L874.813 231.78L856.751 214.344Z" fill="#F1F1F1"/>
<path d="M813.953 212.854L826.234 217.063L823.923 208.645H836.061L812.365 193.013L828.547 198.424L810.632 181.589L826.814 189.407L807.742 167.76L822.768 170.766L803.696 158.139L815.979 160.545C815.979 160.545 801.385 147.318 795.894 134.692C790.403 147.318 775.809 160.545 775.809 160.545L788.091 158.139L769.019 170.766L784.045 167.76L764.973 189.404L781.155 181.587L763.24 198.422L779.423 193.01L755.726 208.643H767.864L765.553 217.06L777.834 212.852L759.772 230.287L774.798 226.078L766.129 234.496L793.042 226.886V260.352H798.745V226.886L825.658 234.496L816.989 226.078L832.015 230.287L813.953 212.854Z" fill="#F1F1F1"/>
<path d="M829.99 191.203L842.271 195.411L839.96 186.994H852.098L828.401 171.361L844.584 176.773L826.668 159.938L842.851 167.753L823.779 146.108L838.805 149.114L819.733 136.488L832.015 138.894C832.015 138.894 817.421 125.667 811.93 113.04C806.439 125.667 791.845 138.894 791.845 138.894L804.128 136.488L785.056 149.114L800.082 146.108L781.009 167.753L797.192 159.938L779.276 176.773L795.459 171.361L771.762 186.994H783.901L781.59 195.411L793.87 191.203L775.809 208.638L790.835 204.429L782.166 212.847L809.079 205.237V238.702H814.781V205.237L841.695 212.847L833.026 204.429L848.052 208.638L829.99 191.203Z" fill="#F1F1F1"/>
<path d="M891.942 221.133L900.837 224.181L899.163 218.084H907.956L890.791 206.762L902.514 210.681L889.535 198.486L901.258 204.147L887.443 188.467L898.327 190.645L884.513 181.5L893.409 183.242C893.409 183.242 882.836 173.659 878.861 164.514C874.884 173.659 864.312 183.242 864.312 183.242L873.208 181.5L859.393 190.645L870.278 188.467L856.463 204.147L868.186 198.486L855.207 210.681L866.93 206.762L849.765 218.084H858.557L856.883 224.181L865.779 221.133L852.697 233.764L863.581 230.716L857.301 236.812L876.796 231.299V255.54H880.925V231.299L900.419 236.812L894.139 230.716L905.024 233.764L891.942 221.133Z" fill="#F1F1F1"/>
<path d="M910.239 186.415L914.687 187.94L913.849 184.892H918.246L909.662 179.231L915.523 181.191L909.033 175.095L914.894 177.926L907.986 170.088L913.429 171.178L906.521 166.604L910.969 167.475C910.969 167.475 905.683 162.685 903.695 158.111C901.706 162.685 896.42 167.475 896.42 167.475L900.868 166.604L893.961 171.178L899.403 170.088L892.495 177.926L898.356 175.095L891.866 181.191L897.727 179.231L889.143 184.892H893.54L892.702 187.94L897.15 186.415L890.608 192.73L896.051 191.205L892.911 194.253L902.66 191.497V203.617H904.725V191.497L914.474 194.253L911.335 191.205L916.777 192.73L910.239 186.415Z" fill="#F1F1F1"/>
<path d="M645.307 237.561L654.203 240.609L652.529 234.512H661.321L644.156 223.188L655.879 227.107L642.9 214.911L654.623 220.572L640.808 204.893L651.693 207.07L637.878 197.925L646.774 199.667C646.774 199.667 636.202 190.087 632.225 180.939C628.247 190.084 617.677 199.667 617.677 199.667L626.573 197.925L612.759 207.07L623.643 204.893L609.828 220.572L621.551 214.911L608.572 227.107L620.295 223.188L603.13 234.512H611.923L610.248 240.609L619.144 237.561L606.062 250.192L616.947 247.144L610.666 253.24L630.161 247.727V271.968H634.29V247.727L653.785 253.24L647.504 247.144L658.389 250.192L645.307 237.561Z" fill="#F1F1F1"/>
<path d="M820.049 157.544L828.945 160.592L827.271 154.495H836.063L818.899 143.171L830.621 147.09L817.643 134.894L829.365 140.556L815.55 124.876L826.435 127.053L812.62 117.908L821.516 119.65C821.516 119.65 810.944 110.07 806.967 100.922C802.99 110.067 792.42 119.65 792.42 119.65L801.316 117.908L787.501 127.053L798.385 124.876L784.571 140.556L796.293 134.894L783.315 147.09L795.037 143.171L777.872 154.495H786.665L784.991 160.592L793.887 157.544L780.804 170.175L791.689 167.127L785.409 173.223L804.903 167.71V191.951H809.033V167.71L828.527 173.223L822.247 167.127L833.131 170.175L820.049 157.544Z" fill="#F1F1F1"/>
<path d="M696.812 184.548L705.708 187.596L704.034 181.5H712.826L695.661 170.175L707.384 174.094L694.405 161.899L706.128 167.56L692.313 151.88L703.198 154.058L689.383 144.913L698.279 146.655C698.279 146.655 687.707 137.072 683.732 127.927C679.755 137.072 669.182 146.655 669.182 146.655L678.078 144.913L664.264 154.058L675.148 151.88L661.333 167.56L673.056 161.899L660.077 174.094L671.8 170.175L654.635 181.5H663.428L661.754 187.596L670.65 184.548L657.567 197.179L668.452 194.131L662.172 200.228L681.666 194.715V218.955H685.795V194.715L705.29 200.228L699.01 194.131L709.894 197.179L696.812 184.548Z" fill="#F1F1F1"/>
<path d="M506.216 315.69L574.936 252.977C576.807 251.27 579.033 250.161 581.389 249.764L692.439 231.073C693.709 230.859 694.945 230.438 696.114 229.824L812.971 168.2C815.615 166.807 818.576 166.43 821.419 167.129L952.375 199.357C954.816 199.957 957.353 199.766 959.706 198.806L1094.99 143.599C1103.83 139.991 1113.1 147.601 1113.1 158.476V329.38C1113.1 338.102 1106.99 345.166 1099.48 345.149L514.594 343.852C501.703 343.824 496.082 324.939 506.216 315.69Z" fill="#F1F1F1"/>
<path d="M560.996 256.117L551.11 259.504L552.971 252.727H543.2L562.277 240.143L549.249 244.498L563.671 230.947L550.643 237.239L565.996 219.815L553.9 222.235L569.253 212.07L559.367 214.008C559.367 214.008 571.114 203.361 575.535 193.197C579.955 203.361 591.704 214.008 591.704 214.008L581.818 212.07L597.171 222.235L585.075 219.815L600.428 237.239L587.4 230.947L601.822 244.498L588.794 240.143L607.871 252.727H598.1L599.961 259.504L590.075 256.117L604.614 270.154L592.518 266.766L599.496 273.543L577.831 267.416V294.354H573.241V267.414L551.575 273.541L558.553 266.764L546.457 270.151L560.996 256.117Z" fill="#F1F1F1"/>
<path d="M495.242 228.915L479.126 234.437L482.16 223.393H466.233L497.326 202.881L476.093 209.98L499.603 187.891L478.37 198.147L503.396 169.744L483.678 173.69L508.704 157.123L492.588 160.279C492.588 160.279 511.738 142.924 518.941 126.355C526.145 142.921 545.294 160.279 545.294 160.279L529.179 157.123L554.205 173.69L534.487 169.744L559.513 198.147L538.279 187.891L561.788 209.98L540.554 202.881L571.648 223.393H555.72L558.754 234.437L542.638 228.915L566.337 251.793L546.619 246.271L557.995 257.315L522.681 247.328V291.24H515.199V247.328L479.885 257.315L491.261 246.271L471.543 251.793L495.242 228.915Z" fill="#F1F1F1"/>
<path d="M455.401 232.954L440.33 238.119L443.167 227.79H428.273L457.351 208.608L437.493 215.248L459.48 194.59L439.622 204.182L463.027 177.621L444.587 181.309L467.992 165.816L452.921 168.768C452.921 168.768 470.829 152.535 477.568 137.041C484.305 152.535 502.215 168.768 502.215 168.768L487.144 165.816L510.546 181.309L492.107 177.621L515.512 204.182L495.654 194.59L517.639 215.248L497.781 208.608L526.859 227.79H511.965L514.802 238.119L499.731 232.954L521.894 254.352L503.454 249.187L514.092 259.516L481.066 250.176V291.24H474.07V250.176L441.045 259.516L451.684 249.187L433.244 254.352L455.401 232.954Z" fill="#F1F1F1"/>
<path d="M383.344 231.745L371.064 235.953L373.375 227.536H361.236L384.933 211.903L368.75 217.315L386.666 200.48L370.483 208.297L389.556 186.653L374.53 189.659L393.602 177.032L381.319 179.438C381.319 179.438 395.913 166.211 401.404 153.585C406.895 166.211 421.489 179.438 421.489 179.438L409.206 177.032L428.279 189.659L413.253 186.653L432.325 208.297L416.142 200.48L434.058 217.315L417.875 211.903L441.572 227.536H429.433L431.745 235.953L419.464 231.745L437.526 249.18L422.5 244.971L431.168 253.389L404.255 245.779V279.244H398.553V245.779L371.64 253.389L380.309 244.971L365.282 249.18L383.344 231.745Z" fill="#F1F1F1"/>
<path d="M426.142 230.254L413.861 234.463L416.173 226.046H404.034L427.731 210.413L411.548 215.825L429.464 198.99L413.281 206.807L432.353 185.16L417.327 188.166L436.4 175.54L424.117 177.945C424.117 177.945 438.711 164.719 444.202 152.092C449.693 164.719 464.287 177.945 464.287 177.945L452.004 175.54L471.077 188.166L456.05 185.16L475.123 206.805L458.94 198.987L476.856 215.822L460.673 210.411L484.37 226.043H472.231L474.543 234.461L462.262 230.252L480.324 247.688L465.297 243.479L473.966 251.896L447.053 244.286V277.752H441.351V244.286L414.438 251.896L423.106 243.479L408.08 247.688L426.142 230.254Z" fill="#F1F1F1"/>
<path d="M410.105 208.603L397.825 212.812L400.136 204.394H387.997L411.694 188.762L395.511 194.173L413.427 177.338L397.244 185.153L416.317 163.509L401.291 166.515L420.363 153.888L408.08 156.294C408.08 156.294 422.674 143.067 428.165 130.441C433.656 143.067 448.25 156.294 448.25 156.294L435.967 153.888L455.04 166.515L440.014 163.509L459.086 185.153L442.903 177.338L460.819 194.173L444.636 188.762L468.333 204.394H456.194L458.506 212.812L446.225 208.603L464.287 226.039L449.261 221.83L457.929 230.247L431.016 222.637V256.103H425.314V222.637L398.401 230.247L407.07 221.83L392.043 226.039L410.105 208.603Z" fill="#F1F1F1"/>
<path d="M348.154 238.533L339.258 241.582L340.932 235.485H332.14L349.305 224.162L337.582 228.082L350.561 215.886L338.838 221.547L352.653 205.868L341.768 208.045L355.583 198.9L346.687 200.642C346.687 200.642 357.259 191.059 361.234 181.914C365.211 191.059 375.784 200.642 375.784 200.642L366.887 198.9L380.702 208.045L369.818 205.868L383.632 221.547L371.91 215.886L384.889 228.082L373.166 224.162L390.331 235.485H381.538L383.212 241.582L374.316 238.533L387.399 251.164L376.514 248.116L382.794 254.213L363.3 248.7V272.941H359.17V248.7L339.676 254.213L345.956 248.116L335.072 251.164L348.154 238.533Z" fill="#F1F1F1"/>
<path d="M329.857 203.815L325.409 205.341L326.247 202.292H321.85L330.433 196.631L324.573 198.592L331.062 192.495L325.202 195.327L332.109 187.488L326.667 188.578L333.574 184.005L329.126 184.876C329.126 184.876 334.412 180.085 336.401 175.512C338.389 180.085 343.676 184.876 343.676 184.876L339.228 184.005L346.135 188.578L340.693 187.488L347.6 195.327L341.74 192.495L348.229 198.592L342.369 196.631L350.952 202.292H346.555L347.393 205.341L342.945 203.815L349.487 210.131L344.045 208.605L347.184 211.654L337.436 208.897V221.018H335.37V208.897L325.622 211.654L328.761 208.605L323.319 210.131L329.857 203.815Z" fill="#F1F1F1"/>
<path d="M594.789 254.961L585.893 258.01L587.567 251.913H578.774L595.939 240.588L584.216 244.507L597.195 232.312L585.473 237.973L599.287 222.293L588.403 224.471L602.218 215.326L593.321 217.068C593.321 217.068 603.894 207.487 607.871 198.34C611.848 207.485 622.418 217.068 622.418 217.068L613.522 215.326L627.337 224.471L616.452 222.293L630.267 237.973L618.544 232.312L631.523 244.507L619.8 240.588L636.965 251.913H628.173L629.847 258.01L620.951 254.961L634.033 267.592L623.149 264.544L629.429 270.641L609.935 265.128V289.369H605.805V265.128L586.311 270.641L592.591 264.544L581.706 267.592L594.789 254.961Z" fill="#F1F1F1"/>
<path d="M420.046 174.944L411.15 177.993L412.824 171.896H404.032L421.197 160.571L409.474 164.49L422.453 152.295L410.73 157.956L424.545 142.276L413.661 144.454L427.475 135.309L418.579 137.051C418.579 137.051 429.151 127.47 433.129 118.323C437.106 127.468 447.676 137.051 447.676 137.051L438.78 135.309L452.595 144.454L441.71 142.276L455.525 157.956L443.802 152.295L456.781 164.49L445.058 160.571L462.223 171.896H453.431L455.105 177.993L446.209 174.944L459.291 187.575L448.406 184.527L454.687 190.624L435.192 185.111V209.352H431.063V185.111L411.568 190.624L417.849 184.527L406.964 187.575L420.046 174.944Z" fill="#F1F1F1"/>
<path d="M543.283 201.949L534.388 204.997L536.062 198.9H527.269L544.434 187.575L532.711 191.495L545.69 179.299L533.967 184.96L547.782 169.281L536.898 171.458L550.712 162.313L541.816 164.055C541.816 164.055 552.388 154.472 556.364 145.327C560.341 154.472 570.913 164.055 570.913 164.055L562.017 162.313L575.832 171.458L564.947 169.281L578.762 184.96L567.039 179.299L580.018 191.495L568.295 187.575L585.46 198.9H576.668L578.342 204.997L569.446 201.949L582.528 214.58L571.644 211.531L577.924 217.628L558.429 212.115V236.356H554.3V212.115L534.806 217.628L541.086 211.531L530.201 214.58L543.283 201.949Z" fill="#F1F1F1"/>
<path d="M733.88 333.091L665.159 270.377C663.288 268.671 661.062 267.562 658.706 267.164L547.656 248.474C546.386 248.26 545.15 247.838 543.982 247.224L427.124 185.601C424.48 184.207 421.52 183.83 418.677 184.53L287.72 216.757C285.279 217.357 282.743 217.167 280.389 216.206L145.105 161C136.263 157.391 127 165.001 127 175.876V346.781C127 355.502 133.102 362.566 140.62 362.55L725.501 361.253C738.393 361.225 744.014 342.339 733.88 333.091Z" fill="#F1F1F1"/>
<path d="M1234.1 138.954L1243.99 142.342L1242.12 135.565H1251.9L1232.82 122.98L1245.85 127.335L1231.42 113.784L1244.45 120.076L1229.1 102.652L1241.2 105.072L1225.84 94.9075L1235.73 96.8448C1235.73 96.8448 1223.98 86.198 1219.56 76.0338C1215.14 86.198 1203.39 96.8448 1203.39 96.8448L1213.28 94.9075L1197.92 105.072L1210.02 102.652L1194.67 120.076L1207.7 113.784L1193.27 127.335L1206.3 122.98L1187.22 135.565H1197L1195.13 142.342L1205.02 138.954L1190.48 152.991L1202.58 149.603L1195.6 156.38L1217.26 150.253V177.191H1221.85V150.251L1243.52 156.378L1236.54 149.601L1248.64 152.988L1234.1 138.954Z" fill="#F1F1F1"/>
<path d="M1299.85 111.752L1315.97 117.275L1312.94 106.23H1328.86L1297.77 85.7178L1319 92.8172L1295.49 70.728L1316.73 80.984L1291.7 52.5816L1311.42 56.5268L1286.39 39.9598L1302.51 43.1164C1302.51 43.1164 1283.36 25.7609 1276.15 9.19165C1268.95 25.7586 1249.8 43.1164 1249.8 43.1164L1265.92 39.9598L1240.89 56.5268L1260.61 52.5816L1235.58 80.984L1256.82 70.728L1233.31 92.8172L1254.54 85.7178L1223.45 106.23H1239.37L1236.34 117.275L1252.46 111.752L1228.76 134.63L1248.48 129.108L1237.1 140.152L1272.41 130.165V174.077H1279.9V130.165L1315.21 140.152L1303.83 129.108L1323.55 134.63L1299.85 111.752Z" fill="#F1F1F1"/>
<path d="M1339.69 115.792L1354.77 120.956L1351.93 110.627H1366.82L1337.74 91.4448L1357.6 98.0853L1335.62 77.4272L1355.47 87.0195L1332.07 60.4578L1350.51 64.1464L1327.1 48.6528L1342.17 51.6046C1342.17 51.6046 1324.27 35.372 1317.53 19.8784C1310.79 35.372 1292.88 51.6046 1292.88 51.6046L1307.95 48.6528L1284.55 64.1464L1302.99 60.4578L1279.58 87.0195L1299.44 77.4272L1277.46 98.0853L1297.31 91.4448L1268.24 110.627H1283.13L1280.29 120.956L1295.36 115.792L1273.2 137.189L1291.64 132.024L1281 142.353L1314.03 133.013V174.077H1321.03V133.013L1354.05 142.353L1343.41 132.024L1361.85 137.189L1339.69 115.792Z" fill="#F1F1F1"/>
<path d="M1411.75 114.582L1424.03 118.79L1421.72 110.373H1433.86L1410.16 94.7404L1426.35 100.152L1408.43 83.3168L1424.61 91.1342L1405.54 69.4898L1420.57 72.4958L1401.49 59.8693L1413.78 62.2751C1413.78 62.2751 1399.18 49.0483 1393.69 36.4219C1388.2 49.0483 1373.61 62.2751 1373.61 62.2751L1385.89 59.8693L1366.82 72.4958L1381.84 69.4898L1362.77 91.1342L1378.95 83.3168L1361.04 100.152L1377.22 94.7404L1353.52 110.373H1365.66L1363.35 118.79L1375.63 114.582L1357.57 132.017L1372.6 127.808L1363.93 136.226L1390.84 128.616V162.082H1396.54V128.616L1423.46 136.226L1414.79 127.808L1429.81 132.017L1411.75 114.582Z" fill="#F1F1F1"/>
<path d="M1368.95 113.092L1381.23 117.3L1378.92 108.883H1391.06L1367.36 93.2502L1383.55 98.6619L1365.63 81.8266L1381.81 89.6441L1362.74 67.9973L1377.77 71.0033L1358.7 58.3768L1370.98 60.7826C1370.98 60.7826 1356.38 47.5558 1350.89 34.9294C1345.4 47.5558 1330.81 60.7826 1330.81 60.7826L1343.09 58.3768L1324.02 71.0033L1339.05 67.9973L1319.97 89.6417L1336.16 81.8243L1318.24 98.6596L1334.42 93.2479L1310.73 108.88H1322.86L1320.55 117.298L1332.83 113.089L1314.77 130.525L1329.8 126.316L1321.13 134.734L1348.04 127.123V160.589H1353.74V127.123L1380.66 134.734L1371.99 126.316L1387.02 130.525L1368.95 113.092Z" fill="#F1F1F1"/>
<path d="M1384.99 91.4401L1397.27 95.6489L1394.96 87.2313H1407.1L1383.4 71.5989L1399.58 77.0106L1381.67 60.1753L1397.85 67.9903L1378.78 46.346L1393.8 49.3519L1374.73 36.7255L1387.02 39.1312C1387.02 39.1312 1372.42 25.9045 1366.93 13.278C1361.44 25.9045 1346.85 39.1312 1346.85 39.1312L1359.13 36.7255L1340.06 49.3519L1355.08 46.346L1336.01 67.9903L1352.19 60.1753L1334.28 77.0106L1350.46 71.5989L1326.76 87.2313H1338.9L1336.59 95.6489L1348.87 91.4401L1330.81 108.876L1345.83 104.667L1337.17 113.085L1364.08 105.474V138.94H1369.78V105.474L1396.69 113.085L1388.03 104.667L1403.05 108.876L1384.99 91.4401Z" fill="#F1F1F1"/>
<path d="M1446.94 121.37L1455.84 124.419L1454.16 118.322H1462.96L1445.79 107L1457.51 110.919L1444.53 98.7232L1456.26 104.384L1442.44 88.7048L1453.33 90.8823L1439.51 81.7372L1448.41 83.4792C1448.41 83.4792 1437.84 73.8963 1433.86 64.7513C1429.88 73.8963 1419.31 83.4792 1419.31 83.4792L1428.21 81.7372L1414.39 90.8823L1425.28 88.7048L1411.46 104.384L1423.19 98.7232L1410.21 110.919L1421.93 107L1404.76 118.322H1413.56L1411.88 124.419L1420.78 121.37L1407.7 134.001L1418.58 130.953L1412.3 137.05L1431.8 131.537V155.778H1435.93V131.537L1455.42 137.05L1449.14 130.953L1460.02 134.001L1446.94 121.37Z" fill="#F1F1F1"/>
<path d="M1200.31 137.798L1209.2 140.847L1207.53 134.75H1216.32L1199.16 123.425L1210.88 127.345L1197.9 115.149L1209.62 120.81L1195.81 105.131L1206.69 107.308L1192.88 98.1629L1201.77 99.9048C1201.77 99.9048 1191.2 90.3243 1187.22 81.1769C1183.25 90.3219 1172.68 99.9048 1172.68 99.9048L1181.57 98.1629L1167.76 107.308L1178.64 105.131L1164.83 120.81L1176.55 115.149L1163.57 127.345L1175.3 123.425L1158.13 134.75H1166.92L1165.25 140.847L1174.14 137.798L1161.06 150.429L1171.95 147.381L1165.67 153.478L1185.16 147.965V172.206H1189.29V147.965L1208.78 153.478L1202.5 147.381L1213.39 150.429L1200.31 137.798Z" fill="#F1F1F1"/>
<path d="M1375.05 57.7814L1383.95 60.8297L1382.27 54.733H1391.06L1373.9 43.4083L1385.62 47.3276L1372.64 35.1319L1384.37 40.7931L1370.55 25.1136L1381.43 27.291L1367.62 18.1459L1376.52 19.8879C1376.52 19.8879 1365.94 10.3074 1361.97 1.16003C1357.99 10.305 1347.42 19.8879 1347.42 19.8879L1356.32 18.1459L1342.5 27.291L1353.39 25.1136L1339.57 40.7931L1351.29 35.1319L1338.31 47.3276L1350.04 43.4083L1332.87 54.733H1341.66L1339.99 60.8297L1348.89 57.7814L1335.8 70.4125L1346.69 67.3642L1340.41 73.4609L1359.9 67.948V92.1887H1364.03V67.948L1383.53 73.4609L1377.25 67.3642L1388.13 70.4125L1375.05 57.7814Z" fill="#F1F1F1"/>
<path d="M1251.81 84.7856L1260.71 87.8339L1259.03 81.7373H1267.83L1250.66 70.4126L1262.38 74.3318L1249.41 62.1362L1261.13 67.7973L1247.31 52.1178L1258.2 54.2952L1244.38 45.1502L1253.28 46.8921C1253.28 46.8921 1242.71 37.3093 1238.73 28.1643C1234.75 37.3093 1224.18 46.8921 1224.18 46.8921L1233.08 45.1502L1219.26 54.2952L1230.15 52.1178L1216.33 67.7973L1228.06 62.1362L1215.08 74.3318L1226.8 70.4126L1209.64 81.7373H1218.43L1216.75 87.8339L1225.65 84.7856L1212.57 97.4168L1223.45 94.3684L1217.17 100.465L1236.67 94.9523V119.193H1240.8V94.9523L1260.29 100.465L1254.01 94.3684L1264.89 97.4168L1251.81 84.7856Z" fill="#F1F1F1"/>
<path d="M1061.22 215.928L1129.94 153.214C1131.81 151.508 1134.03 150.399 1136.39 150.001L1247.44 131.311C1248.71 131.097 1249.95 130.675 1251.11 130.061L1367.97 68.4376C1370.62 67.0441 1373.58 66.6675 1376.42 67.3666L1507.37 99.5942C1509.82 100.194 1512.35 100.004 1514.71 99.0434L1649.99 43.8368C1658.83 40.2282 1668.1 47.8384 1668.1 58.7136V229.618C1668.1 238.339 1661.99 245.403 1654.48 245.387L1069.59 244.09C1056.7 244.062 1051.08 225.176 1061.22 215.928Z" fill="#F1F1F1"/>
<path d="M183.996 137.794L174.11 141.181L175.971 134.405H166.2L185.277 121.82L172.249 126.175L186.671 112.624L173.643 118.916L188.996 101.492L176.9 103.912L192.253 93.7475L182.367 95.6848C182.367 95.6848 194.114 85.038 198.535 74.8737C202.955 85.038 214.704 95.6848 214.704 95.6848L204.818 93.7475L220.171 103.912L208.075 101.492L223.428 118.916L210.4 112.624L224.822 126.175L211.794 121.82L230.871 134.405H221.1L222.961 141.181L213.075 137.794L227.614 151.831L215.518 148.443L222.496 155.22L200.831 149.093V176.031H196.241V149.091L174.575 155.218L181.553 148.441L169.457 151.828L183.996 137.794Z" fill="#F1F1F1"/>
<path d="M118.242 110.592L102.126 116.115L105.16 105.07H89.2329L120.326 84.5578L99.0928 91.6572L122.603 69.568L101.37 79.824L126.396 51.4215L106.678 55.3667L131.704 38.7998L115.588 41.9564C115.588 41.9564 134.738 24.6009 141.941 8.03162C149.145 24.5985 168.294 41.9564 168.294 41.9564L152.179 38.7998L177.205 55.3667L157.487 51.4215L182.513 79.824L161.279 69.568L184.788 91.6572L163.554 84.5578L194.648 105.07H178.72L181.754 116.115L165.638 110.592L189.337 133.47L169.619 127.948L180.995 138.992L145.681 129.005V172.917H138.199V129.005L102.885 138.992L114.261 127.948L94.5433 133.47L118.242 110.592Z" fill="#F1F1F1"/>
<path d="M78.401 114.631L63.3303 119.796L66.167 109.467H51.2728L80.3511 90.2848L60.4934 96.9252L82.4797 76.2672L62.622 85.8595L86.0268 59.2977L67.5875 62.9863L90.9922 47.4928L75.9214 50.4446C75.9214 50.4446 93.829 34.2119 100.568 18.7184C107.305 34.2119 125.215 50.4446 125.215 50.4446L110.144 47.4928L133.546 62.9863L115.107 59.2977L138.512 85.8595L118.654 76.2672L140.639 96.9252L120.781 90.2848L149.859 109.467H134.965L137.802 119.796L122.731 114.631L144.894 136.029L126.454 130.864L137.092 141.193L104.066 131.853V172.917H97.0696V131.853L64.0445 141.193L74.6836 130.864L56.2443 136.029L78.401 114.631Z" fill="#F1F1F1"/>
<path d="M6.34433 113.422L-5.93637 117.63L-3.62517 109.213H-15.7638L7.93311 93.5804L-8.24969 98.992L9.66605 82.1568L-6.51675 89.9741L12.5556 68.3298L-2.47049 71.3358L16.6019 58.7093L4.31909 61.115C4.31909 61.115 18.9131 47.8883 24.4041 35.2618C29.8951 47.8883 44.4891 61.115 44.4891 61.115L32.2064 58.7093L51.2788 71.3358L36.2526 68.3298L55.3251 89.9741L39.1422 82.1568L57.058 98.992L40.8751 93.5804L64.5721 109.213H52.4334L54.7447 117.63L42.464 113.422L60.5259 130.857L45.4996 126.648L54.1684 135.066L27.2552 127.456V160.922H21.5531V127.456L-5.36008 135.066L3.30858 126.648L-11.7176 130.857L6.34433 113.422Z" fill="#F1F1F1"/>
<path d="M49.1421 111.931L36.8614 116.14L39.1726 107.723H27.034L50.7309 92.0902L34.5481 97.5019L52.4638 80.6666L36.281 88.484L55.3534 66.8373L40.3272 69.8433L59.3997 57.2168L47.1169 59.6225C47.1169 59.6225 61.7109 46.3958 67.2019 33.7693C72.6929 46.3958 87.2869 59.6225 87.2869 59.6225L75.0042 57.2168L94.0766 69.8433L79.0503 66.8373L98.1229 88.4817L81.9399 80.6643L99.8558 97.4995L83.6729 92.0879L107.37 107.72H95.2312L97.5425 116.138L85.2618 111.929L103.324 129.365L88.2974 125.156L96.9662 133.573L70.053 125.963V159.429H64.3509V125.963L37.4377 133.573L46.1064 125.156L31.0802 129.365L49.1421 111.931Z" fill="#F1F1F1"/>
<path d="M33.1053 90.2801L20.8246 94.4889L23.1358 86.0713H10.9972L34.6941 70.4389L18.5113 75.8505L36.4271 59.0153L20.2443 66.8303L39.3167 45.1859L24.2905 48.1919L43.3629 35.5654L31.0802 37.9712C31.0802 37.9712 45.6741 24.7444 51.1651 12.118C56.6561 24.7444 71.2501 37.9712 71.2501 37.9712L58.9674 35.5654L78.0398 48.1919L63.0137 45.1859L82.0861 66.8303L65.9032 59.0153L83.819 75.8505L67.6361 70.4389L91.3331 86.0713H79.1945L81.5057 94.4889L69.225 90.2801L87.2869 107.716L72.2606 103.507L80.9294 111.924L54.0162 104.314V137.78H48.3142V104.314L21.4009 111.924L30.0696 103.507L15.0435 107.716L33.1053 90.2801Z" fill="#F1F1F1"/>
<path d="M-28.8461 120.21L-37.742 123.259L-36.0679 117.162H-44.8604L-27.6955 105.84L-39.4181 109.759L-26.4394 97.5632L-38.1621 103.224L-24.3473 87.5448L-35.2319 89.7222L-21.4172 80.5772L-30.3131 82.3192C-30.3131 82.3192 -19.741 72.7363 -15.7658 63.5913C-11.7886 72.7363 -1.21648 82.3192 -1.21648 82.3192L-10.1125 80.5772L3.70232 89.7222L-7.18232 87.5448L6.63241 103.224L-5.09021 97.5632L7.88852 109.759L-3.83422 105.84L13.3308 117.162H4.53832L6.21243 123.259L-2.68363 120.21L10.3986 132.841L-0.485997 129.793L5.79443 135.89L-13.7002 130.377V154.618H-17.8295V130.377L-37.324 135.89L-31.0437 129.793L-41.9282 132.841L-28.8461 120.21Z" fill="#F1F1F1"/>
<path d="M217.789 136.638L208.893 139.687L210.567 133.59H201.774L218.939 122.265L207.216 126.184L220.195 113.989L208.473 119.65L222.287 103.971L211.403 106.148L225.217 97.0028L216.321 98.7448C216.321 98.7448 226.894 89.1643 230.871 80.0169C234.848 89.1619 245.418 98.7448 245.418 98.7448L236.522 97.0028L250.337 106.148L239.452 103.971L253.267 119.65L241.544 113.989L254.523 126.184L242.8 122.265L259.965 133.59H251.173L252.847 139.687L243.951 136.638L257.033 149.269L246.149 146.221L252.429 152.318L232.934 146.805V171.046H228.805V146.805L209.311 152.318L215.591 146.221L204.706 149.269L217.789 136.638Z" fill="#F1F1F1"/>
<path d="M43.0464 56.6213L34.1504 59.6697L35.8244 53.573H27.032L44.1969 42.2483L32.4742 46.1675L45.4529 33.9718L33.7303 39.633L47.545 23.9535L36.6605 26.1309L50.4753 16.9859L41.5792 18.7278C41.5792 18.7278 52.1514 9.14736 56.1286 0C60.1059 9.145 70.6759 18.7278 70.6759 18.7278L61.7799 16.9859L75.5946 26.1309L64.7101 23.9535L78.5248 39.633L66.8022 33.9718L79.781 46.1675L68.0582 42.2483L85.2231 53.573H76.4307L78.1047 59.6697L69.2088 56.6213L82.2911 69.2525L71.4064 66.2042L77.6867 72.3008L58.1923 66.7879V91.0287H54.0629V66.7879L34.5684 72.3008L40.8487 66.2042L29.9641 69.2525L43.0464 56.6213Z" fill="#F1F1F1"/>
<path d="M166.283 83.6256L157.388 86.6739L159.062 80.5772H150.269L167.434 69.2525L155.711 73.1718L168.69 60.9761L156.967 66.6373L170.782 50.9578L159.898 53.1352L173.712 43.9902L164.816 45.7321C164.816 45.7321 175.388 36.1493 179.364 27.0043C183.341 36.1493 193.913 45.7321 193.913 45.7321L185.017 43.9902L198.832 53.1352L187.947 50.9578L201.762 66.6373L190.039 60.9761L203.018 73.1718L191.295 69.2525L208.46 80.5772H199.668L201.342 86.6739L192.446 83.6256L205.528 96.2568L194.644 93.2084L200.924 99.3051L181.429 93.7922V118.033H177.3V93.7922L157.806 99.3051L164.086 93.2084L153.201 96.2568L166.283 83.6256Z" fill="#F1F1F1"/>
<path d="M356.88 214.768L288.159 152.054C286.288 150.348 284.062 149.239 281.706 148.841L170.656 130.151C169.386 129.937 168.15 129.515 166.982 128.901L50.1242 67.2776C47.4801 65.8841 44.5196 65.5075 41.6767 66.2066L-89.2795 98.4342C-91.7206 99.0344 -94.2571 98.8438 -96.6109 97.8834L-231.895 42.6767C-240.737 39.0681 -250 46.6784 -250 57.5535V228.458C-250 237.179 -243.898 244.243 -236.38 244.227L348.501 242.93C361.393 242.902 367.014 224.016 356.88 214.768Z" fill="#F1F1F1"/>
<path d="M1017.1 236.397L1026.99 239.784L1025.12 233.007H1034.9L1015.82 220.423L1028.85 224.778L1014.42 211.226L1027.45 217.518L1012.1 200.094L1024.2 202.514L1008.84 192.35L1018.73 194.287C1018.73 194.287 1006.98 183.64 1002.56 173.476C998.14 183.64 986.391 194.287 986.391 194.287L996.278 192.35L980.925 202.514L993.021 200.094L977.668 217.518L990.695 211.226L976.274 224.778L989.301 220.423L970.225 233.007H979.995L978.134 239.784L988.021 236.397L973.482 250.433L985.578 247.046L978.599 253.823L1000.26 247.695V274.634H1004.86V247.693L1026.52 253.82L1019.54 247.044L1031.64 250.431L1017.1 236.397Z" fill="#F1F1F1"/>
<path d="M1082.85 209.195L1098.97 214.717L1095.94 203.672H1111.86L1080.77 183.16L1102 190.26L1078.49 168.17L1099.73 178.426L1074.7 150.024L1094.42 153.969L1069.39 137.402L1085.51 140.559C1085.51 140.559 1066.36 123.203 1059.15 106.634C1051.95 123.201 1032.8 140.559 1032.8 140.559L1048.92 137.402L1023.89 153.969L1043.61 150.024L1018.58 178.426L1039.82 168.17L1016.31 190.26L1037.54 183.16L1006.45 203.672H1022.38L1019.34 214.717L1035.46 209.195L1011.76 232.072L1031.48 226.55L1020.1 237.595L1055.41 227.607V271.52H1062.9V227.607L1098.21 237.595L1086.83 226.55L1106.55 232.072L1082.85 209.195Z" fill="#F1F1F1"/>
<path d="M1122.69 213.234L1137.77 218.398L1134.93 208.069H1149.82L1120.74 188.887L1140.6 195.528L1118.62 174.87L1138.47 184.462L1115.07 157.9L1133.51 161.589L1110.1 146.095L1125.17 149.047C1125.17 149.047 1107.27 132.814 1100.53 117.321C1093.79 132.814 1075.88 149.047 1075.88 149.047L1090.95 146.095L1067.55 161.589L1085.99 157.9L1062.58 184.462L1082.44 174.87L1060.46 195.528L1080.31 188.887L1051.24 208.069H1066.13L1063.29 218.398L1078.36 213.234L1056.2 234.631L1074.64 229.467L1064 239.796L1097.03 230.455V271.519H1104.03V230.455L1137.05 239.796L1126.41 229.467L1144.85 234.631L1122.69 213.234Z" fill="#F1F1F1"/>
<path d="M1194.75 212.024L1207.03 216.233L1204.72 207.815H1216.86L1193.16 192.183L1209.35 197.594L1191.43 180.759L1207.61 188.577L1188.54 166.932L1203.57 169.938L1184.49 157.312L1196.78 159.717C1196.78 159.717 1182.18 146.491 1176.69 133.864C1171.2 146.491 1156.61 159.717 1156.61 159.717L1168.89 157.312L1149.82 169.938L1164.84 166.932L1145.77 188.577L1161.95 180.759L1144.04 197.594L1160.22 192.183L1136.52 207.815H1148.66L1146.35 216.233L1158.63 212.024L1140.57 229.46L1155.6 225.251L1146.93 233.668L1173.84 226.058V259.524H1179.54V226.058L1206.46 233.668L1197.79 225.251L1212.81 229.46L1194.75 212.024Z" fill="#F1F1F1"/>
<path d="M1151.95 210.534L1164.23 214.743L1161.92 206.325H1174.06L1150.36 190.693L1166.55 196.104L1148.63 179.269L1164.81 187.086L1145.74 165.44L1160.77 168.446L1141.7 155.819L1153.98 158.225C1153.98 158.225 1139.38 144.998 1133.89 132.372C1128.4 144.998 1113.81 158.225 1113.81 158.225L1126.09 155.819L1107.02 168.446L1122.05 165.44L1102.97 187.084L1119.16 179.267L1101.24 196.102L1117.42 190.69L1093.73 206.323H1105.86L1103.55 214.74L1115.83 210.532L1097.77 227.967L1112.8 223.758L1104.13 232.176L1131.04 224.566V258.032H1136.74V224.566L1163.66 232.176L1154.99 223.758L1170.02 227.967L1151.95 210.534Z" fill="#F1F1F1"/>
<path d="M1167.99 188.883L1180.27 193.091L1177.96 184.674H1190.1L1166.4 169.041L1182.58 174.453L1164.67 157.618L1180.85 165.433L1161.78 143.788L1176.8 146.794L1157.73 134.168L1170.02 136.574C1170.02 136.574 1155.42 123.347 1149.93 110.72C1144.44 123.347 1129.85 136.574 1129.85 136.574L1142.13 134.168L1123.06 146.794L1138.08 143.788L1119.01 165.433L1135.19 157.618L1117.28 174.453L1133.46 169.041L1109.76 184.674H1121.9L1119.59 193.091L1131.87 188.883L1113.81 206.318L1128.83 202.109L1120.17 210.527L1147.08 202.917V236.382H1152.78V202.917L1179.69 210.527L1171.03 202.109L1186.05 206.318L1167.99 188.883Z" fill="#F1F1F1"/>
<path d="M1229.94 218.813L1238.84 221.861L1237.16 215.764H1245.96L1228.79 204.442L1240.51 208.361L1227.53 196.166L1239.26 201.827L1225.44 186.147L1236.33 188.325L1222.51 179.18L1231.41 180.922C1231.41 180.922 1220.84 171.339 1216.86 162.194C1212.88 171.339 1202.31 180.922 1202.31 180.922L1211.21 179.18L1197.39 188.325L1208.28 186.147L1194.46 201.827L1206.19 196.166L1193.21 208.361L1204.93 204.442L1187.76 215.764H1196.56L1194.88 221.861L1203.78 218.813L1190.7 231.444L1201.58 228.396L1195.3 234.492L1214.8 228.979V253.22H1218.93V228.979L1238.42 234.492L1232.14 228.396L1243.02 231.444L1229.94 218.813Z" fill="#F1F1F1"/>
<path d="M1248.24 184.095L1252.69 185.62L1251.85 182.572H1256.25L1247.66 176.911L1253.52 178.871L1247.03 172.775L1252.89 175.606L1245.99 167.768L1251.43 168.858L1244.52 164.284L1248.97 165.155C1248.97 165.155 1243.68 160.365 1241.69 155.791C1239.71 160.365 1234.42 165.155 1234.42 165.155L1238.87 164.284L1231.96 168.858L1237.4 167.768L1230.5 175.606L1236.36 172.775L1229.87 178.871L1235.73 176.911L1227.14 182.572H1231.54L1230.7 185.62L1235.15 184.095L1228.61 190.41L1234.05 188.885L1230.91 191.933L1240.66 189.177V201.297H1242.73V189.177L1252.47 191.933L1249.33 188.885L1254.78 190.41L1248.24 184.095Z" fill="#F1F1F1"/>
<path d="M983.307 235.241L992.203 238.289L990.529 232.192H999.321L982.156 220.868L993.879 224.787L980.9 212.591L992.623 218.252L978.808 202.573L989.693 204.75L975.878 195.605L984.774 197.347C984.774 197.347 974.202 187.767 970.225 178.619C966.248 187.764 955.677 197.347 955.677 197.347L964.573 195.605L950.759 204.75L961.643 202.573L947.828 218.252L959.551 212.591L946.572 224.787L958.295 220.868L941.13 232.192H949.923L948.249 238.289L957.144 235.241L944.062 247.872L954.947 244.824L948.667 250.92L968.161 245.407V269.648H972.29V245.407L991.785 250.92L985.505 244.824L996.389 247.872L983.307 235.241Z" fill="#F1F1F1"/>
<path d="M1158.05 155.224L1166.95 158.272L1165.27 152.175H1174.06L1156.9 140.851L1168.62 144.77L1155.64 132.574L1167.37 138.236L1153.55 122.556L1164.43 124.733L1150.62 115.588L1159.52 117.33C1159.52 117.33 1148.94 107.75 1144.97 98.6025C1140.99 107.747 1130.42 117.33 1130.42 117.33L1139.32 115.588L1125.5 124.733L1136.39 122.556L1122.57 138.236L1134.29 132.574L1121.31 144.77L1133.04 140.851L1115.87 152.175H1124.66L1122.99 158.272L1131.89 155.224L1118.8 167.855L1129.69 164.807L1123.41 170.903L1142.9 165.39V189.631H1147.03V165.39L1166.53 170.903L1160.25 164.807L1171.13 167.855L1158.05 155.224Z" fill="#F1F1F1"/>
<path d="M1034.81 182.228L1043.71 185.276L1042.03 179.18H1050.83L1033.66 167.855L1045.38 171.774L1032.41 159.579L1044.13 165.24L1030.31 149.56L1041.2 151.738L1027.38 142.593L1036.28 144.335C1036.28 144.335 1025.71 134.752 1021.73 125.607C1017.75 134.752 1007.18 144.335 1007.18 144.335L1016.08 142.593L1002.26 151.738L1013.15 149.56L999.334 165.24L1011.06 159.579L998.077 171.774L1009.8 167.855L992.635 179.18H1001.43L999.754 185.276L1008.65 182.228L995.567 194.859L1006.45 191.811L1000.17 197.908L1019.67 192.395V216.635H1023.8V192.395L1043.29 197.908L1037.01 191.811L1047.89 194.859L1034.81 182.228Z" fill="#F1F1F1"/>
<path d="M844.216 313.37L912.936 250.657C914.807 248.95 917.033 247.841 919.389 247.444L1030.44 228.753C1031.71 228.539 1032.95 228.118 1034.11 227.503L1150.97 165.88C1153.62 164.487 1156.58 164.11 1159.42 164.809L1290.38 197.037C1292.82 197.637 1295.35 197.446 1297.71 196.486L1432.99 141.279C1441.83 137.671 1451.1 145.281 1451.1 156.156V327.06C1451.1 335.782 1444.99 342.846 1437.48 342.829L852.594 341.532C839.703 341.504 834.082 322.619 844.216 313.37Z" fill="#F1F1F1"/>
</svg>
