<svg width="613" height="245" viewBox="0 0 613 245" fill="none" xmlns="http://www.w3.org/2000/svg">
<path d="M178.099 137.794L187.985 141.181L186.125 134.405H195.895L176.819 121.82L189.846 126.175L175.425 112.624L188.452 118.916L173.099 101.492L185.195 103.912L169.842 93.7475L179.729 95.6848C179.729 95.6848 167.982 85.038 163.56 74.8737C159.14 85.038 147.391 95.6848 147.391 95.6848L157.278 93.7475L141.925 103.912L154.021 101.492L138.668 118.916L151.695 112.624L137.274 126.175L150.301 121.82L131.225 134.405H140.995L139.134 141.181L149.021 137.794L134.482 151.831L146.578 148.443L139.599 155.22L161.265 149.093V176.031H165.855V149.091L187.521 155.218L180.542 148.441L192.638 151.828L178.099 137.794Z" fill="#BCBCBC"/>
<path d="M243.853 110.592L259.969 116.115L256.935 105.07H272.863L241.769 84.5578L263.003 91.6572L239.492 69.568L260.726 79.824L235.7 51.4216L255.418 55.3668L230.392 38.7998L246.507 41.9564C246.507 41.9564 227.358 24.6009 220.154 8.03165C212.951 24.5986 193.801 41.9564 193.801 41.9564L209.917 38.7998L184.891 55.3668L204.609 51.4216L179.582 79.824L200.816 69.568L177.308 91.6572L198.541 84.5578L167.448 105.07H183.375L180.341 116.115L196.457 110.592L172.758 133.47L192.476 127.948L181.1 138.992L216.414 129.005V172.917H223.896V129.005L259.21 138.992L247.834 127.948L267.552 133.47L243.853 110.592Z" fill="#BCBCBC"/>
<path d="M283.694 114.632L298.765 119.796L295.928 109.467H310.823L281.744 90.2848L301.602 96.9253L279.616 76.2672L299.473 85.8595L276.069 59.2977L294.508 62.9864L271.103 47.4928L286.174 50.4446C286.174 50.4446 268.266 34.212 261.528 18.7184C254.791 34.212 236.881 50.4446 236.881 50.4446L251.952 47.4928L228.549 62.9864L246.988 59.2977L223.583 85.8595L243.441 76.2672L221.457 96.9253L241.315 90.2848L212.236 109.467H227.131L224.294 119.796L239.365 114.632L217.202 136.029L235.641 130.864L225.004 141.193L258.029 131.853V172.917H265.026V131.853L298.051 141.193L287.412 130.864L305.851 136.029L283.694 114.632Z" fill="#BCBCBC"/>
<path d="M355.751 113.422L368.032 117.63L365.721 109.213H377.859L354.162 93.5804L370.345 98.992L352.429 82.1568L368.612 89.9741L349.54 68.3298L364.566 71.3358L345.494 58.7093L357.776 61.115C357.776 61.115 343.182 47.8883 337.691 35.2618C332.2 47.8883 317.606 61.115 317.606 61.115L329.889 58.7093L310.817 71.3358L325.843 68.3298L306.77 89.9741L322.953 82.1568L305.037 98.992L321.22 93.5804L297.523 109.213H309.662L307.351 117.63L319.631 113.422L301.57 130.857L316.596 126.648L307.927 135.066L334.84 127.456V160.922H340.542V127.456L367.456 135.066L358.787 126.648L373.813 130.857L355.751 113.422Z" fill="#BCBCBC"/>
<path d="M312.953 111.932L325.234 116.14L322.923 107.723H335.061L311.365 92.0902L327.547 97.5019L309.632 80.6666L325.814 88.4841L306.742 66.8373L321.768 69.8433L302.696 57.2168L314.979 59.6226C314.979 59.6226 300.385 46.3958 294.894 33.7694C289.403 46.3958 274.809 59.6226 274.809 59.6226L287.091 57.2168L268.019 69.8433L283.045 66.8373L263.973 88.4817L280.155 80.6643L262.24 97.4996L278.423 92.0879L254.726 107.72H266.864L264.553 116.138L276.834 111.929L258.772 129.365L273.798 125.156L265.129 133.574L292.042 125.963V159.429H297.745V125.963L324.658 133.574L315.989 125.156L331.015 129.365L312.953 111.932Z" fill="#BCBCBC"/>
<path d="M328.99 90.2801L341.271 94.4889L338.96 86.0713H351.098L327.401 70.4388L343.584 75.8505L325.668 59.0152L341.851 66.8302L322.779 45.1859L337.805 48.1919L318.733 35.5654L331.015 37.9711C331.015 37.9711 316.421 24.7444 310.93 12.118C305.439 24.7444 290.845 37.9711 290.845 37.9711L303.128 35.5654L284.056 48.1919L299.082 45.1859L280.009 66.8302L296.192 59.0152L278.276 75.8505L294.459 70.4388L270.762 86.0713H282.901L280.59 94.4889L292.87 90.2801L274.809 107.716L289.835 103.507L281.166 111.924L308.079 104.314V137.78H313.781V104.314L340.695 111.924L332.026 103.507L347.052 107.716L328.99 90.2801Z" fill="#BCBCBC"/>
<path d="M390.942 120.21L399.837 123.259L398.163 117.162H406.956L389.791 105.84L401.514 109.759L388.535 97.5631L400.258 103.224L386.443 87.5448L397.327 89.7222L383.513 80.5772L392.409 82.3191C392.409 82.3191 381.836 72.7363 377.861 63.5913C373.884 72.7363 363.312 82.3191 363.312 82.3191L372.208 80.5772L358.393 89.7222L369.278 87.5448L355.463 103.224L367.186 97.5631L354.207 109.759L365.93 105.84L348.765 117.162H357.557L355.883 123.259L364.779 120.21L351.697 132.841L362.581 129.793L356.301 135.89L375.796 130.377V154.618H379.925V130.377L399.419 135.89L393.139 129.793L404.024 132.841L390.942 120.21Z" fill="#BCBCBC"/>
<path d="M409.239 85.4923L413.687 87.0176L412.849 83.9693H417.246L408.662 78.3081L414.523 80.2689L408.033 74.1722L413.894 77.004L406.986 69.1654L412.429 70.2553L405.521 65.6816L409.969 66.5526C409.969 66.5526 404.683 61.7623 402.695 57.1887C400.706 61.7623 395.42 66.5526 395.42 66.5526L399.868 65.6816L392.961 70.2553L398.403 69.1654L391.495 77.004L397.356 74.1722L390.866 80.2689L396.727 78.3081L388.143 83.9693H392.54L391.702 87.0176L396.15 85.4923L389.608 91.8078L395.051 90.2825L391.911 93.3308L401.66 90.5744V102.695H403.725V90.5744L413.474 93.3308L410.335 90.2825L415.777 91.8078L409.239 85.4923Z" fill="#BCBCBC"/>
<path d="M144.307 136.638L153.203 139.687L151.529 133.59H160.321L143.156 122.265L154.879 126.184L141.9 113.989L153.623 119.65L139.808 103.971L150.693 106.148L136.878 97.0028L145.774 98.7448C145.774 98.7448 135.202 89.1643 131.225 80.0169C127.248 89.1619 116.677 98.7448 116.677 98.7448L125.573 97.0028L111.759 106.148L122.643 103.971L108.828 119.65L120.551 113.989L107.572 126.184L119.295 122.265L102.13 133.59H110.923L109.249 139.687L118.144 136.638L105.062 149.269L115.947 146.221L109.667 152.318L129.161 146.805V171.046H133.29V146.805L152.785 152.318L146.505 146.221L157.389 149.269L144.307 136.638Z" fill="#BCBCBC"/>
<path d="M319.049 56.6213L327.945 59.6697L326.271 53.573H335.063L317.899 42.2483L329.621 46.1675L316.643 33.9718L328.365 39.633L314.55 23.9535L325.435 26.1309L311.62 16.9859L320.516 18.7278C320.516 18.7278 309.944 9.14736 305.967 0C301.99 9.145 291.42 18.7278 291.42 18.7278L300.316 16.9859L286.501 26.1309L297.385 23.9535L283.571 39.633L295.293 33.9718L282.315 46.1675L294.037 42.2483L276.872 53.573H285.665L283.991 59.6697L292.887 56.6213L279.804 69.2525L290.689 66.2042L284.409 72.3008L303.903 66.7879V91.0287H308.033V66.7879L327.527 72.3008L321.247 66.2042L332.131 69.2525L319.049 56.6213Z" fill="#BCBCBC"/>
<path d="M195.812 83.6256L204.708 86.6739L203.034 80.5772H211.826L194.661 69.2525L206.384 73.1718L193.405 60.9761L205.128 66.6373L191.313 50.9578L202.198 53.1352L188.383 43.9902L197.279 45.7321C197.279 45.7321 186.707 36.1493 182.732 27.0043C178.755 36.1493 168.182 45.7321 168.182 45.7321L177.078 43.9902L163.264 53.1352L174.148 50.9578L160.333 66.6373L172.056 60.9761L159.077 73.1718L170.8 69.2525L153.635 80.5772H162.428L160.754 86.6739L169.65 83.6256L156.567 96.2568L167.452 93.2084L161.172 99.3051L180.666 93.7922V118.033H184.795V93.7922L204.29 99.3051L198.01 93.2084L208.894 96.2568L195.812 83.6256Z" fill="#BCBCBC"/>
<path d="M5.21564 214.768L73.9364 152.054C75.8073 150.348 78.0333 149.239 80.3892 148.841L191.439 130.151C192.709 129.937 193.945 129.515 195.114 128.901L311.971 67.2776C314.615 65.8841 317.576 65.5075 320.419 66.2066L451.375 98.4342C453.816 99.0344 456.353 98.8438 458.706 97.8834L593.991 42.6767C602.832 39.0681 612.095 46.6784 612.095 57.5535V228.458C612.095 237.179 605.994 244.243 598.475 244.227L13.5942 242.93C0.702702 242.902 -4.91817 224.016 5.21564 214.768Z" fill="#BCBCBC"/>
</svg>
