<svg width="134" height="43" viewBox="0 0 134 43" fill="none" xmlns="http://www.w3.org/2000/svg">
<path d="M23.6263 24.7105L23.6694 24.7445L23.5927 24.7541L23.6263 24.7105ZM12.0145 29.7113C12.088 29.6758 12.16 29.6274 12.2303 29.5661C12.3007 29.5048 12.3981 29.4532 12.5228 29.4113C12.7241 29.3598 13.0261 29.2825 13.4288 29.1794C13.8315 29.0764 14.1782 28.941 14.4691 28.7732C14.5906 28.7055 14.7424 28.6733 14.9245 28.6767C15.0779 28.6574 15.1929 28.643 15.2696 28.6334C15.7042 28.5788 16.2523 28.3919 16.9139 28.0726C17.1059 27.7336 17.2131 27.5496 17.2355 27.5205L17.1111 27.1425L17.6434 26.7215L17.4712 26.2708C17.5065 26.1351 17.5497 26.0641 17.6008 26.0577C17.9268 25.9643 18.1314 25.8336 18.2146 25.6657C18.2593 25.6076 18.3522 25.3073 18.4932 24.7648L18.5366 24.4838C18.6356 24.4451 18.7874 24.413 18.9919 24.3873L24.0015 16.3584C23.9313 16.2098 23.8195 16.1451 23.6662 16.1644C23.5096 16.1578 23.4026 16.1319 23.3451 16.0866C23.2589 16.0187 23.1375 15.9815 22.9809 15.9749C22.8499 15.9651 22.7445 15.9521 22.6646 15.9359C22.6838 15.881 22.7031 15.8261 22.7223 15.7712C22.7415 15.7163 22.7607 15.6614 22.7799 15.6065C22.8502 15.5452 22.9781 15.4242 23.1636 15.2435C23.349 15.0627 23.5281 14.9353 23.7007 14.8611C23.8956 14.7579 24.0954 14.6935 24.2999 14.6678L24.5252 14.6001C24.9854 14.5423 25.3562 14.2859 25.6377 13.8307L26.3574 12.7169L27.7297 10.5765L30.3015 6.78986C30.5701 6.44123 30.6998 6.12319 30.6904 5.83573C30.7034 5.51921 30.8345 5.31906 31.0838 5.23527C31.282 5.1579 31.4786 4.96264 31.6738 4.6495L32.264 3.74881C32.3055 3.66486 32.3823 3.55026 32.4943 3.405C32.6062 3.25974 32.691 3.10477 32.7486 2.9401C32.8191 2.66884 32.955 2.50745 33.1564 2.45593C33.2202 2.55287 33.3016 2.582 33.4007 2.54331C33.4007 2.54331 33.4791 2.44163 33.6358 2.23827C33.7444 2.27711 33.8371 2.29171 33.9137 2.28208C33.968 2.3015 34.0335 2.3064 34.1102 2.29677C34.1838 2.26129 34.2477 2.25327 34.302 2.27269C34.3275 2.26948 34.4122 2.32445 34.5559 2.4376C34.5814 2.43439 34.6565 2.41184 34.7812 2.36994C34.9314 2.32484 35.0481 2.21834 35.1313 2.05045C35.1889 1.88577 35.3519 1.83906 35.6202 1.91032L35.6681 1.98303C35.6745 2.03471 35.6297 2.09282 35.5338 2.15734C35.4603 2.19281 35.4554 2.25902 35.5193 2.35597C35.548 2.3786 35.5656 2.41575 35.5719 2.46743C35.5814 2.54496 35.5302 2.65635 35.4183 2.80161L35.2501 3.33441C35.3108 3.40551 35.4324 3.23281 35.6148 2.81629C35.8228 2.39657 35.9523 2.18349 36.0035 2.17707C36.4061 2.07402 36.6842 2.01286 36.8375 1.9936C37.0165 1.97113 37.1459 1.96799 37.2258 1.9842L37.3215 2.12962L37.3551 2.08604L37.2258 1.9842C37.2737 1.95194 37.3217 1.91968 37.3696 1.88742C37.4176 1.85515 37.4799 1.83421 37.5566 1.82457C37.6588 1.81173 37.71 1.80531 37.71 1.80531C37.7324 1.77626 37.7899 1.71655 37.8826 1.62618L39.1864 1.46244C39.1927 1.51413 39.1607 1.57063 39.0904 1.63194C39.0201 1.69325 38.9865 1.73683 38.9897 1.76267L39.5651 1.37552C39.5906 1.37231 39.6066 1.39655 39.613 1.44823C39.6449 1.4967 39.7039 1.55489 39.7902 1.62278L39.8285 1.61796C39.8796 1.61154 39.9276 1.57928 39.9724 1.52117C40.0395 1.43402 40.0987 1.38723 40.1498 1.38081C40.1977 1.34855 40.2536 1.38089 40.3175 1.47783C40.3846 1.39068 40.4693 1.34068 40.5716 1.32784C40.6739 1.31499 40.7474 1.27952 40.7921 1.22142C40.8752 1.26347 40.9582 1.30552 41.0413 1.34757C41.1467 1.36057 41.2266 1.37678 41.2809 1.3962C41.3033 1.36714 41.3656 1.3462 41.4678 1.33336C41.5701 1.32051 41.6436 1.28504 41.6884 1.22694C41.7906 1.21409 41.9664 1.16578 42.2157 1.08199C42.465 0.998202 42.6215 1.00478 42.6854 1.10172C42.7876 1.08888 42.8787 1.09057 42.9586 1.10677C43.0608 1.09393 43.1902 1.0908 43.3468 1.09738C43.3787 1.14585 43.4106 1.19432 43.4425 1.24279C43.4713 1.26542 43.4904 1.3155 43.4999 1.39302C43.519 1.54807 43.335 1.95167 42.9479 2.6038C42.7751 2.8879 42.6503 3.13974 42.5735 3.35931C42.5222 3.57567 42.4646 3.74035 42.4006 3.85335C42.3206 4.04708 42.1 4.1535 41.7389 4.1726C41.3779 4.19171 41.159 4.20608 41.0823 4.21571C40.8746 4.21556 40.6333 4.25898 40.3585 4.34598C40.106 4.40392 39.9159 4.44092 39.7881 4.45698C39.2831 4.57287 38.9156 4.64527 38.6856 4.67416C38.3532 4.7159 38.0289 4.71727 37.7126 4.67827C37.3963 4.63927 37.1232 4.63422 36.8931 4.66312C36.7141 4.68559 36.4489 4.74515 36.0974 4.84178C35.6947 4.94483 35.3911 5.0092 35.1866 5.03488L34.041 5.21812C33.6028 5.87668 33.0189 6.82905 32.2895 8.07522L31.3826 9.56673C31.1651 9.90893 30.8036 10.4529 30.2982 11.1986C29.812 11.8894 29.345 12.6303 28.8971 13.4213C29.06 13.4796 29.1542 13.5071 29.1798 13.5039C29.3587 13.4814 29.5984 13.4251 29.8988 13.3349C31.6118 12.9098 33.1665 12.5702 34.563 12.3161C34.662 12.2774 34.7515 12.2662 34.8314 12.2824C34.9081 12.2728 34.972 12.2648 35.0231 12.2583L35.0805 12.4086C35.0932 12.5119 35.0308 12.6378 34.8933 12.7863C34.7782 12.9057 34.7142 13.0187 34.7013 13.1253L34.9405 13.8038C34.886 13.9943 34.7102 14.1476 34.4129 14.2636C33.6587 14.4633 33.0947 14.626 32.7207 14.7517C32.4714 14.8355 32.0912 14.9095 31.5799 14.9737L30.4295 15.1181C30.0205 15.1695 29.4357 15.2692 28.6751 15.4172C28.1702 15.5331 27.7899 15.6071 27.5343 15.6392L26.3825 17.6731L25.5811 19.0727C25.5587 19.1017 25.5507 19.1421 25.5571 19.1938C25.589 19.2422 25.5937 19.281 25.5714 19.3101C25.4466 19.5619 25.3058 19.7895 25.1491 19.9929C25.1075 20.0768 25.0099 20.2334 24.8564 20.4626C24.7028 20.6918 24.602 20.9275 24.5539 21.1697L24.5923 21.1649C24.5699 21.1939 24.5107 21.2407 24.4148 21.3052C24.3445 21.3666 24.3285 21.4473 24.3667 21.5474L24.5968 21.5185L24.4382 22.1289L24.1219 22.0899C23.9077 22.248 23.8772 22.4224 24.0304 22.613C24.0335 22.8488 24.0046 23.0361 23.9438 23.175C23.8798 23.288 23.7471 23.3702 23.5458 23.4218C23.5202 23.425 23.493 23.5202 23.4641 23.7075C23.3618 23.7204 23.2836 23.7171 23.2292 23.6977L22.8646 24.2158L22.912 24.9183C22.8161 24.9828 22.741 25.0054 22.6867 24.986C22.658 24.9633 22.6261 24.9149 22.591 24.8406L22.2502 25.5525C22.2789 25.5751 22.2964 25.6123 22.3028 25.664C22.3091 25.7156 22.2532 25.7883 22.1349 25.8818C22.0422 25.9722 22.0149 26.0675 22.0532 26.1676L22.058 26.2064C22.0707 26.3098 22.0322 26.4195 21.9427 26.5357C21.85 26.6261 21.7828 26.7133 21.7412 26.7972L21.7655 26.3612C21.6759 26.4774 21.6343 26.5614 21.6407 26.613C21.6215 26.6679 21.655 26.7293 21.7412 26.7972L21.7795 26.7924L21.4197 27.3493C21.4356 27.4785 21.533 27.5318 21.7119 27.5094C22.4341 27.4712 22.9741 27.4296 23.332 27.3846C23.6899 27.3397 24.2235 27.2464 24.933 27.1048L25.1247 27.0808C26.2239 26.9427 27.876 26.7615 30.0808 26.537L33.0141 26.3261C33.0908 26.3164 33.1707 26.3327 33.2537 26.3747C33.3336 26.3909 33.3863 26.3974 33.4119 26.3942C33.5013 26.4879 33.5555 26.6123 33.5746 26.7674C33.5904 26.8966 33.5504 27.0984 33.4543 27.3729C33.3838 27.6441 33.3709 27.8557 33.4155 28.0075C32.9584 28.3011 32.4518 28.509 31.8957 28.6314L27.9795 29.3987C27.5704 29.4501 27.2653 29.5015 27.0639 29.5531C26.0414 29.6815 25.292 29.815 24.8158 29.9535C24.2885 30.0984 23.7437 30.2062 23.1813 30.2769C22.9001 30.3122 22.4559 30.3942 21.8487 30.5229C21.2926 30.6452 20.8868 30.7225 20.6312 30.7546C20.0943 30.822 19.7013 30.8976 19.452 30.9814C19.1995 31.0393 18.8959 31.1037 18.5412 31.1745C18.1865 31.2453 17.9069 31.2935 17.7024 31.3192C16.5583 31.5154 15.6987 31.702 15.1234 31.8792C15.0755 31.9115 14.7735 31.9888 14.2174 32.1111L13.9495 31.515L14.2996 31.1955C14.1367 31.1373 13.9881 31.0903 13.854 31.0547C13.6942 31.0223 13.5601 30.9866 13.4514 30.9478L12.795 30.676C12.7122 30.424 12.6644 30.2463 12.6517 30.143C12.4919 30.1105 12.2747 30.0329 12 29.9099L12.0145 29.7113ZM12.9584 30.1044C13.0702 30.1691 13.1405 30.1078 13.1694 29.9205C13.0832 29.8526 12.981 29.8654 12.8627 29.959L12.9584 30.1044ZM15.1194 30.8958C15.2056 30.9636 15.287 30.9928 15.3637 30.9831L15.5028 30.8476L15.1194 30.8958ZM15.5364 30.804C15.6131 30.7944 15.6227 30.7669 15.5652 30.7217L15.5364 30.804ZM16.1499 30.727L16.1835 30.6834L16.0349 30.7414L16.1499 30.727ZM16.5334 30.6788C16.559 30.6756 16.5989 30.6837 16.6532 30.7031C16.7075 30.7225 16.7555 30.6903 16.7971 30.6063L16.7492 30.5336C16.6118 30.4722 16.5399 30.5205 16.5334 30.6788ZM18.4028 30.3653C18.5051 30.3525 18.6345 30.3493 18.791 30.3559C18.9188 30.3399 19.0706 30.3077 19.2464 30.2594C19.272 30.2561 19.304 30.1996 19.3424 30.0899L19.0692 30.0848C18.967 30.0976 18.8679 30.1363 18.772 30.2009C18.6729 30.2395 18.5498 30.2944 18.4028 30.3653ZM19.8983 30.1775C19.9143 30.0967 19.9064 30.0321 19.8745 29.9837C19.8426 29.9352 19.801 29.9142 19.7499 29.9206L19.4191 30.0802L19.8983 30.1775ZM19.3728 27.8031C19.3728 27.8031 19.3872 27.8145 19.4159 27.8371L19.6844 27.8034L19.6748 27.7259C19.547 27.7419 19.456 27.7402 19.4017 27.7208L19.3728 27.8031ZM19.5793 27.2655C19.704 27.2236 19.7887 27.1736 19.8334 27.1155C19.8782 27.0574 19.931 26.959 19.9918 26.8201C20.0877 26.7556 20.0942 26.7023 20.0111 26.6603C19.9856 26.6635 19.9744 26.678 19.9775 26.7038C19.952 26.707 19.9408 26.7216 19.944 26.7474C19.7521 26.8765 19.6306 27.0492 19.5793 27.2655ZM20.371 26.1034L20.3231 26.0307L20.2224 26.1614L20.2271 26.2002L20.371 26.1034ZM20.587 25.6433L20.6589 25.5949L20.5775 25.5658L20.5439 25.6093L20.587 25.6433ZM20.8588 27.5378L20.9691 27.4846C20.9627 27.4329 20.9468 27.4087 20.9212 27.4119C20.8988 27.4409 20.862 27.4587 20.8109 27.4651L20.8588 27.5378ZM20.894 25.2898L20.9373 25.0089L20.7982 25.1444L20.894 25.2898ZM21.5712 29.8493C21.5968 29.8461 21.608 29.8316 21.6048 29.8057C21.5984 29.754 21.6065 29.7137 21.6288 29.6846C21.6033 29.6878 21.5905 29.6894 21.5905 29.6894C21.5618 29.6668 21.549 29.6684 21.5521 29.6943L21.4083 29.791L21.5712 29.8493ZM20.9709 24.9653C21.0476 24.9557 21.0924 24.8976 21.1052 24.791C21.1308 24.7878 21.1564 24.7846 21.1819 24.7814C21.2043 24.7523 21.1868 24.7152 21.1293 24.6699C21.1357 24.7216 21.1276 24.7619 21.1052 24.791L20.9709 24.9653ZM22.7792 29.5401C22.8303 29.5337 22.8703 29.5418 22.899 29.5645C22.9533 29.5839 23.006 29.5904 23.0572 29.584C23.1594 29.5711 23.1978 29.4613 23.1724 29.2546L22.7792 29.5401ZM24.0399 29.3425C24.0813 29.4685 24.1883 29.4944 24.3609 29.4202C24.3131 29.2425 24.2189 29.215 24.0782 29.3376L24.0399 29.3425ZM23.6994 23.0876L23.6563 23.0536L23.661 23.0924L23.6994 23.0876ZM23.9719 24.0374L24.015 24.0713L23.9383 24.0809L23.9719 24.0374ZM25.4203 29.1691L25.5642 29.0723C25.561 29.0465 25.5306 29.0109 25.4732 28.9656C25.4476 28.9689 25.4124 28.9995 25.3677 29.0576L25.4203 29.1691ZM25.4744 20.7392C25.6693 20.8459 25.682 20.9493 25.5126 21.0493L25.4744 20.7392ZM27.2083 28.8265C27.2306 28.7974 27.2418 28.7829 27.2418 28.7829C27.1844 28.7376 27.1556 28.715 27.1556 28.715L27.1268 28.7973L27.2083 28.8265ZM28.6511 28.5272L28.6128 28.532L28.6223 28.6095L28.6511 28.5272ZM28.181 16.1484L28.2336 16.2599L28.2 16.3034C28.1713 16.2808 28.1537 16.2436 28.1474 16.192L28.181 16.1484ZM30.309 16.0386C30.4626 15.8094 30.6591 15.7191 30.8987 15.7677C30.8763 15.7967 30.8667 15.8242 30.8699 15.85C30.8731 15.8759 30.8619 15.8904 30.8363 15.8936L30.309 16.0386ZM32.6919 27.8229L32.8405 27.7648L32.7927 27.6921L32.644 27.7502L32.6919 27.8229ZM31.3301 15.7922C31.3269 15.7664 31.3477 15.7244 31.3925 15.6663C31.3988 15.718 31.4276 15.7406 31.4787 15.7342C31.4339 15.7923 31.3987 15.823 31.3732 15.8262L31.3301 15.7922ZM31.8621 15.6861C31.8431 15.531 31.9102 15.4439 32.0636 15.4246L32.2554 15.4005C33.0223 15.3042 33.6998 15.1141 34.2879 14.8304C34.3614 14.7949 34.526 14.7611 34.7816 14.729C34.5066 15.0259 34.2812 15.1986 34.1055 15.2469L32.9311 15.5125L32.2982 15.7494C32.1193 15.7718 31.9771 15.7766 31.8717 15.7636L31.8621 15.6861ZM31.1192 9.3243C31.247 9.30824 31.2822 9.17261 31.2249 8.91741L31.1192 9.3243ZM31.8148 8.33164L31.767 8.25893L31.7382 8.34127L31.8148 8.33164ZM32.4291 7.30985C32.5058 7.30022 32.5281 7.27117 32.4962 7.22269C32.4962 7.22269 32.4738 7.25175 32.4291 7.30985ZM34.4372 13.8276L34.4277 13.7501C34.3766 13.7565 34.3031 13.792 34.2071 13.8565L34.4372 13.8276ZM33.3503 5.93463C33.3727 5.90558 33.3807 5.86521 33.3743 5.81352C33.3743 5.81352 33.3632 5.82805 33.3408 5.8571L33.3503 5.93463ZM34.4535 4.77271C34.4535 4.77271 34.4551 4.78563 34.4583 4.81147C34.4838 4.80826 34.4966 4.80666 34.4966 4.80666L34.4487 4.73395L34.4535 4.77271ZM34.4308 3.00435C34.4564 3.00114 34.4916 2.97048 34.5363 2.91237C34.4789 2.86711 34.4373 2.84609 34.4118 2.8493L34.3782 2.89288L34.4308 3.00435ZM35.0287 4.70047L34.9856 4.66653L34.9951 4.74405L35.0287 4.70047ZM38.0485 4.24249L37.9334 4.25694L37.9382 4.2957L38.0485 4.24249ZM38.2899 1.77183C38.2707 1.82673 38.2771 1.87841 38.309 1.92688C38.3409 1.97535 38.3824 1.99638 38.4335 1.98996C38.4591 1.98675 38.5438 1.93675 38.6877 1.83996C38.5216 1.75586 38.4258 1.71541 38.4002 1.71863C38.3714 1.69599 38.3459 1.69921 38.3235 1.72826C38.2979 1.73147 38.2867 1.74599 38.2899 1.77183Z" fill="#D6A400"/>
<path d="M52.3563 8.78255L52.318 8.78737L52.3611 8.82131L52.3563 8.78255ZM35.4086 28.9774C35.2426 28.6833 35.1358 28.3425 35.0882 27.9549C35.0406 27.5673 35.0648 27.2362 35.1608 26.9618C35.4361 26.2449 35.6554 25.7057 35.8186 25.3441L36.6058 23.8283L37.9016 21.3826C38.3047 20.6498 38.7446 19.8991 39.2213 19.1308L42.1869 14.1138C42.782 13.042 43.1691 12.3898 43.3482 12.1574C43.3482 12.1574 43.7417 11.557 44.5286 10.356L45.1187 9.45536L45.7137 8.59344L46.0926 8.19161C46.265 8.32739 46.3929 8.31134 46.4761 8.14345C46.6134 8.20492 46.6964 8.35194 46.725 8.58451C46.744 8.73956 46.7711 8.85424 46.8062 8.92855C46.6428 9.50012 46.4379 10.0507 46.1915 10.5802C45.9419 11.0838 45.6155 11.7021 45.2124 12.435L44.646 13.5295C44.4988 13.8104 44.406 14.1107 44.3674 14.4304C44.5079 14.5177 44.631 14.4629 44.7366 14.2659C44.9349 13.9786 45.2036 13.525 45.5427 12.9052L45.7585 12.76L45.9595 13.1283C46.0778 13.0348 46.2457 12.9218 46.463 12.7896C46.706 12.6541 46.8914 12.4734 47.0194 12.2474C47.0418 12.2183 47.1121 12.157 47.2304 12.0634C47.8827 11.4567 48.3735 11.0146 48.7028 10.7371L49.614 9.91416C50.2215 9.36554 50.6787 8.967 50.9856 8.71853C51.0783 8.62817 51.2206 8.51846 51.4124 8.38941L51.5034 8.49606C51.5098 8.54775 51.5001 8.57519 51.4746 8.5784C51.1996 8.87534 50.7839 9.29491 50.2275 9.83711C50.1828 9.89521 50.1012 9.97105 49.9829 10.0646C49.8646 10.1582 49.8007 10.2712 49.791 10.4036L50.5438 9.8761C51.2984 9.25654 51.8946 8.72245 52.3327 8.27383L52.8074 8.01741C52.8587 7.80105 52.9722 7.66871 53.148 7.6204L54.2216 7.48555C54.2629 7.82149 54.1604 8.14924 53.9142 8.46881L53.3769 9.16606C52.8907 9.85688 52.4302 10.4395 51.9953 10.914C51.3813 11.6209 50.4284 12.6327 49.1365 13.9495C48.0078 15.1146 46.9542 16.1522 45.9758 17.0623C45.6752 17.3625 45.0406 17.9014 44.0719 18.679C43.6978 19.0147 43.5314 19.3504 43.5727 19.6864C43.5949 19.8673 43.6347 20.0853 43.692 20.3405C43.7749 20.5925 43.8147 20.8106 43.8114 20.9947C43.7985 21.1012 43.8016 21.232 43.8207 21.3871C43.8524 21.6455 43.921 21.8862 44.0262 22.1091L44.0405 22.2254C44.1326 22.9748 44.3014 23.8195 44.5467 24.7596C44.795 25.9355 44.9526 26.7947 45.0193 27.3374C45.0796 27.8284 45.0681 28.2628 44.9848 28.6406C44.9687 28.7213 44.9686 28.8263 44.9845 28.9555C45.0036 29.1106 45.0051 29.2285 44.9891 29.3092C44.9824 29.6774 44.955 29.9826 44.9069 30.2248C44.8431 30.1279 44.7824 30.0568 44.7249 30.0115C44.6675 29.9662 44.6355 29.9178 44.6292 29.8661L44.28 28.9259L43.5514 29.0174C43.3949 29.0108 43.1569 28.9751 42.8374 28.9103C42.6554 28.697 42.5166 28.5176 42.4208 28.3722C42.3251 28.2268 42.2677 28.0766 42.2486 27.9215C42.2264 27.7406 42.233 27.4774 42.2684 27.1318C42.0067 26.6924 41.8631 26.3693 41.8377 26.1626C41.806 25.9041 41.8525 25.649 41.9773 25.3972C41.9486 25.3746 41.8911 25.3293 41.8049 25.2614C41.741 25.1645 41.7171 25.0756 41.7332 24.9949C41.7141 24.8398 41.6759 24.6347 41.6186 24.3795C41.5837 24.0953 41.5647 23.8352 41.5616 23.5995C41.5777 23.5187 41.5762 23.4008 41.5571 23.2458C41.5095 22.8582 41.3787 22.5335 41.1648 22.2717C41.1617 22.2458 41.1089 22.2393 41.0067 22.2522L39.4758 25.0029C39.3478 25.2289 39.0423 25.7002 38.5593 26.4169C38.5401 26.4718 38.4282 26.512 38.2237 26.5377C38.4573 26.1148 38.6844 25.7451 38.9051 25.4288C38.9275 25.3997 38.9611 25.3562 39.0059 25.298C39.0219 25.2173 39.0651 25.1463 39.1354 25.085C39.1578 25.0559 39.2106 24.9575 39.2938 24.7896L39.3514 24.6249L39.4905 24.4893C39.5643 24.034 39.7548 23.5771 40.0619 23.1187C40.3658 22.6344 40.5817 22.2793 40.7097 22.0533C40.7961 21.9113 40.9159 21.8306 41.0693 21.8114C41.2195 21.7663 41.3202 21.7405 41.3713 21.7341C41.3332 21.424 41.2887 21.1672 41.2377 20.9636L40.5713 21.2441C40.2482 21.7833 40.0674 22.1077 40.029 22.2175C40.0098 22.2724 39.9617 22.4097 39.8849 22.6292C39.8336 22.8456 39.7105 23.0054 39.5155 23.1086C39.4676 23.1409 39.4371 23.2103 39.4243 23.3168C39.4082 23.3976 39.3906 23.4654 39.3714 23.5203C39.0035 24.1175 38.6868 24.7084 38.4211 25.2928L38.0132 26.0918C37.8404 26.3759 37.7061 26.5503 37.6102 26.6148C37.5111 26.6535 37.3992 26.7987 37.2744 27.0506C37.0503 27.551 36.5962 28.1853 35.9118 28.9535C35.8415 29.0148 35.7823 29.0616 35.7344 29.0939C35.6577 29.1035 35.6066 29.1099 35.581 29.1132C35.5011 29.0969 35.4437 29.0517 35.4086 28.9774ZM43.0332 16.8808C43.078 16.8227 43.0972 16.7678 43.0908 16.7162L42.9853 16.8081L43.0332 16.8808ZM43.1628 16.6678C43.4249 16.4774 43.6375 16.3064 43.8006 16.1547C43.9605 15.9772 44.0741 15.7399 44.1414 15.4428L43.6379 15.7815C43.6155 15.8106 43.5452 15.8719 43.4269 15.9655C43.3086 16.0591 43.2302 16.1607 43.1918 16.2705C43.1534 16.3803 43.1437 16.5127 43.1628 16.6678ZM44.9183 14.7942C45.0301 14.8588 45.1674 14.9203 45.3303 14.9786L45.9014 13.9228C45.4635 14.1615 45.1358 14.452 44.9183 14.7942ZM45.0318 10.3322L44.9935 10.337L45.003 10.4145L45.0318 10.3322ZM45.2717 10.0659C45.5243 9.79803 45.6475 9.53328 45.6413 9.27166C45.5965 9.32976 45.5181 9.43144 45.4062 9.5767C45.2943 9.72196 45.2494 9.88503 45.2717 10.0659ZM45.7585 12.76C45.7682 12.6276 45.7811 12.521 45.7971 12.4403C45.8355 12.3305 45.9171 12.2546 46.0417 12.2127C46.0641 12.1837 46.0753 12.1692 46.0753 12.1692L46.0417 12.2127C46.0255 12.5034 45.9311 12.6858 45.7585 12.76ZM45.9734 13.8745C46.0277 13.8939 46.106 13.8972 46.2082 13.8843C46.3521 13.7875 46.6702 13.5245 47.1626 13.0953C47.6741 12.6112 48.0754 12.2853 48.3663 12.1176C48.4398 12.0821 48.4973 12.0224 48.5389 11.9385C48.5774 11.8287 48.619 11.7447 48.6637 11.6866C48.7533 11.5704 48.8476 11.493 48.9467 11.4543C49.0713 11.4124 49.1544 11.3495 49.196 11.2655C49.2376 11.1816 49.2617 11.0605 49.2682 10.9022L48.9326 11.0231L46.0934 13.5839C46.071 13.6129 46.039 13.6694 45.9974 13.7533C45.9782 13.8082 45.9702 13.8486 45.9734 13.8745ZM45.6749 9.22808C45.7771 9.21523 45.8219 9.15713 45.8092 9.05377L45.6749 9.22808ZM46.061 12.0529C46.0419 11.8978 46.1395 11.7413 46.3537 11.5832L46.3489 11.5444L46.3825 11.5008L46.392 11.5783L46.3537 11.5832C46.3056 11.8254 46.2112 12.0078 46.0705 12.1304L46.061 12.0529ZM45.8428 9.01019C45.945 8.99735 45.9898 8.93924 45.9771 8.83588C45.8875 8.95208 45.8428 9.01019 45.8428 9.01019ZM46.0107 8.7923C46.1129 8.77946 46.1194 8.72617 46.03 8.63244L46.0107 8.7923ZM46.3587 11.307L46.4449 11.3749L46.3825 11.5008L46.3587 11.307ZM47.3202 13.7447C47.365 13.6866 47.3858 13.6446 47.3826 13.6187L47.3348 13.546L47.2388 13.7155L47.3202 13.7447ZM49.3401 10.8538C49.3657 10.8506 49.4264 10.8168 49.5223 10.7522C49.6438 10.6845 49.7221 10.5828 49.7574 10.4472L49.3401 10.8538Z" fill="#D6A400"/>
<path d="M54.7535 15.3302L54.7824 15.2478L54.7345 15.1751L54.7009 15.2187C54.7073 15.2704 54.7248 15.3075 54.7535 15.3302ZM45.9178 25.4927C45.9051 25.3893 45.9083 25.3102 45.9275 25.2553L46.3539 25.556C46.3315 25.5851 46.5265 25.3769 46.939 24.9315C46.9648 24.7183 46.9602 24.4696 46.9252 24.1854L47.3949 24.2051L47.74 24.1618L48.1518 24.6611C48.2604 24.6999 48.3659 24.7129 48.4681 24.7001C48.4713 24.7259 48.5016 24.7615 48.5591 24.8067L48.6598 24.676C49.2954 24.9898 50.0766 25.1147 51.0032 25.0508C51.3387 25.0349 51.826 24.9868 52.4651 24.9066C53.2544 24.7812 53.9576 24.483 54.5746 24.0119C54.8591 23.7925 55.0734 23.5294 55.2174 23.2227C55.3582 22.8901 55.4064 22.5429 55.362 22.1811C55.3175 21.8194 55.2027 21.5189 55.0176 21.2797C54.9505 21.157 54.7383 20.9081 54.3807 20.5332C53.7676 19.9804 53.4611 19.704 53.4611 19.704C52.7011 19.0123 52.2705 18.043 52.1692 16.7962C52.2425 16.9706 52.3047 17.1596 52.3557 17.3632C52.429 17.5376 52.504 17.725 52.5805 17.9253C52.6763 18.0707 52.8981 18.3971 53.246 18.9045C53.3674 18.8367 53.3819 18.7431 53.2893 18.6235C53.149 18.3263 53.0565 17.9967 53.0121 17.635C52.9803 17.3765 52.9709 17.0891 52.984 16.7726C52.997 16.456 53.0083 16.2316 53.018 16.0992C53.0213 15.9151 53.047 15.7019 53.0952 15.4597C53.1433 15.2175 53.1737 15.0431 53.1866 14.9365L52.4628 15.0668L52.4869 14.9457C52.5828 14.8812 52.6356 14.7827 52.6452 14.6503C52.6549 14.5179 52.6694 14.4242 52.6886 14.3693C52.9286 13.7881 53.2534 13.1569 53.6629 12.4758C53.7045 12.3918 53.7733 12.3176 53.8692 12.253C53.9874 12.1595 54.0674 12.0707 54.109 11.9868C54.1314 11.9577 54.1602 11.8754 54.1954 11.7397C54.2563 11.6009 54.3618 11.5089 54.512 11.4638C54.5633 11.2475 54.6433 11.0537 54.752 10.8826C54.8864 10.7083 55.0463 10.5308 55.2317 10.3501C55.4427 10.1661 55.6058 10.0145 55.7209 9.89503C55.8584 9.74656 56.0519 9.52546 56.3013 9.23174C56.5731 8.90895 56.8274 8.65399 57.0639 8.46683C57.7641 7.82785 58.5218 7.23413 59.337 6.68567C59.5033 6.55983 59.7094 6.44209 59.9555 6.33246C60.2272 6.21962 60.4366 6.12773 60.5836 6.05678C60.7338 6.01168 60.8792 6.03278 61.0197 6.12009C61.1858 6.2042 61.3088 6.25435 61.3886 6.27056L61.5613 6.09143C61.6188 6.1367 61.7002 6.2708 61.8054 6.49374C61.9331 6.68762 62.088 6.78625 62.2701 6.78962C62.3084 6.88977 62.3578 7.08037 62.4183 7.36141C62.4756 7.61662 62.6048 7.82342 62.806 7.98184C62.8603 8.00126 62.8986 8.10141 62.9208 8.2823C63.0037 8.53429 63.0547 8.73781 63.0737 8.89286C63.1214 9.28048 63.0876 9.63897 62.9723 9.96833L61.661 13.8722C61.6226 13.982 61.4849 14.3404 61.248 14.9475C61.0977 15.2025 60.9664 15.5076 60.8543 15.8628C60.7489 15.8498 60.586 15.7916 60.3656 15.6881C60.1676 15.5555 60.0047 15.4972 59.8769 15.5133L59.7283 15.5713C59.8313 14.5088 60.0927 13.1508 60.5125 11.4974L60.6856 10.6885L60.5039 10.1603L60.2541 10.9788L60.0378 11.7538C59.8589 11.7763 59.7838 11.6939 59.8127 11.5066C59.8801 11.2095 59.9555 10.7671 60.039 10.1793C60.0582 10.1244 60.0518 10.0727 60.0199 10.0242C60.0136 9.97256 60.0072 9.92087 60.0009 9.86919C59.7005 9.9594 59.3904 10.182 59.0706 10.5371C57.8907 11.7086 56.9664 12.8481 56.2978 13.9554C55.6869 14.8981 55.3092 15.7327 55.1649 16.4593C55.0752 16.7854 55.043 17.0519 55.0684 17.2586C55.0907 17.4395 55.1337 17.5784 55.1975 17.6754C55.2646 17.7981 55.33 17.908 55.3938 18.005C55.48 18.0728 55.5535 18.1423 55.6141 18.2134L55.7913 18.388C55.7881 18.3622 55.7291 18.304 55.6141 18.2134L55.4367 18.3538C55.491 18.3732 55.5213 18.4088 55.5277 18.4605C55.5564 18.4831 55.5836 18.4928 55.6091 18.4896C55.6858 18.48 55.7465 18.4461 55.7913 18.388L55.8297 18.3832L55.8344 18.4219L56.6295 19.188L56.5911 19.1928C56.8018 19.4288 56.9119 19.5855 56.9215 19.663C56.9247 19.6889 56.9166 19.8342 56.8972 20.099C57.5836 20.8263 57.9727 21.7745 58.0645 22.9438C58.0931 23.1764 58.0562 23.4041 57.9538 23.6268C57.5311 24.8345 56.8116 25.7383 55.795 26.3383C54.8552 26.9286 53.9124 27.2832 52.9665 27.402C52.3786 27.4759 51.6676 27.4995 50.8337 27.4731C50.0701 27.3853 49.3816 27.275 48.7683 27.1421C47.9728 27.0058 47.1327 26.6128 46.2481 25.9629C46.0533 25.8562 45.9432 25.6994 45.9178 25.4927ZM52.3137 15.7547L52.2706 15.7207L52.3473 15.7111L52.3137 15.7547ZM53.4244 17.5045C53.4116 17.4011 53.3717 17.393 53.3045 17.4801C53.3557 17.4737 53.3956 17.4818 53.4244 17.5045ZM53.288 13.8611L52.957 14.3356C52.9154 14.4196 52.9106 14.4858 52.9425 14.5342C52.9744 14.5827 53.0431 14.6135 53.1485 14.6264C53.1901 14.5425 53.2301 14.4456 53.2685 14.3359C53.3325 14.2229 53.3949 14.0969 53.4557 13.9581L53.288 13.8611ZM53.4865 17.6935L53.4577 17.7758L53.4529 17.737L53.4865 17.6935C53.4833 17.6676 53.4818 17.6547 53.4818 17.6547L53.4865 17.6935ZM53.4818 17.6547C53.4754 17.603 53.4579 17.5659 53.4291 17.5432L53.4244 17.5045L53.4675 17.5384L53.4818 17.6547ZM55.5306 21.0185C55.5242 20.9668 55.4875 20.9846 55.4203 21.0717L55.5401 21.096C55.5401 21.096 55.5369 21.0702 55.5306 21.0185ZM55.588 21.1687L55.5449 21.1348L55.5401 21.096C55.5401 21.096 55.5417 21.109 55.5449 21.1348C55.5704 21.1316 55.5832 21.13 55.5832 21.13L55.588 21.1687C55.5911 21.1946 55.5847 21.2479 55.5687 21.3286C55.5782 21.4061 55.6725 21.4337 55.8514 21.4112L55.9281 21.4016L55.588 21.1687ZM55.7504 21.8568L55.7309 22.3316C55.7341 22.3574 55.7164 22.4253 55.678 22.535C55.6652 22.6416 55.7162 22.7402 55.8312 22.8307L56.1289 22.0848C56.097 22.0363 56.0635 21.975 56.0284 21.9006C55.9933 21.8263 55.9374 21.794 55.8607 21.8036L55.7504 21.8568ZM56.0593 18.9841C56.0561 18.9583 56.0178 18.9631 55.9442 18.9986L56.0305 19.0664C56.0528 19.0374 56.0625 19.0099 56.0593 18.9841ZM56.8125 24.4787L56.731 24.4495L56.7263 24.4108L56.8125 24.4787ZM57.1054 23.694C56.9584 23.765 56.92 23.8748 56.9901 24.0234C57.0189 24.046 57.0716 24.0525 57.1483 24.0429C57.2858 23.8944 57.2715 23.7781 57.1054 23.694ZM57.6039 10.6425C57.5783 10.6458 57.5959 10.6829 57.6565 10.754L57.7189 10.6281C57.6934 10.6313 57.655 10.6361 57.6039 10.6425ZM57.7525 10.5845L57.7189 10.6281L57.7142 10.5893L57.7525 10.5845ZM59.3691 15.1834L59.2924 15.1931L59.259 14.9217L59.3741 14.9073L59.3691 15.1834ZM59.4369 14.1516L59.4031 14.51L59.3986 14.1564L59.4369 14.1516ZM59.5763 13.7011L59.4996 13.7107L59.4567 13.3619L59.5334 13.3522L59.5763 13.7011ZM59.8359 12.6451C59.7911 12.7032 59.7591 12.7597 59.7399 12.8146L59.6634 12.5093C59.6507 12.406 59.6907 12.3091 59.7835 12.2187C59.8697 12.2866 59.9175 12.3593 59.9271 12.4369C59.9334 12.4886 59.903 12.558 59.8359 12.6451ZM60.8362 14.4481L60.8026 14.4917C60.8026 14.4917 60.8042 14.5046 60.8074 14.5305C60.833 14.5273 60.8457 14.5257 60.8457 14.5257L60.9177 14.4773L60.8362 14.4481ZM60.4991 10.1215C60.6652 10.2056 60.7802 10.1911 60.8442 10.0782C60.8411 10.0523 60.8347 10.0006 60.8252 9.92311C60.8157 9.84558 60.7438 9.789 60.6096 9.75338L60.4991 10.1215ZM61.6526 12.2202L61.5471 12.3121L61.5902 12.3461C61.6669 12.3364 61.7165 12.3171 61.7388 12.288L61.6526 12.2202ZM61.3934 6.30932L61.355 6.31414L61.3886 6.27056C61.4013 6.37393 61.4444 6.40787 61.518 6.3724L61.3934 6.30932Z" fill="#D6A400"/>
<path d="M63.6885 24.9927L63.679 24.9152L63.6071 24.9636L63.6885 24.9927ZM61.594 25.0589L61.5747 25.2188C61.5716 25.193 61.5924 25.151 61.6371 25.0929C61.6308 25.0412 61.6276 25.0154 61.6276 25.0154C61.6276 25.0154 61.6164 25.0299 61.594 25.0589ZM61.9922 24.4973L61.8293 24.439C61.7368 24.3194 61.7896 24.2209 61.9877 24.1436C62.1314 24.2567 62.1329 24.3746 61.9922 24.4973ZM63.3001 25.317L62.2647 25.447C62.3227 24.8625 62.3501 24.5573 62.3469 24.5314C62.3278 24.3764 62.2976 24.2359 62.2561 24.1099C62.2115 23.958 62.1813 23.8175 62.1654 23.6883C62.1782 23.5817 62.2646 23.4397 62.4245 23.2622C62.5844 23.0846 62.6548 22.9184 62.6358 22.7633L62.6215 22.647C62.7047 22.4791 62.8167 22.2289 62.9575 21.8963C63.1207 21.5347 63.3063 21.249 63.5141 21.0392C64.0001 20.5583 64.2561 20.0014 64.2822 19.3684C64.3176 19.0228 64.4232 18.7209 64.5992 18.4626C64.9256 17.7394 65.444 16.6771 66.1544 15.2759C66.484 14.5785 66.8072 13.9344 67.1239 13.3436L67.5319 12.5445L69.7204 8.49106C69.7204 8.49106 69.7364 8.41033 69.7685 8.24886C69.4459 8.15818 69.1951 8.12408 69.0161 8.14655C68.8883 8.1626 68.7876 8.18837 68.7141 8.22384L67.6643 8.55249C66.3156 8.98428 65.269 9.2338 64.5245 9.30107C64.3903 9.26544 64.2625 9.17652 64.1412 9.03432C64.0167 8.86627 63.9098 8.73538 63.8204 8.64165C63.731 8.54791 63.6736 8.39768 63.6482 8.19095C63.6228 7.98422 63.567 7.84691 63.4808 7.77902C63.8132 7.52734 64.192 7.33545 64.6171 7.20335C65.0677 7.06803 65.3809 6.97622 65.5566 6.9279C66.1767 6.69259 67.1387 6.38809 68.4426 6.01441L72.6563 4.81608L73.5575 4.54545C74.6122 4.25556 75.3856 4.00099 75.8778 3.78173C76.6161 3.45284 77.4358 3.25805 78.3369 3.19736C78.9214 3.51756 79.4181 3.65197 79.8272 3.6006C79.907 3.61681 80.0284 3.65405 80.1913 3.71231C80.3542 3.77057 80.5172 3.82883 80.6801 3.88709C80.3093 4.03861 80.0153 4.1805 79.7979 4.31276C79.7306 4.60986 79.6968 4.86338 79.6967 5.07332C79.0669 5.44105 78.5476 5.6506 78.1386 5.70197C77.9341 5.72765 77.6816 5.7856 77.3812 5.87581C77.1798 5.92733 76.9194 6.02565 76.5997 6.17075C76.3025 6.2868 76.0516 6.35767 75.8471 6.38335C75.7704 6.39299 75.6011 6.38801 75.3391 6.36844L72.6306 7.14156C72.013 8.45242 71.7138 9.0804 71.733 9.0255C71.525 9.44523 71.3537 9.84722 71.2193 10.2315L70.9168 10.9386C70.7696 11.2195 70.5776 11.6634 70.3407 12.2705C70.0974 12.8258 69.8463 13.3166 69.5871 13.7427C69.328 14.1689 69.0368 14.7565 68.7135 15.5056C68.1566 16.8875 67.6973 17.903 67.3358 18.5519C67.1214 18.9199 66.9182 19.3784 66.7261 19.9273C66.5564 20.4472 66.4331 20.8169 66.3562 21.0365C66.1096 21.776 65.7016 22.68 65.1321 23.7487C65.0713 23.8875 64.988 24.0554 64.8825 24.2523C64.7769 24.4493 64.6617 24.6737 64.5369 24.9255C64.4505 25.0676 64.3498 25.1983 64.2347 25.3177C64.1419 25.4081 64.0508 25.5114 63.9612 25.6276L63.3001 25.317ZM64.9077 22.5567L64.9124 22.5955C64.9124 22.5955 64.9252 22.5938 64.9508 22.5906C64.9763 22.5874 64.9891 22.5858 64.9891 22.5858L64.9796 22.5083L64.9077 22.5567ZM67.4696 6.01852L67.3882 5.98939C67.4106 5.96034 67.4218 5.94582 67.4218 5.94582L67.5416 5.97013C67.5447 5.99597 67.5208 6.0121 67.4696 6.01852ZM68.7065 5.62703L68.625 5.5979L68.7017 5.58827L68.7065 5.62703ZM69.4638 5.45319L69.4974 5.40961C69.4974 5.40961 69.4862 5.42414 69.4638 5.45319Z" fill="#D6A400"/>
<path d="M82.4152 3.70853C82.3577 3.66327 82.1692 3.60822 81.8498 3.54338C81.9423 3.66296 82.0445 3.75509 82.1563 3.81977C82.2681 3.88445 82.407 3.95884 82.5731 4.04294C82.5253 3.86526 82.4727 3.75379 82.4152 3.70853ZM70.3126 24.3576L70.2166 24.5271L70.2118 24.4883C70.2118 24.4883 70.2454 24.4447 70.3126 24.3576C70.3094 24.3317 70.3046 24.293 70.2983 24.2413C70.2888 24.1638 70.3208 24.1073 70.3943 24.0718L70.471 24.0622L70.3895 24.033L70.3943 24.0718L70.3126 24.3576ZM71.0357 25.172C70.8728 25.1138 70.7195 25.0281 70.5758 24.9149C70.5696 24.6533 70.6145 24.3853 70.7106 24.1108C70.7811 23.8395 70.8803 23.5909 71.0083 23.3649L71.6323 22.1057C71.7987 21.77 71.9986 21.3906 72.2322 20.9677C72.4402 20.5479 72.6562 20.0879 72.8802 19.5874L72.981 19.4567L73.3649 18.7787C73.3873 18.7496 73.4017 18.656 73.4082 18.4977C73.386 18.3168 73.4372 18.2054 73.5619 18.1635C73.4661 18.0181 73.4758 17.8857 73.5909 17.7663C73.7029 17.621 73.77 17.5339 73.7924 17.5048L73.826 17.4612L73.7876 17.4661L73.7924 17.5048C73.9555 17.3531 74.0338 17.2515 74.0275 17.1998L73.9748 17.0883C73.9142 17.0172 73.8455 16.9865 73.7688 16.9961C73.6921 17.0057 73.641 17.0122 73.6154 17.0154L73.5387 17.025C73.5738 17.0993 73.6217 17.172 73.6824 17.2431C73.7143 17.2916 73.7494 17.3659 73.7876 17.4661C73.5831 17.4917 73.4282 17.4981 73.3227 17.4851L73.5387 17.025C73.5708 16.8635 73.5837 16.757 73.5773 16.7053C73.7083 16.7151 73.9016 16.7039 74.1573 16.6718C74.2532 16.6073 74.3187 16.5072 74.354 16.3716C74.4116 16.2069 74.4309 16.047 74.4119 15.892C74.396 15.7628 74.3721 15.6739 74.3402 15.6255L74.671 15.4658C74.6934 15.4368 74.7142 15.3948 74.7334 15.3399C74.7526 15.285 74.7718 15.2301 74.791 15.1752L74.7527 15.1801L74.7096 15.1461L74.7191 15.2236C74.7415 15.1946 74.7527 15.1801 74.7527 15.1801C74.8517 15.1414 74.9045 15.0429 74.911 14.8846C74.9176 14.7264 74.9576 14.6295 75.0311 14.594C75.1911 14.2066 75.3559 13.8579 75.5255 13.5479C75.8807 12.8473 76.0904 12.3356 76.1545 12.0126C76.1866 11.8512 76.2682 11.6703 76.3993 11.4702C76.5305 11.27 76.6392 11.0989 76.7256 10.9569C76.9816 10.5049 77.148 10.1691 77.2248 9.94955C77.244 9.89466 77.2553 9.77516 77.2586 9.59106C77.2875 9.40375 77.3595 9.25039 77.4746 9.13097C77.4748 8.92103 77.574 8.6724 77.7723 8.38509C77.9706 8.09779 78.0874 7.88632 78.1227 7.75069C78.2441 7.68296 78.3209 7.56836 78.353 7.40689C78.4074 7.21637 78.4698 7.09045 78.5402 7.02913C78.7641 6.73862 78.9032 6.4981 78.9577 6.30758C79.1943 6.12042 79.4246 5.77662 79.6486 5.27616C79.8566 4.85643 79.9942 4.60299 80.0613 4.51584L81.3134 2.98098C81.9715 3.05577 82.644 3.24683 83.3307 3.55419C83.845 3.72576 84.1723 4.06514 84.3125 4.57233C84.3571 4.72417 84.432 4.91156 84.5373 5.1345C84.6426 5.35744 84.7064 5.55935 84.7286 5.74024L84.9337 7.09209C84.94 7.14377 84.8984 7.22772 84.8089 7.34393L84.6171 7.36801C84.6203 7.39385 84.6011 7.44874 84.5595 7.53268C84.5403 7.58758 84.5467 7.63926 84.5786 7.68773C84.6802 8.51465 84.5024 9.17987 84.0451 9.68338C84.0643 9.62849 84.0835 9.5736 84.1027 9.5187C84.1188 9.43797 84.1204 9.34592 84.1077 9.24255C84.1301 9.2135 84.1637 9.16992 84.2085 9.11182C84.2501 9.02787 84.2262 8.93904 84.1368 8.8453C83.6155 9.46181 83.294 10.0139 83.1722 10.5015C83.3448 10.4273 83.4983 10.3031 83.6326 10.1288C83.7893 9.92543 83.9252 9.76404 84.0403 9.64462C84.021 9.90945 83.9489 10.1678 83.8241 10.4196C83.6961 10.6456 83.5218 10.9168 83.3011 11.2332C83.0772 11.5237 82.6903 11.9659 82.1403 12.5597C82.0731 12.6469 81.9548 12.7405 81.7854 12.8405C81.6415 12.9373 81.5216 13.0179 81.4257 13.0824C81.4897 12.9694 81.6449 12.7532 81.8911 12.4336C82.1182 12.1689 82.2717 11.9397 82.3517 11.746C82.2847 11.6232 82.1937 11.6215 82.0786 11.7409L80.4481 13.0478C80.3298 13.1414 80.1971 13.2236 80.0501 13.2946C79.903 13.3655 79.7576 13.4494 79.6137 13.5462C79.4538 13.7237 79.2253 13.8705 78.928 13.9865C78.6564 14.0994 78.4598 14.1897 78.3383 14.2574C78.2201 14.351 78.073 14.4219 77.8972 14.4702C78.0376 14.7675 78.1699 15.2101 78.2941 15.798C78.3068 15.9014 78.3402 16.0677 78.3943 16.2971C78.4453 16.5006 78.5075 16.6896 78.5808 16.8641C78.7307 17.2389 78.8486 17.6701 78.9346 18.1579C79.046 18.6425 79.1273 18.9865 79.1782 19.19C79.4234 20.34 79.6145 21.1557 79.7516 21.6371L79.4781 21.9469C79.6406 22.635 79.632 23.4102 79.4525 24.2724C79.3664 23.9946 79.2851 23.7555 79.2086 23.5552C79.1288 23.3291 79.0667 23.1401 79.0221 22.9882L77.8762 23.4864L77.2824 22.7737C77.356 22.7383 77.4375 22.6624 77.527 22.5462C77.5175 22.4687 77.4489 22.333 77.3213 22.1391C77.1936 21.9452 77.1202 21.7707 77.1012 21.6157C77.1108 21.4833 77.1317 21.3363 77.1638 21.1749C77.1959 21.0134 77.2056 20.881 77.1928 20.7776C77.1801 20.6743 77.1578 20.5983 77.1259 20.5499C77.0813 20.398 77.0399 20.1671 77.0018 19.857L76.9685 19.5856C76.9783 19.2433 76.921 18.9881 76.7965 18.82C76.7646 18.7716 76.7454 18.7215 76.7391 18.6698C76.7583 18.6149 76.7647 18.5616 76.7584 18.5099C76.7712 18.4034 76.765 18.2467 76.7396 18.04C76.6983 17.704 76.5851 17.3115 76.4001 16.8624C76.333 16.9496 76.2642 17.0238 76.1939 17.0851C76.1459 17.1174 76.0996 17.1626 76.0548 17.2207L75.5892 18.1845L75.1429 18.9883C75.1237 19.0432 75.1108 19.1498 75.1043 19.3081C75.0946 19.4405 75.0306 19.5535 74.9123 19.6471C74.8931 19.702 74.8547 19.8117 74.7971 19.9764C74.765 20.1379 74.6882 20.2525 74.5667 20.3202C74.5699 20.3461 74.5635 20.3994 74.5475 20.4801C74.5538 20.5318 74.5362 20.5996 74.4946 20.6835L73.9768 20.906C74.0373 21.187 74.0611 21.3809 74.0483 21.4874C74.0322 21.5682 73.9746 21.7328 73.8754 21.9815C73.8146 22.1203 73.7329 22.3011 73.6305 22.5239C73.4994 22.7241 73.405 22.9065 73.3474 23.0711L73.2802 23.1583L73.1987 23.1292L73.1556 23.0952L73.1604 23.134L73.1987 23.1292C73.2754 23.1195 73.325 23.1002 73.3474 23.0711C73.2324 22.9806 73.1685 22.9887 73.1556 23.0952C73.1045 23.1017 73.031 23.1371 72.9351 23.2016L73.0499 23.5021C73.0785 23.7347 72.9649 23.972 72.7091 24.214C72.5971 24.3593 72.5412 24.4319 72.5412 24.4319L72.5076 24.4755L72.5459 24.4707L72.7138 24.2528L72.7091 24.214L72.5943 23.9136C72.2394 24.1943 71.8604 24.7011 71.4573 25.434C71.3167 25.3467 71.1762 25.2594 71.0357 25.172ZM70.5672 23.5778C70.5384 23.5551 70.5225 23.5309 70.5193 23.505C70.4906 23.4824 70.489 23.4695 70.5145 23.4663C70.5114 23.4404 70.5082 23.4146 70.505 23.3888C70.5306 23.3856 70.5577 23.3953 70.5865 23.4179C70.612 23.4147 70.636 23.3986 70.6584 23.3695C70.636 23.3986 70.6408 23.4373 70.6727 23.4858C70.6759 23.5116 70.6663 23.5391 70.6439 23.5681C70.6183 23.5713 70.5927 23.5745 70.5672 23.5778ZM71.124 22.4057L70.8744 22.9094C70.8074 22.7866 70.7963 22.6962 70.8411 22.6381C70.8827 22.5541 70.977 22.4767 71.124 22.4057ZM72.0505 20.4395C71.9223 20.8754 71.7064 21.2305 71.4027 21.5048C71.4666 21.3918 71.5482 21.211 71.6475 20.9624C71.718 20.6911 71.798 20.4974 71.8876 20.3812L72.0505 20.4395ZM72.2138 19.8679L72.1371 19.8775L72.2091 19.8291L72.2138 19.8679ZM73.5831 21.8214L73.5879 21.8601C73.5879 21.8601 73.5847 21.8343 73.5784 21.7826C73.6679 21.6664 73.7127 21.6083 73.7127 21.6083L73.5831 21.8214ZM74.2264 20.4023L74.2407 20.5186L74.5332 20.3638L74.4998 20.0925C74.3017 20.1698 74.2105 20.2731 74.2264 20.4023ZM74.5382 20.0877L74.4998 20.0925L74.4951 20.0537C74.4951 20.0537 74.4935 20.0408 74.4903 20.015C74.4871 19.9891 74.4855 19.9762 74.4855 19.9762L74.5382 20.0877ZM74.9123 19.6471L74.8118 19.4629L74.9076 19.6083L74.9123 19.6471ZM75.1093 19.0319L75.0519 18.8817C75.0551 18.9075 75.0854 18.9431 75.1429 18.9883L75.1093 19.0319ZM80.2327 12.5632C79.4719 13.131 78.8916 13.5844 78.492 13.9232C79.1152 13.7138 79.4891 13.5881 79.6137 13.5462C79.6714 13.3815 79.7849 13.2492 79.9543 13.1492C80.1461 13.0201 80.2884 12.9104 80.3811 12.82C80.4035 12.791 80.4387 12.7603 80.4866 12.7281C80.557 12.6668 80.5986 12.5828 80.6114 12.4762C80.4325 12.4987 80.3062 12.5277 80.2327 12.5632ZM79.3331 10.6294C79.1059 11.104 78.8739 11.5399 78.6372 11.937C78.6659 11.9596 78.6851 12.0097 78.6946 12.0872C78.8736 12.0647 78.9998 12.0358 79.0733 12.0003C79.1468 11.9648 79.409 11.7744 79.8597 11.4292C80.9053 10.432 81.4281 9.93334 81.4281 9.93334L82.0085 9.27004C81.9639 9.1182 81.948 8.989 81.9608 8.88242C82.2836 8.76316 82.5074 8.57761 82.6322 8.32578C82.757 8.07394 82.8963 7.72845 83.05 7.28931C82.9191 7.06958 82.9001 6.91453 82.9928 6.82416C83.0536 6.68533 83.0777 6.56423 83.065 6.46086C83.0554 6.38334 83.0347 6.32034 83.0028 6.27187L82.6198 5.6902C82.5336 5.62231 82.4505 5.58026 82.3707 5.56405C82.2876 5.522 82.2174 5.47835 82.1599 5.43308C82.064 5.49761 81.9713 5.58798 81.8817 5.70418C81.9071 5.91091 81.8446 6.1418 81.6943 6.39684C81.4256 6.74547 81.2513 7.01664 81.1713 7.21037C80.992 7.65273 80.7616 8.10151 80.4801 8.5567C80.2242 9.00869 80.0626 9.27826 79.9955 9.36542C79.7971 9.65273 79.5764 10.0741 79.3331 10.6294ZM79.1048 14.7909L79.0281 14.8005L79.0569 14.7182L79.1288 14.6698C79.1512 14.6408 79.1624 14.6262 79.1624 14.6262L79.1241 14.631L79.1288 14.6698L79.1048 14.7909ZM79.2391 14.6166L79.1624 14.6262C79.2104 14.594 79.3159 14.502 79.4789 14.3503C79.4469 14.5118 79.3669 14.6005 79.2391 14.6166ZM80.4809 13.949C80.433 13.9812 80.3339 14.0199 80.1837 14.065C80.3404 13.8616 80.4811 13.739 80.6057 13.6971L80.6393 13.6535C80.6617 13.6245 80.6729 13.61 80.6729 13.61C80.6761 13.6358 80.6521 13.6519 80.601 13.6584L80.6057 13.6971C80.5929 13.8037 80.5513 13.8876 80.4809 13.949ZM80.8263 13.5907C80.7496 13.6003 80.6985 13.6068 80.6729 13.61C80.8199 13.539 80.9846 13.4003 81.1669 13.1937C81.154 13.3003 81.1124 13.3842 81.0421 13.4455C80.9973 13.5036 80.9254 13.552 80.8263 13.5907ZM80.645 12.4327L80.6114 12.4762L80.6067 12.4375L80.645 12.4327C80.6706 12.4294 80.7217 12.423 80.7984 12.4134C80.8975 12.3747 80.9534 12.3021 80.9663 12.1955C80.8577 12.1567 80.7794 12.1534 80.7315 12.1856C80.7091 12.2147 80.6803 12.297 80.645 12.4327ZM82.0169 10.9221C81.8762 11.0447 81.6444 11.2707 81.3214 11.5999C81.2734 11.6321 81.2526 11.6741 81.259 11.7258C81.2654 11.7775 81.3116 11.8373 81.3979 11.9051C81.4906 11.8148 81.6057 11.6954 81.7432 11.5469C81.9063 11.3952 82.007 11.2645 82.0454 11.1547L82.0169 10.9221ZM82.0121 10.8834C82.2229 10.9094 82.3316 10.8432 82.3381 10.685C82.2071 10.6752 82.0985 10.7413 82.0121 10.8834ZM81.6376 5.30188C81.6344 5.27604 81.62 5.26472 81.5945 5.26793C81.5945 5.26793 81.5961 5.28086 81.5992 5.3067C81.6248 5.30349 81.6376 5.30188 81.6376 5.30188ZM81.6855 5.37459L81.6471 5.37941L81.6376 5.30188L81.6807 5.33583L81.6855 5.37459L81.8338 5.63147C81.8307 5.60563 81.8259 5.56687 81.8195 5.51519C81.81 5.43766 81.7653 5.3908 81.6855 5.37459ZM82.5158 10.2297L82.3381 10.685C82.4564 10.5914 82.538 10.5155 82.5827 10.4574C82.6243 10.3735 82.6612 10.2508 82.6932 10.0893C82.5718 10.1571 82.5126 10.2038 82.5158 10.2297ZM82.9131 10.9276L82.5246 11.2519C82.4894 11.3876 82.5149 11.4893 82.6011 11.5572C82.6459 11.4991 82.7146 11.4249 82.8074 11.3345C82.8969 11.2183 82.9322 11.0827 82.9131 10.9276ZM81.8817 5.70418L81.8481 5.74776L81.8338 5.63147L81.8769 5.66542L81.8817 5.70418ZM83.1339 10.5063C82.99 10.6031 82.9164 10.7435 82.9131 10.9276C83.0154 10.9148 83.0777 10.8938 83.1001 10.8648C83.148 10.8325 83.1672 10.7776 83.1577 10.7001L83.1339 10.5063ZM83.0386 9.73107C83.013 9.73428 83.029 9.75852 83.0865 9.80378L83.5854 9.11135C83.6302 9.05325 83.6478 8.98543 83.6383 8.90791C83.6512 8.80133 83.6544 8.7222 83.6481 8.67052C83.5266 8.73826 83.4211 8.83023 83.3315 8.94644C83.2675 9.05943 83.2067 9.19827 83.1491 9.36295C83.117 9.52442 83.0802 9.64713 83.0386 9.73107ZM83.6864 8.66571L83.6481 8.67052L83.6433 8.63176L83.6769 8.58818C84.0349 8.33329 84.1917 8.02496 84.1472 7.66318L84.1329 7.5469C83.7813 7.85347 83.6292 8.20056 83.6769 8.58818L83.6864 8.66571ZM84.1665 7.50332L84.1329 7.5469L84.1282 7.50814L84.1953 7.42098C84.2657 7.35967 84.2977 7.30317 84.2913 7.25149C84.3074 7.17075 84.2962 7.08031 84.258 6.98015L84.1953 7.42098L84.1665 7.50332Z" fill="#D6A400"/>
<path d="M82.4207 23.3879C82.181 23.5493 81.9061 23.6363 81.5962 23.6489L81.4909 23.426C81.7149 22.9255 81.7664 22.3943 81.6454 21.8322C81.6073 21.5221 81.6731 21.2121 81.8426 20.9021C81.9835 20.5696 82.0843 20.3339 82.1451 20.195C82.4844 19.3652 82.9357 18.3901 83.4988 17.2698L86.58 11.6086L89.517 6.35903L90.6542 4.52371C90.827 4.23961 91.0606 3.81668 91.3549 3.2549C91.5374 2.83839 91.8698 2.58671 92.3524 2.49987L93.0517 3.12053L92.4322 4.73337C91.8495 6.32849 91.3566 7.49248 90.9535 8.22535C90.8639 8.34156 90.7807 8.50945 90.7039 8.72902C90.6494 8.91954 90.5918 9.08422 90.531 9.22306C90.2045 9.9463 89.9421 10.4516 89.7438 10.7389C89.6159 10.9649 89.5134 11.1877 89.4366 11.4072C89.3566 11.601 89.275 11.7818 89.1918 11.9497C89.0862 12.1466 88.811 12.6535 88.3663 13.4703C88.1488 13.8125 87.8768 14.3452 87.5503 15.0685C86.8879 16.4374 86.2527 17.7111 85.6448 18.8896C85.3568 19.503 84.8992 20.4264 84.272 21.6597C84.1888 21.8276 84.0385 22.0827 83.8209 22.4249C83.7377 22.5928 83.6578 22.6815 83.5811 22.6912C83.4085 22.7653 83.1528 22.9024 82.8139 23.1024C82.766 23.1347 82.6349 23.2298 82.4207 23.3879Z" fill="#D6A400"/>
<path d="M88.927 21.7049L88.9653 21.7001L88.9222 21.6661L88.927 21.7049ZM86.223 22.8317C86.0633 22.7993 85.9659 22.7459 85.9308 22.6716C86.2153 22.4522 86.4488 22.1342 86.6312 21.7177C86.8136 21.3012 86.9592 21.0074 87.068 20.8363C87.1799 20.691 87.2871 20.507 87.3895 20.2842C87.4888 20.0356 87.5688 19.8419 87.6296 19.703C87.9176 19.0896 88.3816 18.2179 89.0214 17.0879L89.7509 15.7367L91.6034 12.434C91.9489 11.8658 92.4416 11.0167 93.0814 9.88675L95.1258 6.24501C95.4265 5.73492 95.7304 5.25067 96.0375 4.79226L96.4598 4.10947C96.5462 3.96742 96.6437 3.81084 96.7525 3.63974C96.8868 3.46543 96.9844 3.30886 97.0452 3.17002C97.1924 2.88913 97.3938 2.73264 97.6494 2.70053L97.9226 2.70558L98.7143 1.54343L98.9536 1.90697C99.3757 1.53908 99.5867 1.35514 99.5867 1.35514C99.6632 1.55545 99.7269 1.86233 99.7777 2.27579C99.8127 2.56005 99.8363 2.9638 99.8487 3.48704C99.8227 4.12008 99.7471 4.77245 99.622 5.44417L99.1357 8.45726C99.1165 8.51215 99.0989 8.57996 99.0829 8.6607C99.0668 8.74143 99.0652 8.83348 99.0779 8.93685C99.0937 9.06605 99.1304 9.15329 99.1879 9.19855C99.2327 9.14044 99.2998 9.05329 99.3894 8.93708C99.5045 8.81766 99.61 8.72569 99.7059 8.66117C99.8498 8.56438 100.046 8.36912 100.296 8.07539C100.542 7.75582 100.761 7.53151 100.953 7.40246C101.17 7.2702 101.378 7.06042 101.576 6.77311C101.8 6.48259 101.97 6.27762 102.085 6.15821C102.504 5.76448 102.905 5.3336 103.289 4.86556L103.361 4.81716C103.55 4.45233 103.78 4.10852 104.052 3.78574C104.32 3.43712 104.49 3.23215 104.56 3.17084C104.906 2.81259 105.2 2.46075 105.443 2.11534C105.51 2.02819 105.609 1.88453 105.74 1.68438C105.868 1.45839 106.017 1.29539 106.186 1.19539L106.829 0.721088C107.181 0.414517 107.528 0.174154 107.87 0C108.01 0.0873123 108.052 0.213308 107.994 0.377987C107.872 0.655662 107.821 0.872024 107.84 1.02707C107.856 1.15628 107.881 1.25804 107.917 1.33235L108.333 1.55552C108.333 1.97541 108.24 2.38068 108.054 2.77136C107.891 3.13298 107.79 3.36868 107.752 3.47847C107.233 4.75064 106.43 6.66211 105.342 9.21288L105.011 10.0023C104.562 11.0032 104.262 11.7233 104.108 12.1624C103.996 12.5176 103.799 13.0278 103.517 13.6929C103.05 14.9587 102.787 15.6739 102.73 15.8386C102.614 16.1679 102.494 16.4585 102.37 16.7104C102.27 16.959 102.179 17.1672 102.096 17.3351C101.481 18.6718 101.086 19.5743 100.91 20.0425C100.84 20.3137 100.633 20.6414 100.291 21.0255C100.211 21.0093 100.045 21.0302 99.7926 21.0881C99.537 21.1202 99.3517 21.091 99.2367 21.0005C99.1505 20.9326 99.0451 20.9196 98.9204 20.9615C98.8182 20.9743 98.7415 20.984 98.6903 20.9904C98.4858 21.0161 98.3294 20.9045 98.2209 20.6557C98.3747 20.0067 98.5941 19.3625 98.8789 18.7232L99.1526 18.0984C99.4631 17.2459 99.772 16.4855 100.079 15.8172C100.627 14.5677 101.209 13.1825 101.827 11.6617C101.961 11.2774 102.192 10.7237 102.518 10.0004L102.941 9.00274C102.979 8.89295 103.072 8.59265 103.219 8.10182C103.079 8.01451 102.975 8.01443 102.908 8.10159C102.866 8.18553 102.833 8.22911 102.807 8.23232C102.692 8.35174 102.555 8.50021 102.395 8.67773C102.257 8.8262 102.096 8.9908 101.91 9.17153C100.427 10.6174 99.3394 11.6986 98.6487 12.4151C98.3707 12.4762 98.0911 12.5245 97.8099 12.5598C97.5511 12.5661 97.3131 12.5303 97.0959 12.4527C96.9841 12.388 96.8547 12.3911 96.7076 12.4621C96.583 12.504 96.4823 12.5297 96.4056 12.5394C96.3289 12.549 96.1772 12.4762 95.9505 12.321C95.9922 12.0271 96.0211 11.8398 96.0372 11.7591L96.8014 8.78979C96.8206 8.73489 96.8159 8.69613 96.7871 8.6735C96.7808 8.62182 96.776 8.58306 96.7728 8.55721C96.6482 8.59911 96.5362 8.74437 96.437 8.99299L93.9894 13.4726L92.9336 15.337C92.3225 16.4896 91.4314 18.2153 90.2602 20.5141L89.3147 22.3253C89.0619 22.8031 88.8764 23.0888 88.7581 23.1824C88.6174 23.3051 88.2723 23.4534 87.7226 23.6274C87.6651 23.5821 87.5885 23.4868 87.4927 23.3414C87.3746 23.225 87.2388 23.1764 87.0854 23.1957C87.0056 23.1795 86.9113 23.152 86.8027 23.1131C86.6973 23.1001 86.5791 23.0887 86.4481 23.0789C86.4322 22.9497 86.3572 22.8673 86.223 22.8317ZM86.6403 22.425L86.6115 22.5074C86.6115 22.5074 86.6258 22.5187 86.6546 22.5413L86.6881 22.4977L86.6403 22.425ZM87.8573 22.8232L87.7806 22.8329L87.8285 22.9056L87.9005 22.8572L87.8573 22.8232ZM90.9525 17.5932L90.8277 17.845L90.9092 17.8742L91.125 17.729L90.9525 17.5932ZM91.8452 15.9854L91.8547 16.0629C91.9538 16.0242 91.9986 15.9661 91.989 15.8886C92.0019 15.782 92.0067 15.7158 92.0036 15.69C91.9843 15.7449 91.9523 15.8014 91.9076 15.8595C91.8596 15.8917 91.8388 15.9337 91.8452 15.9854ZM92.1762 15.5109C92.3233 15.4399 92.4176 15.3625 92.4592 15.2785C92.5232 15.1655 92.5696 15.0154 92.5985 14.8281C92.3171 15.0733 92.1764 15.3009 92.1762 15.5109ZM92.6321 14.7845L92.5985 14.8281L92.5937 14.7893L92.6273 14.7457L92.7281 14.615C92.6545 14.6505 92.621 14.694 92.6273 14.7457L92.6321 14.7845ZM92.8047 14.6054L92.7281 14.615L92.7616 14.5714L92.8338 14.2081L92.8721 14.2033L92.8047 14.6054ZM96.8112 8.5524L96.7728 8.55721L96.8064 8.51364L96.8112 8.5524Z" fill="#D6A400"/>
<path d="M13.1488 42.555C12.3596 41.1634 11.0497 39.0351 9.2193 36.1702L6.27215 39.0188V42.555H0C0.134343 39.3789 0.201515 36.4075 0.201515 33.6408C0.201515 30.8741 0.134343 27.9027 0 24.7266H6.27215V31.9218C9.36204 28.9422 11.5619 26.5438 12.8718 24.7266H21.0331L13.0985 32.3884C14.274 33.9928 15.5922 35.7363 17.0532 37.619C18.531 39.5017 19.866 41.147 21.0583 42.555H13.1488Z" fill="#F1F1F1"/>
<path d="M44.2388 24.7266L42.5763 28.4838C41.1153 31.8072 39.965 34.4675 39.1253 36.4648C38.2857 38.4621 37.5132 40.4922 36.8079 42.555H29.2763C28.5878 40.5249 27.8237 38.5194 26.9841 36.5385C26.1612 34.5412 25.0529 31.9873 23.6591 28.8768C23.424 28.3529 22.811 26.9695 21.8203 24.7266H28.8229C29.3267 26.3146 30.074 28.3529 31.0648 30.8413C31.938 33.0351 32.6433 34.9341 33.1807 36.5385C33.5333 35.4089 33.9531 34.2056 34.4401 32.9286C34.9439 31.6353 35.2462 30.8495 35.3469 30.5712C36.3209 28.0664 37.0346 26.1182 37.488 24.7266H44.2388Z" fill="#F1F1F1"/>
<path d="M59.4592 42.555C59.1402 41.6218 58.7119 40.4513 58.1746 39.0433H50.1392L48.8797 42.555H42.5572L49.6102 24.7266H58.8799L65.9833 42.555H59.4592ZM56.7388 35.2124C56.1007 33.4935 55.4457 31.7745 54.774 30.0555L54.1695 28.4593C53.5817 29.9491 52.7169 32.2001 51.575 35.2124H56.7388Z" fill="#F1F1F1"/>
<path d="M74.896 24.4565C78.053 24.4565 80.5468 24.833 82.3772 25.5861C84.2076 26.3228 85.4839 27.3542 86.206 28.6803C86.9449 29.99 87.3143 31.6026 87.3143 33.518C87.3143 35.3352 86.8945 36.9232 86.0548 38.2821C85.2152 39.6409 83.9557 40.6968 82.2765 41.4499C80.5972 42.1866 78.5316 42.555 76.0799 42.555C74.5853 42.555 73.0655 42.555 71.5206 42.555C69.9757 42.555 68.4139 42.5468 66.8354 42.5304C66.9697 39.3053 67.0369 36.3011 67.0369 33.518C67.0369 30.7022 66.9697 27.7635 66.8354 24.7021C68.8337 24.5384 71.5206 24.4565 74.896 24.4565ZM76.7852 37.6681C78.3469 37.6681 79.3881 37.2998 79.9087 36.5631C80.4292 35.8264 80.6895 34.8113 80.6895 33.518C80.6895 32.2738 80.4124 31.267 79.8583 30.4975C79.3209 29.7281 78.2965 29.3433 76.7852 29.3433C75.1563 29.3433 73.9388 29.3924 73.1327 29.4907V37.6681H76.7852Z" fill="#F1F1F1"/>
<path d="M109.546 30.6694C109.546 32.0937 109.185 33.297 108.463 34.2793C107.757 35.2616 106.54 35.9737 104.81 36.4157C105.012 36.6777 105.155 36.8823 105.238 37.0297L109.319 42.555H102.468C101.729 41.2125 100.562 39.3134 98.9663 36.8578H95.2635V42.555H89.3188C89.4532 39.3789 89.5203 36.4075 89.5203 33.6408C89.5203 30.8741 89.4532 27.9027 89.3188 24.7266H95.2635V24.7512H100.427C103.819 24.7512 106.187 25.2833 107.531 26.3474C108.874 27.4115 109.546 28.8522 109.546 30.6694ZM95.2635 29.4661V32.2656H98.6641C100.091 32.2656 101.166 32.2247 101.888 32.1428C102.627 32.0446 103.139 31.8973 103.425 31.7008C103.71 31.5043 103.853 31.2178 103.853 30.8413C103.853 30.4811 103.719 30.2028 103.45 30.0064C103.181 29.8099 102.678 29.6708 101.939 29.5889C101.2 29.507 100.108 29.4661 98.6641 29.4661H95.2635Z" fill="#F1F1F1"/>
<path d="M122.766 42.8005C118.92 42.8005 116.09 41.9902 114.277 40.3694C112.463 38.7323 111.556 36.4403 111.556 33.4935C111.556 30.5794 112.455 28.3038 114.252 26.6666C116.065 25.0295 118.903 24.2109 122.766 24.2109C126.645 24.2109 129.483 25.0295 131.28 26.6666C133.093 28.3038 134 30.5794 134 33.4935C134 36.4567 133.102 38.7486 131.305 40.3694C129.508 41.9902 126.661 42.8005 122.766 42.8005ZM122.766 37.7909C124.63 37.7909 125.973 37.4471 126.796 36.7595C127.619 36.0556 128.03 34.9669 128.03 33.4935C128.03 32.0528 127.619 30.9805 126.796 30.2765C125.973 29.5725 124.63 29.2206 122.766 29.2206C120.918 29.2206 119.583 29.5725 118.76 30.2765C117.938 30.9805 117.526 32.0528 117.526 33.4935C117.526 34.9505 117.938 36.031 118.76 36.735C119.583 37.4389 120.918 37.7909 122.766 37.7909Z" fill="#F1F1F1"/>
</svg>
