<svg width="1509" height="355" xmlns="http://www.w3.org/2000/svg">

 <g>
  <title>Layer 1</title>
  <g>
   <path fill="#E8E8E8" d="m4.19698,250.006c4.669,5.401 5.0165,5.51 9.2659,4.931c7.1957,-1.057 7.1307,-4.51 -0.1297,-13.009c-7.5356,-8.839 -6.9708,-11.46 2.9396,-13.066l6.5804,-1.122l7.3339,-14.109c8.78181,-16.707 8.83254,-18.09 0.39896,-17.547c-2.98977,0.209 -5.59586,0.412 -5.71168,0.376c-0.83975,0.246 -23.29728,40.777 -24.31098,44.02c-1.1584,3.706 -0.7965,4.582 3.6336,9.526z"/>
   <path fill="#E8E8E8" d="m33.70007,163.747c-0.2173,2.729 -2.11428,10.019 -4.3804,16.049l-4.0906,11.054l3.06217,-0.442c2.49026,-0.238 3.84404,-1.722 6.58068,-7.224c1.92577,-3.721 3.77192,-7.594 4.09773,-8.636c0.32581,-1.042 1.19453,-1.788 1.88948,-1.571c0.92659,0.29 0.39802,2.794 -1.68709,8.245l-3.07698,7.811l9.57742,-0.948l9.5774,-0.948l2.9682,-5.429c1.7086,-3.026 3.7792,-7.21 4.5828,-9.374c1.6145,-3.945 4.4668,-5.342 4.5246,-2.273c0.094,0.919 -1.5567,4.98 -3.7069,9.012c-2.0705,4.185 -3.6199,7.515 -3.3882,7.587c1.6215,0.507 7.0799,-1.093 8.1296,-2.418c2.2515,-2.729 7.7322,-17.417 8.5867,-22.998c1.3323,-8.737 1.0573,-9.078 -9.0124,-7.775c-8.0427,0.919 -9.0707,1.361 -8.9839,3.93c-0.0869,1.499 -0.8038,6.233 -1.7596,10.511c-1.4915,6.4 -2.23,7.949 -4.1339,8.752c-3.6558,1.528 -4.5534,-1.296 -2.6998,-8.853c0.8544,-3.547 1.5785,-7.898 1.3904,-9.737l-0.1374,-3.221l-8.3106,0.962c-4.51722,0.623 -8.49153,1.542 -8.75216,1.969c-0.29683,0.543 -0.62995,3.236 -0.84725,5.965z"/>
   <path fill="#E8E8E8" d="m23.12743,244.354c5.90675,7.949 7.57171,8.723 16.1501,7.717c8.42635,-0.926 10.07695,-2.953 5.77715,-7.094c-4.92962,-4.973 -4.10422,-8.021 8.0585,-30.664c9.1221,-16.983 10.3819,-21.42 5.7054,-21.102c-1.1872,0.138 -3.7571,0.224 -5.7117,0.376c-4.1045,0.116 -3.2068,-1.129 -15.47819,21.862c-9.45508,17.641 -9.86774,18.148 -13.50902,18.408c-5.51619,0.565 -5.76249,3.793 -0.99224,10.497z"/>
   <path fill="#E8E8E8" d="m9.13118,316.39c2.0269,1.65 6.4065,1.875 9.6859,0.738c2.5916,-0.969 23.94865,-36.759 26.2293,-44.056c1.0136,-3.243 0.6083,-4.386 -3.7422,-9.179c-4.39391,-5.06 -5.16847,-5.43 -8.80976,-5.169c-2.75811,0.282 -4.46659,1.274 -5.31365,3.17c-1.07149,2.208 -0.19563,3.881 4.90766,9.925c7.73096,9.028 7.16619,11.649 -2.78765,12.987l-6.7759,0.934l-5.9221,11.626c-3.4099,6.435 -6.7402,13.022 -7.6307,14.651c-1.0353,2.092 -0.9702,3.511 0.1591,4.373z"/>
   <path fill="#E8E8E8" d="m51.87438,238.209c0.2461,0.84 2.4104,3.678 4.8788,6.356c4.546,4.981 8.8315,6.32 12.509,3.91c2.9971,-1.86 1.9331,-5.372 -3.6841,-12.213c-8.1291,-9.787 -7.4123,-12.488 3.3233,-13.073c5.0602,-0.326 6.0085,-0.92 7.8619,-4.409c1.0715,-2.208 3.8516,-7.441 6.1176,-11.437c4.9375,-8.882 6.8995,-14.753 5.5242,-16.454c-1.4116,-1.586 -11.0976,-0.291 -12.4007,1.845c-2.0198,2.801 -23.8982,41.479 -24.2964,42.753c-0.181,0.579 -0.0797,1.882 0.1664,2.722z"/>
   <path fill="#E8E8E8" d="m20.76278,347.106c-0.4418,3.04 -0.2682,6.146 0.1299,6.906c0.3982,0.76 4.16249,0.919 9.29504,0.362c8.0065,-0.803 8.73042,-1.085 8.75227,-4.003c0.04352,-1.766 1.25268,-6.855 2.62832,-11.256c2.28067,-7.297 2.76567,-8.036 4.85057,-7.384c1.7373,0.543 2.1427,1.687 1.5779,4.307c-3.7506,16.882 -3.5914,17.186 7.2818,15.753c8.5784,-1.006 8.7304,-1.086 8.5496,-4.575c-0.3038,-3.909 5.8648,-24.866 8.1163,-27.595c1.723,-2.258 -0.1301,-2.838 -4.0538,-1.267c-2.4758,1.006 -3.8586,2.99 -6.5012,9.411c-3.229,7.89 -5.2633,9.924 -5.5381,5.516c-0.0217,-1.151 1.2163,-4.706 2.9973,-7.963c1.6652,-3.294 2.6498,-6.038 2.0707,-6.219c-0.4633,-0.144 -5.024,0.21 -10.0407,0.803l-9.11409,1.093l-4.54659,9.259c-2.99004,6.312 -4.89405,9.15 -6.0523,8.788c-1.85318,-0.579 -1.02056,-3.243 3.02643,-10.497c1.70857,-3.026 2.96106,-5.813 2.72219,-6.269c-0.12304,-0.42 -1.85318,-0.579 -3.72812,-0.275c-2.52647,0.355 -3.77165,1.491 -5.5816,5.248c-4.98102,10.649 -6.36382,14.666 -6.84182,19.857z"/>
   <path fill="#E8E8E8" d="m53.08188,263.633c1.4912,1.737 2.7724,4.553 2.613,6.283c-0.0435,1.767 -4.6914,11.756 -10.2516,22.224c-11.56183,21.941 -11.66321,22.672 -2.80253,22.39l5.44383,-0.332l10.7654,-19.393c7.6452,-13.885 11.3374,-19.596 12.9807,-19.973c8.5205,-2.041 8.5713,-3.423 0.9851,-12.914l-5.4652,-6.921l-7.8907,0.839c-9.0779,0.977 -10.7285,3.004 -6.378,7.797z"/>
   <path fill="#E8E8E8" d="m85.64108,160.274c-0.3259,3.077 -2.1577,9.751 -4.1343,14.855c-2.1285,5.183 -3.2363,9.541 -2.773,9.686c3.2431,1.013 6.0303,-1.803 9.3751,-9.657c2.3892,-5.61 4.1412,-8.368 5.2922,-8.39c1.5347,-0.029 1.2161,1.397 -1.6437,8.513l-3.562,8.549l9.5701,-1.331c10.4534,-1.31 11.2859,-1.94 15.9629,-12.429c1.9547,-4.22 3.7863,-6.826 4.9373,-6.848c1.5347,-0.029 1.2886,1.166 -1.0282,6.544c-1.6579,3.678 -3.6923,7.746 -4.4742,9.027c-1.6796,2.527 -1.5638,2.563 2.3744,1.759c4.7054,-0.817 8.7089,-6.304 11.786,-16.15c2.0272,-6.486 2.9833,-16.867 1.5934,-17.301c-0.4633,-0.145 -4.7923,0.282 -9.657,0.796c-7.5432,0.948 -8.7232,1.469 -8.3397,3.496c0.6441,3.634 -1.4557,14.42 -3.3525,17.642c-1.3031,2.135 -2.3311,2.577 -4.1915,1.614c-2.0921,-1.036 -2.3019,-1.991 -0.6656,-8.854c2.6573,-11.756 2.3388,-12.364 -7.5861,-11.525c-8.6218,0.738 -8.6218,0.738 -9.4836,10.004z"/>
   <path fill="#E8E8E8" d="m72.17328,233.874c0.8686,1.289 3.5469,4.923 5.9429,7.833l4.365,5.56l7.0509,-0.593c9.3891,-0.753 11.018,-1.897 8.7523,-6.037c-1.0713,-1.861 -2.2512,-3.374 -2.7145,-3.519c-0.3474,-0.108 -0.9554,-1.824 -1.0712,-3.894c-0.246,-2.874 1.4844,-6.783 8.934,-20.856c5.0027,-9.497 9.5927,-18.488 10.0995,-20.11c1.1585,-3.706 -1.0566,-5.161 -7.0652,-4.242l-5.0529,0.709l-10.6134,19.314c-10.2732,19.038 -10.4976,19.349 -15.0076,20.355c-5.1181,1.325 -5.6394,2.179 -3.6198,5.48z"/>
   <path fill="#E8E8E8" d="m61.81018,311.368c0.818,0.637 3.7788,0.927 6.5369,0.645l4.9009,-0.63l12.1844,-21.492c6.7257,-11.756 12.3148,-22.723 12.4379,-24.338c0.0436,-1.766 -1.7806,-4.879 -4.6399,-7.934c-4.6183,-4.749 -5.0454,-5.01 -8.8315,-4.286c-7.7676,1.259 -7.7677,3.294 0.2093,13.161c7.6586,9.259 7.2024,11.532 -2.4474,12.712l-6.9713,0.745l-6.856,12.987c-8.1157,15.39 -8.666,16.743 -6.5233,18.43z"/>
   <path fill="#E8E8E8" d="m105.18308,234.02c4.0319,6.219 8.4404,10.012 11.546,9.839c4.0249,-0.268 7.0582,-2.244 6.8629,-4.466c-0.0579,-1.036 -2.8593,-5.09 -6.0443,-9.136c-7.5789,-9.108 -7.1589,-11.265 2.527,-12.56l7.0799,-1.093l6.6751,-12.408c9.933,-18.763 9.911,-19.914 0.674,-19.241l-5.4437,0.333l-12.112,21.26c-6.6099,11.793 -12.2858,22.224 -12.6116,23.266c-0.3258,1.043 0.0939,2.954 0.8467,4.206z"/>
   <path fill="#E8E8E8" d="m72.67468,344.133c-0.4636,5.957 -0.5794,5.921 11.5968,4.387l7.0075,-0.861l0.2971,-6.646c0.4132,-10.677 5.6619,-19.335 8.8252,-14.405c0.5935,0.948 0.3835,4.061 -0.594,7.188c-0.9412,3.012 -1.6291,7.247 -1.5496,9.433l0.1519,3.989l8.0065,-0.804c4.481,-0.506 8.2743,-0.846 8.4263,-0.926c0.2679,-0.043 1.1078,-4.358 2.0057,-9.671c0.9921,-6.428 2.6573,-11.756 4.9089,-16.52c3.5113,-7.166 3.1783,-8.542 -1.6647,-6.877c-1.7157,0.608 -3.4677,3.366 -6.0089,9.056c-4.4091,10.446 -6.6821,9.99 -3.0042,-0.558l2.7295,-7.919l-8.8462,1.049c-4.8647,0.514 -9.3023,1.288 -9.9104,1.607c-0.5719,0.203 -3.0262,4.394 -5.5456,9.201c-2.628,5.154 -5.1329,8.693 -6.1319,8.636c-1.3031,0.101 -1.1365,-1.246 1.144,-6.508c1.658,-3.678 3.6923,-7.746 4.4742,-9.027c1.6796,-2.527 1.6796,-2.527 -2.4901,-1.796c-3.2504,0.637 -4.6114,1.737 -7.1381,6.16c-3.6778,6.479 -6.1394,14.355 -6.6899,21.812z"/>
   <path fill="#E8E8E8" d="m105.01588,257.743c4.5026,4.713 3.8292,7.681 -6.4006,26.987c-5.075,9.729 -9.665,18.72 -10.0632,19.994c-1.0861,3.475 0.7019,4.669 6.7973,4.286l5.4438,-0.333l10.4542,-19.617l10.4542,-19.618l4.662,-1.086c2.483,-0.622 4.6476,-1.853 4.6693,-2.736c-0.1302,-0.803 -2.6637,-4.901 -5.7329,-8.911l-5.6245,-7.225l-7.4708,0.716c-8.506,0.774 -11.1773,3.626 -7.1888,7.543z"/>
   <path fill="#E8E8E8" d="m138.59568,149.49c0.007,4.453 -5.8794,24.099 -8.1237,27.212c-1.8678,2.722 -0.3983,3.308 3.8297,1.578c2.439,-0.89 3.822,-2.874 6.501,-9.41c2.418,-6.11 3.765,-7.978 5.039,-7.579c1.39,0.434 1.071,1.86 -1.644,8.513c-2.795,6.5 -3.149,8.042 -1.694,7.861c0.919,-0.094 5.248,-0.521 9.729,-1.027l8.007,-0.803l3.554,-6.899c2.078,-3.801 4.033,-8.021 4.467,-9.411c0.435,-1.39 1.455,-2.215 2.498,-1.889c2.085,0.652 1.549,2.773 -2.679,10.605c-1.745,3.142 -2.918,6.081 -2.759,6.385c0.16,0.304 1.774,0.427 3.649,0.123c3.446,-0.449 3.931,-1.187 9.209,-12.378c2.584,-5.422 4.453,-18.315 2.961,-20.053c-0.586,-0.564 -4.77,-0.601 -9.483,-0.166c-6.435,0.658 -8.419,1.309 -8.39,2.844c0.644,9.737 -3.707,21.218 -7.53,20.023c-1.969,-0.615 -2.106,-1.803 -0.839,-7.891c0.847,-3.93 1.492,-8.433 1.499,-10.084c0.015,-3.301 -0.948,-3.474 -11.402,-2.165c-6.088,0.767 -6.392,0.927 -6.399,4.611z"/>
   <path fill="#E8E8E8" d="m124.65668,228.664c0.8686,1.289 3.4673,4.771 5.8271,7.797l4.2849,5.408l7.623,-0.796c8.622,-0.738 11.105,-3.395 7.348,-7.239c-5.009,-5.125 -4.509,-7.131 6.756,-28.529c11.895,-22.6 11.916,-23.483 3.019,-23.085l-5.443,0.332l-10.65,19.43c-10.389,19.002 -10.7654,19.393 -15.0076,20.355c-4.8141,1.166 -5.8566,2.874 -3.7574,6.327z"/>
   <path fill="#E8E8E8" d="m114.09848,305.97c0.818,0.637 3.6992,0.775 6.5297,0.261l4.9733,-0.861l12.3002,-21.456c6.726,-11.756 12.394,-22.571 12.445,-23.954c0.051,-1.383 -2.048,-4.836 -4.944,-7.775c-5.009,-5.126 -5.241,-5.198 -9.526,-4.503c-7.0005,1.245 -6.7183,4.003 1.527,13.827c7.224,8.614 6.319,11.51 -4.033,12.089l-5.7118,0.376l-6.523,12.328c-7.7104,14.499 -8.9846,18.169 -7.0374,19.668z"/>
   <path fill="#E8E8E8" d="m157.66768,228.811c0.868,1.288 3.069,4.01 4.835,6.088c3.055,3.243 3.713,3.576 7.507,3.236c3.257,-0.253 4.546,-1.122 5.198,-3.206c0.724,-2.317 -0.391,-4.445 -5.14,-9.998c-7.731,-9.027 -7.274,-11.301 2.484,-12.828l7.08,-1.092l7.37,-14.225c8.405,-16.316 8.499,-17.431 0.63,-17.475c-2.765,-0.101 -5.407,0.217 -5.936,0.687c-1.549,1.296 -23.536,40.321 -24.513,43.448c-0.507,1.622 -0.268,4.112 0.485,5.365z"/>
   <path fill="#E8E8E8" d="m124.90508,339.734c0.1157,2.07 0.2676,4.025 0.3111,4.293c0.0796,0.152 4.1407,-0.232 9.0055,-0.745c7.963,-1.071 8.991,-1.513 8.984,-3.931c0.087,-1.498 0.804,-6.233 1.759,-10.511c1.456,-6.283 2.23,-7.948 4.134,-8.752c4.076,-1.65 5.22,2.013 2.867,9.541c-1.159,3.707 -1.658,7.746 -1.21,9.158c0.775,2.403 1.238,2.548 8.709,1.832c6.703,-0.702 7.767,-1.26 8.144,-3.685c0.239,-1.578 2.36,-9.179 4.75,-16.823l4.3,-14.167l-3.062,0.442c-2.222,0.195 -3.54,1.563 -5.27,5.472c-4.757,10.337 -5.872,12.277 -7.146,11.879c-0.81,-0.253 -0.21,-2.99 1.839,-8.325c1.76,-4.408 2.73,-7.919 2.346,-7.912c-19.842,2.062 -18.127,1.454 -21.428,7.542c-1.708,3.026 -3.815,7.326 -4.619,9.491c-0.919,2.128 -2.193,3.764 -2.773,3.583c-1.621,-0.507 0.051,-7.485 3.208,-13.11c1.448,-2.599 2.519,-4.807 2.288,-4.879c-1.622,-0.507 -7.196,1.056 -8.362,2.345c-2.4393,2.924 -9.0423,23.237 -8.7746,27.262z"/>
   <path fill="#E8E8E8" d="m155.32068,248.928c0.246,0.84 1.39,2.469 2.447,3.562c3.952,4.032 2.989,7.927 -6.35,25.604c-9.231,17.33 -11.656,23.056 -10.281,24.757c1.253,1.282 11.025,0.522 12.263,-0.998c0.485,-0.738 5.459,-9.736 11.099,-20.052c9.158,-17.098 10.316,-18.77 12.93,-18.589c1.498,0.087 3.561,-0.413 4.662,-1.086c2.389,-1.542 1.383,-4.018 -5.183,-12.299l-5.031,-6.277l-8.31,0.962c-8.195,0.999 -9.107,1.477 -8.246,4.416z"/>
   <path fill="#E8E8E8" d="m190.71768,145.439c-0.218,2.729 -2.187,10.25 -4.562,16.628l-4.119,11.553l3.026,-0.325c3.33,-0.485 4.416,-1.926 8.651,-11.409c2.686,-6.153 4.807,-7.651 5.031,-3.894c0.058,1.035 -1.26,4.437 -2.889,7.615c-1.78,3.258 -3.033,6.045 -2.99,6.313c0.514,0.796 18.467,-1.73 19.561,-2.787c0.68,-0.55 3.019,-4.777 5.198,-9.309c4.394,-9.179 5.147,-9.961 6.421,-7.528c0.637,1.216 -0.311,3.844 -3.316,9.389c-2.338,4.227 -4.076,7.753 -3.844,7.825c0.232,0.073 2.222,-0.195 4.249,-0.579c2.795,-0.398 4.344,-1.694 5.937,-4.756c3.402,-6.819 7.428,-21.326 6.972,-25.155l-0.412,-3.562l-8.579,1.006c-6.472,0.774 -8.643,1.621 -8.882,3.199c-0.131,1.231 -1.115,6.009 -2.144,10.519c-1.6,6.746 -2.411,8.527 -4.199,9.367c-3.352,1.368 -4.466,-0.761 -2.946,-5.625c1.448,-4.633 2.245,-13.284 1.565,-14.768c-0.514,-0.796 -14.587,-0.109 -16.412,0.846c-0.456,0.239 -1.1,2.708 -1.317,5.437z"/>
   <path fill="#E8E8E8" d="m177.14068,223.454c0.869,1.289 3.352,4.735 5.668,7.493l4.206,5.256l7.087,-0.709c8.506,-0.774 11.575,-2.866 8.984,-5.965c-3.605,-3.924 -4.785,-7.471 -3.771,-10.714c0.579,-1.853 5.314,-11.307 10.389,-21.036c11.011,-20.588 11.106,-21.703 2.209,-21.305l-5.596,0.413l-8.015,14.658c-14.32,26.292 -13.234,24.852 -17.527,25.163c-4.329,0.427 -5.813,3.141 -3.634,6.746z"/>
   <path fill="#E8E8E8" d="m165.40268,299.247c0.716,1.368 2.258,1.723 6.283,1.455c2.874,-0.246 5.48,-0.448 5.748,-0.492c1.144,-0.405 25.078,-44.034 25.158,-45.916c0.13,-1.231 -1.969,-4.684 -4.712,-7.703c-4.59,-5.248 -4.937,-5.357 -9.186,-4.778c-7.196,1.057 -7.138,4.126 0.397,12.965c8.006,9.368 7.441,11.989 -2.86,13.219c-6.855,0.781 -6.631,0.47 -13.704,14.152c-2.701,5.385 -5.741,11.046 -6.596,12.559c-0.738,1.549 -1.006,3.627 -0.528,4.539z"/>
   <path fill="#E8E8E8" d="m210.57068,223.478c3.771,6.645 8.013,9.751 12.371,8.825c6.421,-1.426 6.364,-4.496 -0.274,-12.546c-3.222,-3.931 -5.987,-8.101 -6.081,-9.02c-0.123,-2.454 2.693,-3.735 9.433,-4.553c3.33,-0.485 5.994,-1.686 6.776,-2.968c0.782,-1.281 4.156,-7.601 7.602,-14.152c5.299,-10.04 6.139,-12.32 5.263,-13.993c-0.876,-1.672 -1.918,-1.998 -6.247,-1.571c-2.758,0.282 -5.249,0.521 -5.401,0.601c-0.419,0.123 -25.469,43.658 -25.758,44.584c-0.073,0.232 0.926,2.324 2.316,4.793z"/>
   <path fill="#E8E8E8" d="m177.85968,328.95c-0.507,3.655 -0.63,7.304 -0.232,8.064c0.398,0.76 4.126,1.035 9.375,0.515c8.274,-0.847 8.73,-1.086 8.672,-4.155c0.044,-1.767 1.173,-7.008 2.549,-11.409c2.28,-7.297 2.766,-8.035 4.85,-7.384c1.738,0.543 2.179,1.571 1.462,4.271c-0.984,4.778 -2.223,16.469 -1.528,16.686c0.232,0.073 4.257,-0.195 8.97,-0.629c7.97,-0.687 8.426,-0.926 8.484,-3.959c0.043,-1.767 2.049,-9.404 4.402,-16.932c2.317,-7.413 3.888,-13.66 3.309,-13.841c-0.463,-0.145 -2.179,0.463 -3.699,1.259c-2.129,1.115 -4.033,3.952 -6.386,9.447c-1.759,4.408 -3.844,7.825 -4.423,7.644c-1.853,-0.579 -1.259,-3.699 1.846,-9.975c3.548,-7.283 3.78,-7.21 -9.54,-5.271l-7.312,1.021l-4.402,8.795c-4.887,9.534 -5.372,10.272 -6.646,7.839c-0.637,-1.216 -0.021,-3.185 2.281,-7.296c5.162,-9.194 5.017,-10.765 -0.962,-8.311c-3.808,1.607 -9.376,13.725 -11.07,23.621z"/>
   <path fill="#E8E8E8" d="m209.73768,246.483c1.491,1.738 2.736,4.67 2.576,6.4c-0.079,1.882 -4.467,11.445 -10.135,22.26c-5.445,10.503 -9.803,19.567 -9.673,20.37c0.536,1.947 4.467,2.795 8.904,2.02c2.295,-0.427 4.09,-0.883 4.163,-1.114c0.47,-1.506 20.894,-37.969 21.502,-38.287c0.34,-0.275 2.099,-0.615 3.706,-0.876c5.241,-0.904 4.945,-4.43 -1.15,-12.183l-5.625,-7.225l-7.695,1.027c-4.286,0.695 -8.101,1.918 -8.622,2.773c-0.442,1.006 0.442,3.062 2.049,4.835z"/>
   <path fill="#E8E8E8" d="m242.83968,141.388c-0.218,2.729 -2.158,9.751 -4.2,15.469c-2.193,5.799 -3.598,10.7 -3.135,10.844c3.012,0.942 6.219,-1.997 8.492,-7.644c3.446,-8.585 4.974,-11.032 6.48,-10.561c0.81,0.253 0.246,2.874 -2.1,8.752l-3.258,8.39l9.729,-1.028l9.578,-0.948l2.968,-5.429c1.708,-3.026 3.743,-7.094 4.547,-9.258c0.919,-2.129 2.381,-3.96 3.38,-3.902c1.535,-0.029 1.253,1.281 -1.209,7.123c-1.614,3.945 -3.685,8.129 -4.51,9.143c-1.426,1.715 -1.195,1.788 2.591,1.064c5.205,-0.789 6.291,-2.229 10.534,-13.363c3.844,-9.859 4.996,-20.052 2.39,-19.849c-0.92,0.094 -4.945,0.361 -9.122,0.709l-7.586,0.68l-0.341,4.343c-0.224,2.346 -1.318,7.471 -2.512,11.293c-2.064,6.602 -2.288,6.913 -5.068,6.045c-2.78,-0.869 -2.787,-1.253 -0.941,-9.194c1.065,-4.626 1.709,-9.129 1.463,-9.968c-0.535,-1.948 -17.171,-0.79 -17.634,1.099c-0.066,0.616 -0.435,3.424 -0.536,6.19z"/>
   <path fill="#E8E8E8" d="m228.17668,214.741c0.072,1.802 10.105,14.855 11.843,15.398c2.895,0.905 15.976,-1.491 16.447,-2.996c0.29,-0.927 -0.673,-3.135 -2.201,-4.757c-4.936,-5.357 -4.437,-7.362 5.532,-26.241c13.162,-24.62 13.474,-26.429 3.976,-25.33c-5.973,0.804 -4.698,-0.832 -16.977,21.775c-9.05,16.751 -9.875,17.764 -13.357,18.329c-4.322,0.81 -5.306,1.52 -5.263,3.822z"/>
   <path fill="#E8E8E8" d="m218.38568,294.066c0.782,0.753 3.743,1.043 6.349,0.841l4.944,-0.362l11.489,-19.676c6.321,-10.865 12.105,-21.644 12.865,-24.076c1.347,-3.902 1.029,-4.51 -3.829,-9.715c-4.936,-5.358 -5.516,-5.539 -9.113,-5.01c-7.536,1.331 -7.218,3.974 1.744,15.166c5.971,7.333 5.059,9.845 -4.055,10.938l-6.971,0.745l-7.073,13.682c-8.37,16.201 -8.297,15.969 -6.35,17.467z"/>
   <path fill="#E8E8E8" d="m263.96668,219.824c4.922,6.624 6.862,7.739 11.72,6.842c6.312,-1.079 6.102,-4.069 -0.535,-12.119c-8.564,-10.432 -7.999,-13.052 2.997,-14.065l5.748,-0.492l6.335,-12.133c10.121,-18.958 10.193,-21.224 0.471,-19.813l-5.053,0.709l-12.039,21.029c-6.538,11.561 -12.329,21.956 -12.655,22.998c-0.362,1.159 0.962,4.242 3.011,7.044z"/>
   <path fill="#E8E8E8" d="m229.68468,325.442c-0.218,2.729 -0.051,5.451 0.347,6.211c0.796,1.52 18.489,-0.579 17.997,-2.258c-0.131,-0.804 0.072,-4.3 0.543,-7.84c0.963,-7.963 3.975,-13.124 7.102,-12.147c1.853,0.579 1.954,1.882 0.586,8.702c-2.542,11.792 -2.267,12.132 7.043,11.228c4.329,-0.427 8.007,-0.803 8.311,-0.963c0.267,-0.043 1.259,-4.437 2.237,-9.599c1.014,-5.277 3.063,-12.646 4.757,-16.439c2.867,-6.733 2.975,-7.08 0.442,-7.109c-4.069,0 -4.481,0.506 -8.08,9.171c-1.911,4.488 -3.989,8.289 -4.676,8.455c-2.216,0.579 -1.383,-4.119 1.723,-10.395l3.222,-6.24l-9.961,0.955l-9.846,0.992l-3.344,5.82c-1.781,3.257 -3.888,7.557 -4.54,9.642c-0.912,2.512 -1.737,3.525 -2.671,2.852c-1.477,-0.97 0.109,-6.45 3.815,-13.428l2.52,-4.807l-4.054,0.767c-3.482,0.565 -4.459,1.658 -7.609,7.666c-4.148,7.985 -5.343,11.807 -5.864,18.764z"/>
   <path fill="#E8E8E8" d="m262.22068,241.274c1.492,1.737 2.773,4.553 2.686,6.052c-0.123,1.614 -4.474,11.061 -9.702,20.87c-5.263,9.924 -9.817,18.799 -10.179,19.958c-0.941,3.011 2.042,4.452 7.594,3.771l5.017,-0.593l9.715,-18.068c12.199,-22.76 11.113,-21.319 15.906,-21.601c5.711,-0.376 5.502,-3.366 -1.223,-11.952l-5.704,-7.377l-7.471,0.716c-8.962,1.014 -10.989,3.431 -6.639,8.224z"/>
   <path fill="#E8E8E8" d="m286.48268,162.021c0.232,0.073 1.803,-0.072 3.641,-0.26c3.33,-0.485 3.555,-0.796 9.694,-15.151c0.514,-1.238 1.723,-2.259 2.722,-2.201c1.535,-0.029 1.216,1.397 -1.499,8.05c-1.759,4.408 -3.033,8.079 -2.801,8.151c0.115,0.036 4.408,-0.275 9.389,-0.752c8.81,-0.934 8.962,-1.013 12.089,-6.139c1.636,-2.794 3.743,-7.094 4.503,-9.526c1.057,-2.975 2.035,-4.068 3.193,-3.706c2.085,0.651 0.615,6.167 -3.265,12.074c-3.055,4.894 -3.005,5.545 1.288,5.234c5.328,-0.369 12.459,-15.049 13.227,-27.269c0.174,-2.997 -0.029,-5.603 -0.492,-5.748c-0.347,-0.108 -4.604,0.087 -9.548,0.449c-6.552,0.622 -8.803,1.317 -8.622,2.772c0.058,1.035 -0.21,5.147 -0.638,8.955c-0.999,8.078 -4.17,12.936 -7.427,11.155c-1.434,-0.703 -1.47,-2.621 -0.203,-8.709c1.369,-6.819 1.767,-12.162 0.841,-12.451c-0.464,-0.145 -15.63,1.599 -16.202,1.802c-0.188,0.195 -0.955,4.278 -1.745,9.244c-0.963,5.929 -2.7,11.488 -4.872,16.403c-1.955,4.221 -3.389,7.587 -3.273,7.623z"/>
   <path fill="#E8E8E8" d="m283.99068,215.149c7.325,9.918 7.325,9.918 15.752,8.991c8.346,-1.078 10.489,-3.459 6.573,-7.608c-4.655,-4.633 -3.909,-7.832 6.249,-26.907c5.154,-9.577 9.708,-18.452 10.179,-19.958c1.086,-3.475 -1.557,-5.19 -7.377,-4.467l-4.901,0.63l-10.164,18.691c-5.524,10.351 -10.462,19.234 -10.947,19.972c-0.564,0.586 -2.664,1.202 -4.734,1.317c-5.256,0.138 -5.473,2.867 -0.63,9.339z"/>
   <path fill="#E8E8E8" d="m270.75368,288.821c0.702,0.601 3.699,0.774 6.493,0.376l5.169,-0.673l11.743,-20.486c6.465,-11.329 12.177,-21.876 12.836,-23.577c0.796,-2.548 0,-4.068 -4.271,-8.709c-4.741,-5.169 -5.711,-5.726 -9.121,-5.393c-4.445,0.39 -6.551,2.656 -5.306,5.588c0.521,1.18 3.322,5.234 6.232,8.941c3.46,4.387 4.973,7.275 4.343,8.477c-0.557,0.97 -4.025,2.302 -7.775,2.91l-6.812,1.049l-6.595,12.559c-7.899,14.695 -8.883,17.439 -6.936,18.938z"/>
   <path fill="#E8E8E8" d="m314.32268,211.661c0.868,1.288 3.149,4.162 5.031,6.276c3.293,3.7 3.757,3.844 7.506,3.236c7.956,-1.454 7.87,-4.024 -0.252,-13.428c-7.731,-9.028 -7.203,-11.532 2.563,-12.676l6.971,-0.745l7.225,-13.761c9.304,-17.562 9.195,-19.249 -0.766,-18.294l-4.481,0.507l-11.888,20.949c-6.501,11.445 -12.213,21.992 -12.611,23.266c-0.398,1.274 -0.051,3.417 0.702,4.67z"/>
   <path fill="#E8E8E8" d="m281.74068,322.005c-0.108,2.382 -0.029,4.568 0.015,4.836c0.195,0.188 4.488,-0.123 9.505,-0.716l9.23,-1.057l0.159,-5.798c0.015,-7.37 2.006,-13.74 4.96,-15.868c3.822,-2.874 5.436,1.318 3.192,8.499c-0.898,3.279 -1.586,7.514 -1.282,9.389l0.449,3.446l8.346,-1.079l8.195,-0.998l0.746,-5.234c0.253,-2.845 2.302,-10.214 4.257,-16.469c2.035,-6.102 3.396,-11.271 2.933,-11.416c-0.464,-0.145 -1.955,0.152 -3.367,0.601c-1.983,0.651 -3.475,2.982 -5.856,8.976c-2.339,6.262 -3.534,8.05 -4.923,7.615c-1.39,-0.434 -1.188,-1.896 1.455,-8.317l3.193,-7.775l-9.693,0.912l-9.657,0.796l-3.845,7.825c-2.222,4.264 -4.293,8.448 -4.546,9.258c-0.37,0.775 -1.282,1.253 -1.825,0.956c-1.39,-0.434 1.029,-8.578 3.888,-13.66c1.933,-3.337 1.97,-3.453 -1.751,-3.345c-3.106,0.174 -4.163,1.115 -6.689,5.538c-3.714,6.595 -7.009,17.135 -7.089,23.085z"/>
   <path fill="#E8E8E8" d="m312.57668,233.11c0.753,1.253 1.658,2.426 2.237,2.607c0.579,0.181 1.346,2.2 1.809,4.379c0.724,3.786 0.138,5.256 -8.543,21.232c-10.382,19.386 -11.772,23.02 -9.745,24.671c0.818,0.637 3.851,0.695 6.646,0.297l5.241,-0.905l10.309,-19.154c10.273,-19.038 10.346,-19.27 14.856,-20.276c2.483,-0.623 4.691,-1.585 4.872,-2.164c0.434,-1.39 -4.864,-9.658 -9.012,-13.878c-2.975,-3.091 -3.359,-3.084 -10.41,-2.491c-8.122,0.767 -10.055,2.07 -8.26,5.682z"/>
   <path fill="#E8E8E8" d="m347.55368,127.711c0.007,2.418 -2.078,9.903 -4.409,16.548l-4.185,12.169l2.91,-0.362c3.562,-0.412 4.763,-1.817 8.398,-10.598c2.903,-6.848 4.865,-8.65 5.096,-4.509c0.058,1.035 -1.216,4.705 -2.881,7.999c-1.781,3.257 -3.034,6.044 -2.802,6.117c0.927,0.289 17.048,-1.665 18.344,-2.15c0.76,-0.398 3.598,-4.596 6.117,-9.403c2.52,-4.807 5.061,-8.462 5.684,-8.013c1.245,0.897 -0.276,5.762 -3.686,12.197l-2.483,4.691l3.989,-0.152c3.453,-0.065 4.17,-0.731 6.827,-6.384c4.17,-8.868 6.508,-17.164 6.328,-22.687l-0.087,-4.604l-9.194,0.94c-8.079,1.035 -9.107,1.477 -9.063,3.779c0.144,1.571 -1.065,6.66 -2.549,11.408c-2.462,7.876 -2.947,8.615 -5.032,7.963c-1.969,-0.615 -2.106,-1.802 -0.839,-7.89c1.868,-8.825 1.832,-12.777 0.059,-13.205c-0.811,-0.253 -4.757,0.167 -8.854,0.666l-7.463,1.1l-0.225,4.38z"/>
   <path fill="#E8E8E8" d="m333.79568,206.305c0.869,1.289 3.467,4.771 5.748,7.645l4.321,5.292l8.007,-0.804c8.81,-0.933 11.256,-3.474 6.964,-7.231c-5.038,-4.626 -4.546,-7.015 6.683,-28.297c5.669,-10.815 10.136,-20.226 9.889,-21.066c-0.166,-0.688 -1.375,-1.701 -2.649,-2.099c-2.316,-0.724 -10.091,0.151 -10.453,1.31c-0.29,0.926 -18.577,34.623 -19.808,36.527c-0.71,1.05 -2.802,2.049 -4.793,2.316c-4.401,0.659 -5.929,3.106 -3.909,6.407z"/>
   <path fill="#E8E8E8" d="m322.47768,281.975c0.651,1.983 1.23,2.164 6.175,1.803c3.105,-0.174 6.081,-1.151 6.638,-2.121c5.3,-8.006 24.297,-42.753 24.304,-44.404c-0.109,-3.721 -8.325,-12.01 -12.284,-12.357c-4.076,-0.384 -7.189,1.44 -7.102,4.01c0.058,1.035 2.512,4.98 5.537,8.723c5.111,6.429 6.718,10.237 4.98,11.728c-0.492,0.354 -3.778,1.107 -7.492,1.599c-6.356,0.811 -6.848,1.165 -9.628,6.399c-10.129,18.575 -11.859,22.484 -11.128,24.62z"/>
   <path fill="#E8E8E8" d="m369.62968,209.622c4.828,5.705 5.798,6.262 10.699,5.633c5.936,-0.688 5.668,-4.713 -1.086,-12.799c-7.579,-9.107 -6.97,-11.46 2.824,-13.103l6.696,-1.085l7.298,-13.993c8.818,-16.823 8.717,-18.127 0.088,-17.772l-5.596,0.412l-11.518,20.175c-14.936,26.227 -14.9,26.111 -9.405,32.532z"/>
   <path fill="#E8E8E8" d="m334.00768,317.49l0,4.069l9.23,-1.057c7.89,-0.839 9.186,-1.324 9.143,-3.626c0.058,-5.068 3.613,-18.069 5.314,-19.444c3.178,-2.44 5.292,1.781 3.75,7.529c-1.977,7.137 -2.592,13.175 -1.318,13.573c0.579,0.181 4.604,-0.087 8.933,-0.514c7.775,-0.875 7.927,-0.955 8.238,-4.799c0.152,-2.114 2.122,-9.635 4.446,-16.664l4.054,-12.972l-2.91,0.362c-3.178,0.405 -4.228,1.729 -8.499,11.328c-4.163,9.252 -5.886,7.442 -2.23,-2.222c1.644,-4.445 2.882,-7.999 2.766,-8.035c-1.853,-0.58 -18.344,2.149 -19.437,3.206c-0.869,0.745 -3.055,4.893 -4.858,9.034c-2.541,5.69 -3.888,7.557 -5.162,7.159c-1.853,-0.579 0.283,-7.413 4.163,-13.32c2.389,-3.576 2.389,-3.576 -2.128,-2.953c-2.222,0.195 -4.343,1.693 -5.871,4.14c-3.019,4.778 -7.645,19.987 -7.624,25.206z"/>
   <path fill="#E8E8E8" d="m366.82668,229.978c3.684,6.11 3.069,8.079 -8.645,30.1c-10.57,19.581 -10.657,21.08 -2.107,20.574c6.442,-0.275 4.531,2.179 19.257,-25.003c7.869,-14.196 8.318,-14.819 11.996,-15.195c5.748,-0.492 5.487,-4.133 -0.731,-12.306l-5.465,-6.921l-6.515,0.506c-7.051,0.594 -10.07,1.303 -10.468,2.577c-0.145,0.463 1.093,3.011 2.678,5.668z"/>
   <path fill="#E8E8E8" d="m399.67568,123.659c0.007,2.418 -2.006,9.671 -4.381,16.049l-4.271,11.633l3.062,-0.441c2.49,-0.239 3.844,-1.723 6.581,-7.225c1.925,-3.721 3.772,-7.593 4.097,-8.636c0.326,-1.042 1.267,-2.02 2.107,-2.266c1.108,-0.289 0.615,2.1 -1.535,8.166l-3.178,8.542l9.425,-0.868c8.926,-0.897 9.498,-1.1 12.14,-5.487c1.564,-2.562 3.483,-6.667 4.279,-9.215c1.448,-4.633 3.83,-6.559 5.183,-3.974c0.478,0.912 -0.876,4.43 -3.359,9.121l-4.076,7.753l3.489,-0.181c1.919,-0.036 4.09,-0.883 4.88,-1.781c2.287,-2.844 7.768,-17.532 8.622,-23.114c1.333,-8.737 1.058,-9.077 -9.012,-7.775c-7.391,0.869 -8.955,1.397 -8.803,3.351c0.138,1.188 -0.616,6.038 -1.759,10.512c-1.456,6.283 -2.412,8.527 -4.011,9.171c-3.504,1.448 -4.445,-1.643 -2.592,-9.201c0.884,-4.046 1.528,-8.549 1.195,-9.924c-0.506,-2.447 -0.854,-2.556 -8.665,-1.564c-4.517,0.622 -8.491,1.541 -8.752,1.968c-0.297,0.543 -0.673,2.968 -0.666,5.386z"/>
   <path fill="#E8E8E8" d="m390.13068,205.858c3.026,3.743 6.08,6.986 6.659,7.167c0.695,0.218 4.452,-0.007 8.514,-0.39c7.543,-0.948 9.729,-3.062 6.559,-6.341c-5.907,-5.915 -5.516,-7.573 7.16,-31.454c10.788,-20.276 10.802,-21.543 1.833,-20.914c-6.132,0.5 -4.372,-1.875 -19.098,25.308c-7.754,14.231 -8.318,14.818 -11.88,15.23c-5.864,0.456 -5.726,3.677 0.253,11.394z"/>
   <path fill="#E8E8E8" d="m375.04068,276.917c1.6,1.39 9.969,1.463 11.402,0.131c1.889,-1.571 23.203,-39.662 24.434,-43.6c1.122,-3.591 0.76,-4.467 -3.822,-9.332c-4.466,-4.828 -5.357,-5.234 -8.846,-5.053c-6.667,0.586 -6.667,4.654 0.057,13.24c7.044,9.194 6.472,11.431 -3.207,13.11l-6.617,1.238l-7.008,13.066c-8.34,15.701 -8.34,15.701 -6.393,17.2z"/>
   <path fill="#E8E8E8" d="m420.62168,202.675c4.922,6.624 6.862,7.739 11.72,6.842c6.313,-1.079 6.103,-4.069 -0.535,-12.119c-8.679,-10.468 -8.115,-13.088 2.925,-13.834c3.221,-0.137 5.828,-0.34 5.864,-0.455c0.036,-0.116 3.482,-6.667 7.558,-14.42c6.451,-12.097 7.443,-14.456 6.487,-16.281c-0.955,-1.824 -1.882,-2.114 -6.399,-1.491c-2.91,0.361 -5.886,1.339 -6.443,2.309c-2.092,3.033 -24.116,42.174 -24.478,43.332c-0.181,0.579 1.253,3.315 3.301,6.117z"/>
   <path fill="#E8E8E8" d="m386.62268,306.982c-0.399,3.308 -0.413,6.609 -0.015,7.369c0.477,0.912 4.09,1.151 9.49,0.551c8.122,-0.767 8.731,-1.086 8.752,-4.003c0.044,-1.767 1.137,-6.892 2.513,-11.293c2.281,-7.297 2.766,-8.035 4.85,-7.384c1.854,0.579 2.027,1.651 1.216,5.466c-1.144,4.473 -2.092,15.238 -1.397,15.455c0.231,0.073 4.292,-0.311 8.925,-0.897l8.731,-1.086l0.065,-4.683c0.181,-2.614 2.151,-10.135 4.41,-16.549c2.295,-6.529 3.844,-11.893 3.497,-12.002c-3.707,-1.158 -9.187,5.393 -12.127,14.391c-0.977,3.127 -1.802,4.141 -2.736,3.467c-1.361,-0.934 0.073,-6.334 3.33,-12.69l2.035,-4.068l-9.997,1.071l-10.15,1.15l-4.626,9.107c-5.22,10.192 -5.444,10.504 -6.718,8.071c-0.637,-1.216 0.051,-3.417 2.722,-8.303c2.042,-3.684 3.475,-7.051 3.316,-7.355c-0.123,-0.419 -1.853,-0.579 -3.54,-0.47c-2.722,0.166 -3.779,1.107 -5.806,5.559c-5.017,10.764 -5.929,13.276 -6.74,19.126z"/>
   <path fill="#E8E8E8" d="m418.87668,224.124c1.491,1.738 2.772,4.554 2.613,6.284c-0.044,1.766 -4.692,11.756 -10.288,22.339c-7.189,13.646 -9.803,19.567 -9.166,20.783c0.956,1.825 10.786,2.1 12.249,0.269c0.601,-0.702 5.502,-9.469 10.953,-19.589c7.313,-13.225 10.708,-18.394 12.387,-18.886c8.521,-2.041 8.572,-3.424 0.986,-12.915l-5.466,-6.92l-7.89,0.839c-9.078,0.977 -10.729,3.004 -6.378,7.796z"/>
   <path fill="#E8E8E8" d="m451.61568,120.186c-0.217,2.73 -2.049,9.404 -4.134,14.855c-3.547,9.316 -3.692,9.78 -1.311,9.888c3.497,0.203 4.134,-0.615 7.993,-9.707c2.165,-5.299 3.88,-7.941 5.031,-7.963c1.535,-0.029 1.18,1.513 -1.607,8.398l-3.33,8.621l3.518,-0.68c1.991,-0.268 6.356,-0.811 9.765,-1.143c5.784,-0.608 6.241,-0.847 9.245,-6.392c1.745,-3.142 3.779,-7.21 4.474,-9.027c0.811,-1.781 2.201,-3.381 3.2,-3.323c1.535,-0.029 1.252,1.282 -1.209,7.124c-1.615,3.945 -3.685,8.129 -4.511,9.142c-1.426,1.716 -1.194,1.788 2.592,1.065c4.705,-0.818 8.709,-6.305 11.786,-16.15c1.919,-6.139 2.983,-16.867 1.709,-17.265c-0.347,-0.109 -4.372,0.159 -8.969,0.629c-7.739,0.76 -8.347,1.078 -8.6,3.923c-1.058,13.146 -3.99,20.494 -7.812,19.299c-2.548,-0.796 -2.584,-2.715 -0.275,-12.545c0.818,-3.431 1.137,-6.892 0.739,-7.652c-0.434,-0.644 -4.394,-0.992 -8.991,-0.521c-8.622,0.738 -8.81,0.933 -9.303,9.424z"/>
   <path fill="#E8E8E8" d="m440.64568,197.999c7.521,10.107 7.405,10.07 16.208,8.753c4.249,-0.579 8.144,-1.65 8.629,-2.388c0.449,-0.623 -0.471,-2.563 -2.078,-4.337c-4.9,-5.473 -4.553,-7.398 5.641,-26.589c5.154,-9.577 9.665,-18.719 10.208,-20.457c1.267,-4.054 -1.064,-5.545 -7.109,-4.51l-5.053,0.709l-10.497,19.35c-10.273,19.038 -10.498,19.349 -15.008,20.355c-2.367,0.659 -4.575,1.622 -4.792,2.317c-0.181,0.579 1.527,3.656 3.851,6.797z"/>
   <path fill="#E8E8E8" d="m427.09768,271.446c0.55,0.681 3.475,1.086 6.465,0.877l5.443,-0.333l11.852,-20.834c6.465,-11.329 12.249,-22.107 12.792,-23.845c0.797,-2.548 0.001,-4.068 -4.27,-8.709c-4.937,-5.357 -5.285,-5.465 -9.15,-4.894c-7.688,1.412 -7.616,3.214 0.875,13.878c6.841,8.622 6.232,10.975 -3.15,12.111l-6.971,0.745l-6.928,13.218c-7.892,15.079 -8.369,16.201 -6.958,17.786z"/>
   <path fill="#E8E8E8" d="m470.97768,194.511c0.868,1.289 3.149,4.163 5.147,6.313c3.452,4.003 3.452,4.003 7.962,2.997c6.878,-1.664 7.066,-3.894 0.906,-11.032c-9.418,-10.953 -9.237,-13.566 0.913,-14.717l7.007,-0.861l6.675,-12.408c3.555,-6.898 6.958,-13.717 7.392,-15.107c1.086,-3.475 -1.592,-5.075 -7.261,-4.431l-4.901,0.63l-12.112,21.26c-6.573,11.677 -12.249,22.108 -12.575,23.15c-0.326,1.043 0.094,2.954 0.847,4.206z"/>
   <path fill="#E8E8E8" d="m438.69268,304.313c0.073,5.87 0.652,6.051 11.373,4.698c7.007,-0.861 7.311,-1.02 7.094,-4.394c-0.376,-5.711 3.498,-18.104 5.981,-18.727c3.323,-0.868 4.307,2.491 2.461,8.398c-0.941,3.011 -1.629,7.246 -1.55,9.432l0.072,3.837l8.47,-0.659l8.506,-0.774l1.065,-6.66c1.165,-7.391 5.553,-21.022 8.087,-25.061c1.527,-2.447 1.448,-2.599 -2.454,-1.911c-4.054,0.767 -4.279,1.078 -10.563,15.896c-0.514,1.238 -1.498,1.948 -2.005,1.535c-0.659,-0.333 0.152,-4.148 1.68,-8.629l2.729,-7.92l-8.846,1.05c-4.901,0.629 -9.302,1.288 -9.91,1.606c-0.608,0.319 -3.026,4.394 -5.321,8.89c-2.332,4.611 -4.837,8.151 -5.38,7.854c-1.353,-0.55 0.522,-6.957 3.715,-12.697l2.302,-4.112l-3.902,0.688c-2.143,0.347 -4.648,1.853 -5.545,3.098c-3.432,5.284 -8.152,19.574 -8.059,24.562z"/>
   <path fill="#E8E8E8" d="m470.49168,217.626c1.129,0.861 2.591,3.098 3.163,4.93c0.905,3.207 0.282,4.792 -9.651,23.555c-12.04,23.064 -12.141,23.795 -3.056,23.202l5.676,-0.261l10.606,-19.697l10.49,-19.733l4.25,-0.579c2.41,-0.391 4.582,-1.238 4.835,-2.049c0.543,-1.737 -4.401,-9.512 -8.823,-14.073c-2.896,-2.939 -3.243,-3.048 -10.598,-2.295c-8.079,1.035 -11.055,4.046 -6.892,7z"/>
   <path fill="#E8E8E8" d="m495.96968,139.77c0.579,0.181 2.374,-0.275 4.126,-0.998c2.44,-0.891 3.822,-2.874 6.501,-9.411c2.455,-6.225 3.765,-7.977 5.039,-7.579c1.39,0.434 1.187,1.897 -1.644,8.513c-1.759,4.409 -2.845,7.883 -2.194,7.833c0.5,0.029 4.981,-0.478 9.694,-0.912l8.694,-0.97l4.141,-8.368c5.582,-11.351 5.995,-11.857 7.109,-9.729c0.717,1.368 0.029,3.569 -2.744,9.186c-2.15,4.032 -3.772,7.594 -3.612,7.898c0.195,0.188 1.846,0.196 3.684,0.008c2.91,-0.362 3.924,-1.571 7.254,-8.159c3.888,-7.557 6.176,-16.505 5.793,-22.6l-0.174,-3.105l-9.382,1.136c-6.971,0.745 -9.259,1.556 -9.23,3.09c0.174,1.072 -0.065,4.684 -0.5,8.108c-1.006,7.695 -3.982,12.741 -7.109,11.763c-1.853,-0.579 -1.955,-1.882 -0.543,-8.433c2.708,-13.139 2.708,-13.139 -9.7,-11.677l-5.9,0.571l-0.774,5.734c-0.992,6.428 -5.626,21.253 -8.008,25.213c-0.934,1.361 -1.1,2.707 -0.521,2.888z"/>
   <path fill="#E8E8E8" d="m490.45068,189.155c0.869,1.289 3.467,4.771 5.863,7.681l4.286,5.408l7.89,-0.839c8.81,-0.934 11.294,-3.59 7.037,-7.463c-4.879,-4.322 -4.097,-7.638 7.023,-28.573c11.635,-22.173 11.772,-23.02 2.76,-22.658l-5.444,0.333l-10.498,19.349c-10.461,19.234 -10.686,19.545 -15.044,20.472c-4.93,1.129 -5.972,2.837 -3.873,6.29z"/>
   <path fill="#E8E8E8" d="m479.89268,266.461c0.818,0.637 3.699,0.775 6.646,0.297l5.125,-0.941l12.257,-21.724c6.762,-11.871 12.314,-22.723 12.293,-23.874c-0.044,-2.302 -7.434,-11.604 -9.751,-12.328c-2.78,-0.869 -9.266,1.172 -9.461,3.018c-0.095,1.115 2.33,5.56 5.595,9.759c7.398,9.686 6.978,11.843 -2.44,13.095l-6.776,0.934l-6.487,12.212c-7.674,14.383 -8.948,18.054 -7.001,19.552z"/>
   <path fill="#E8E8E8" d="m526.71868,193.117c4.198,4.872 5.328,5.733 8.202,5.487c4.213,-0.463 7.058,-2.243 6.863,-4.466c0.057,-0.999 -2.744,-5.053 -5.965,-8.984c-7.499,-8.955 -6.971,-11.46 2.831,-12.719l6.776,-0.933l7.37,-14.225c6.298,-12.017 7.211,-14.529 6.335,-16.201c-0.992,-1.708 -2.07,-1.918 -6.551,-1.412l-5.401,0.601l-11.627,20.522c-6.465,11.329 -12.177,21.876 -12.684,23.498c-0.76,2.432 0.08,4.22 3.851,8.832z"/>
   <path fill="#E8E8E8" d="m490.92368,299.914l0.05,4.72l9.346,-1.021l9.346,-1.02l-0.203,-4.64c-0.238,-6.559 2.803,-16.288 5.582,-17.454c3.924,-1.57 5.032,2.209 2.715,9.621c-1.159,3.707 -1.658,7.746 -1.21,9.158c0.775,2.403 1.238,2.548 8.709,1.832c6.703,-0.702 7.883,-1.223 8.144,-3.685c0.355,-1.542 2.36,-9.179 4.75,-16.823l4.148,-14.087l-2.91,0.362c-2.91,0.361 -4.553,2.772 -8.615,13.326c-0.919,2.129 -2.382,3.96 -3.381,3.902c-1.419,0.065 -1.18,-1.513 1.383,-8.086c2.31,-5.762 2.802,-8.151 1.767,-8.093c-16.976,1.432 -17.7,1.715 -20.813,7.607c-1.708,3.026 -3.815,7.326 -4.619,9.49c-0.919,2.129 -2.193,3.765 -2.773,3.584c-1.621,-0.507 0.377,-8.528 3.36,-13.19c1.419,-2.099 2.418,-4.075 2.259,-4.379c-0.159,-0.304 -1.774,-0.428 -3.649,-0.124c-2.374,0.275 -4.112,1.767 -6.16,5.067c-3.613,5.864 -7.226,17.83 -7.226,23.933z"/>
   <path fill="#E8E8E8" d="m522.96768,212.032c4.503,6.748 4.329,7.71 -5.604,26.474c-9.752,18.184 -11.808,23.135 -10.433,24.837c1.252,1.281 11.025,0.521 12.263,-0.999c0.485,-0.738 5.423,-9.62 10.947,-19.972l10.128,-18.575l4.401,-0.659c2.411,-0.391 4.511,-1.006 4.692,-1.585c0.398,-1.274 -2.614,-6.284 -7.565,-12.408l-4.126,-5.104l-8.31,0.963c-4.481,0.506 -8.34,1.461 -8.557,2.156c-0.181,0.58 0.782,2.788 2.164,4.872z"/>
   <path fill="#E8E8E8" d="m556.69168,105.351c0.007,2.417 -2.078,9.903 -4.409,16.548l-4.337,12.248l2.91,-0.361c3.178,-0.406 7.811,-7.094 10.092,-14.391c1.122,-3.591 3.337,-4.17 3.627,-1.028c0.058,1.035 -1.296,4.553 -2.998,7.963c-1.701,3.409 -2.99,6.312 -2.874,6.348c0.116,0.037 4.713,-0.434 10.265,-1.114l9.918,-1.223l4.503,-9.526c2.512,-5.191 5.082,-9.346 5.661,-9.165c2.085,0.652 1.159,4.431 -2.744,11.221c-2.229,3.88 -3.858,7.058 -3.627,7.13c0.232,0.072 2.223,-0.195 4.365,-0.543c3.099,-0.557 4.192,-1.614 6.48,-6.493c4.097,-8.636 6.755,-18.358 6.284,-22.955l-0.383,-4.061l-8.542,0.89c-6.704,0.702 -8.608,1.505 -8.883,3.199c-0.166,1.347 -1.151,6.125 -2.179,10.634c-1.6,6.747 -2.411,8.528 -4.199,9.368c-3.468,1.331 -4.467,-0.761 -2.766,-6.204c1.883,-6.023 2.267,-14.167 0.645,-14.674c-1.389,-0.434 -14.34,0.73 -15.672,1.331c-0.456,0.239 -1.028,2.476 -1.137,4.858z"/>
   <path fill="#E8E8E8" d="m546.78468,188.709c3.026,3.743 6.312,7.058 7.355,7.384c2.895,0.905 15.093,-1.512 15.6,-3.134c0.217,-0.695 -0.948,-3.475 -2.606,-5.9c-3.829,-5.646 -3.684,-6.11 8.478,-28.753c7.892,-15.079 9.217,-18.098 8.377,-19.886c-0.992,-1.708 -1.954,-1.882 -6.515,-1.527l-5.4,0.6l-8.015,14.659c-14.284,26.176 -13.198,24.735 -17.491,25.047c-5.9,0.571 -5.878,3.756 0.217,11.51z"/>
   <path fill="#E8E8E8" d="m531.37668,259.159c0.463,2.179 0.775,2.404 5.987,1.998c2.989,-0.209 5.596,-0.412 5.863,-0.455c1.144,-0.406 25.455,-44.426 25.499,-46.192c0.014,-1.267 -2.237,-4.64 -5.017,-7.543c-4.777,-5.053 -5.089,-5.278 -9.222,-4.663c-6.124,0.883 -6.53,3.808 -1.456,10.352c6.016,7.602 8.209,11.974 6.819,13.574c-0.637,0.818 -3.996,1.802 -7.522,2.099c-4.596,0.47 -6.884,1.281 -7.847,3.141c-0.818,1.397 -3.598,6.631 -6.342,11.749c-2.744,5.118 -5.488,10.236 -6.117,11.438c-0.63,1.201 -0.898,3.279 -0.645,4.502z"/>
   <path fill="#E8E8E8" d="m576.36368,183.969c3.692,6.493 7.623,9.375 12.176,8.637c6.66,-0.97 6.675,-4.271 -0.079,-12.358c-3.221,-3.931 -5.986,-8.1 -6.08,-9.02c-0.123,-2.454 2.693,-3.735 9.317,-4.589c6.203,-0.731 5.566,0.087 14.312,-16.505c5.596,-10.583 6.4,-12.747 5.445,-14.572c-0.876,-1.672 -1.803,-1.961 -6.248,-1.571c-2.758,0.282 -5.248,0.521 -5.4,0.601c-0.42,0.123 -16.919,28.912 -21.705,37.715l-4.04,7.637l2.302,4.025z"/>
   <path fill="#E8E8E8" d="m543.13168,294.363c0.224,1.723 0.564,3.482 0.723,3.786c0.123,0.42 4.228,0.304 8.941,-0.13c8.542,-0.89 8.694,-0.969 8.853,-4.734c0.152,-2.113 1.246,-7.239 2.549,-11.408c2.1,-6.718 2.585,-7.457 4.669,-6.805c1.738,0.543 2.179,1.571 1.463,4.271c-0.985,4.778 -2.224,16.469 -1.529,16.686c0.232,0.073 4.257,-0.195 8.97,-0.629c7.97,-0.687 8.426,-0.926 8.484,-3.959c0.044,-1.767 2.049,-9.404 4.402,-16.933c2.317,-7.412 3.888,-13.66 3.541,-13.768c-2.896,-0.905 -6.059,2.302 -9.752,10.047c-2.215,4.648 -4.409,8.412 -4.872,8.267c-1.622,-0.507 -0.919,-3.974 1.883,-10.091c1.585,-3.446 2.49,-6.341 2.027,-6.486c-0.463,-0.145 -4.756,0.166 -9.389,0.752c-7.811,0.992 -8.991,1.513 -11.265,5.125c-1.455,2.215 -3.337,6.204 -4.17,8.868c-1.556,4.98 -3.902,6.79 -5.256,4.205c-0.477,-0.912 0.652,-4.119 3.215,-8.657c4.416,-8.028 4.047,-9.288 -2.048,-6.871c-3.048,1.209 -3.714,2.527 -7.58,13.269c-2.332,6.646 -3.932,13.393 -3.859,15.195z"/>
   <path fill="#E8E8E8" d="m575.96468,207.619c3.569,6.074 3.467,6.805 -8.362,28.789c-9.079,17.251 -10.208,20.458 -7.197,21.399c3.822,1.194 10.699,-0.47 12.075,-2.837c0.818,-1.397 5.01,-9.114 9.31,-17.178c10.903,-20.24 10.418,-19.502 14.74,-20.313c5.893,-0.955 5.762,-3.793 -0.875,-11.843l-5.972,-7.333l-7.616,1.179c-4.133,0.615 -7.876,1.607 -8.325,2.23c-0.413,0.506 0.521,3.214 2.222,5.907z"/>
   <path fill="#E8E8E8" d="m608.63268,101.878c-0.218,2.729 -2.158,9.751 -4.2,15.47c-2.193,5.798 -3.598,10.699 -3.135,10.844c3.128,0.978 6.103,-2.034 9.868,-10.011c5.205,-10.96 7.399,-10.656 3.156,0.478l-3.258,8.39l9.114,-1.093c5.133,-0.557 9.947,-1.722 10.888,-2.7c0.905,-0.861 3.091,-5.009 4.894,-9.15c2.136,-4.799 4.003,-7.521 5.154,-7.543c1.419,-0.065 1.253,1.282 -1.209,7.124c-1.614,3.945 -3.533,8.049 -4.394,9.179c-1.542,1.679 -1.311,1.751 2.591,1.064c2.946,-0.478 4.916,-1.896 6.704,-4.77c3.359,-5.053 7.269,-17.562 7.421,-23.744c0.246,-5.263 0.825,-5.082 -11.09,-3.975c-6.667,0.586 -6.972,0.745 -7.211,4.358c-0.115,1.998 -1.209,7.123 -2.512,11.292c-1.911,6.523 -2.585,7.457 -4.547,7.225c-3.192,-0.362 -3.626,-3.041 -1.418,-10.106c1.05,-3.359 1.665,-7.362 1.448,-8.701c-0.506,-2.447 -0.854,-2.556 -8.976,-1.789c-4.713,0.434 -8.535,1.274 -8.752,1.969c-0.065,0.615 -0.435,3.424 -0.536,6.189z"/>
   <path fill="#E8E8E8" d="m593.96968,175.232c0.094,0.919 2.584,4.749 5.61,8.491l5.465,6.921l7.782,-0.492c4.293,-0.311 8.383,-1.194 8.868,-1.932c0.601,-0.702 -0.376,-3.678 -2.041,-6.487c-3.916,-6.182 -3.699,-6.877 7.204,-27.117c11.642,-21.789 11.939,-24.366 2.709,-23.31c-5.973,0.804 -4.698,-0.832 -16.977,21.775c-9.05,16.751 -9.875,17.764 -13.357,18.329c-4.322,0.81 -5.306,1.52 -5.263,3.822z"/>
   <path fill="#E8E8E8" d="m584.17868,254.557c1.405,1.202 8.506,1.26 10.982,0.254c1.484,-0.68 23.623,-39.785 24.962,-44.07c1.014,-3.243 0.457,-4.307 -4.089,-9.288c-4.937,-5.357 -5.285,-5.466 -9.302,-4.815c-6.313,1.079 -6.132,4.568 0.557,13.27c7.238,9.382 6.782,11.655 -2.68,12.639l-6.891,0.897l-7.298,13.993c-8.593,16.512 -8.188,15.622 -6.241,17.12z"/>
   <path fill="#E8E8E8" d="m627.63168,177.361c0.869,1.289 3.149,4.163 5.031,6.277c3.214,3.547 3.757,3.844 8.086,3.417c7.319,-0.636 7.333,-3.938 0.268,-12.248c-8.672,-10.085 -8.071,-12.821 2.925,-13.834l5.748,-0.492l6.299,-12.017c10.121,-18.959 10.23,-21.34 0.507,-19.929l-5.052,0.709l-11.924,21.065c-6.653,11.525 -12.293,21.84 -12.735,22.846c-0.326,1.043 0.094,2.954 0.847,4.206z"/>
   <path fill="#E8E8E8" d="m595.47768,285.932c-0.217,2.729 -0.051,5.451 0.347,6.211c0.319,0.609 4.503,0.645 9.252,0.095l8.578,-1.006l0.782,-7.384c0.703,-7.536 2.716,-12.755 5.633,-14.767c2.918,-2.013 3.721,1.926 1.911,9.751c-2.585,11.524 -2.346,11.981 7.803,10.83c5.516,-0.564 8.607,-1.505 8.55,-2.541c0.253,-4.879 3.359,-17.257 6.038,-23.794c3.005,-7.579 2.903,-8.882 -1.143,-7.732c-2.216,0.579 -6.161,7.102 -8.159,13.088c-1.448,4.633 -4.026,6.371 -4.207,2.881c-0.137,-1.187 1.289,-4.937 3.063,-8.578c3.663,-7.246 4.554,-6.841 -9.577,-5.155l-7.275,0.905l-3.743,7.094c-2.078,3.801 -4.069,8.137 -4.504,9.527c-0.506,1.621 -1.339,2.251 -2.157,1.614c-1.477,-0.97 0.109,-6.45 3.816,-13.429l2.519,-4.806l-4.054,0.767c-2.562,0.47 -4.495,1.773 -5.683,3.945c-3.786,6.826 -7.536,17.605 -7.79,22.484z"/>
   <path fill="#E8E8E8" d="m628.48468,202.293c1.86,2.997 2.606,5.9 2.063,7.637c-0.471,1.506 -5.024,10.381 -9.955,19.647c-4.93,9.266 -9.375,17.793 -9.737,18.951c-0.978,3.128 1.969,4.684 7.557,3.888l5.133,-0.557l8.05,-14.775c14.205,-26.328 13.198,-24.735 17.339,-24.967c2.186,-0.079 4.127,-0.998 4.416,-1.925c0.616,-1.969 -3.981,-9.635 -8.715,-14.421c-2.896,-2.939 -3.243,-3.047 -10.634,-2.179c-4.098,0.499 -7.724,1.527 -7.978,2.338c-0.253,0.811 0.876,3.706 2.461,6.363z"/>
   <path fill="#E8E8E8" d="m652.27668,122.512c0.231,0.072 1.802,-0.073 3.641,-0.261c3.33,-0.485 3.554,-0.796 9.694,-15.151c0.514,-1.238 1.723,-2.258 2.722,-2.2c1.534,-0.029 1.216,1.397 -1.499,8.05c-1.759,4.408 -3.034,8.078 -2.802,8.151c0.347,0.108 4.676,-0.319 9.693,-0.912l9.114,-1.093l3.265,-5.972c1.817,-3.373 3.772,-7.593 4.351,-9.447c0.652,-2.085 1.593,-3.062 2.751,-2.7c1.969,0.616 0.76,5.705 -3.222,12.343c-1.375,2.367 -2.295,4.495 -2.251,4.763c0.195,0.188 1.846,0.196 3.685,0.007c3.829,-0.455 8.086,-6.753 11.054,-16.251c2.1,-6.718 2.651,-16.208 0.913,-16.751c-0.695,-0.217 -4.872,0.13 -9.237,0.673l-7.927,0.955l-0.239,5.646c-0.5,8.108 -2.672,15.058 -5.3,16.143c-4.227,1.73 -5.045,-0.941 -2.945,-9.693c1.18,-4.589 1.788,-8.976 1.31,-9.889c-0.637,-1.216 -3.25,-1.397 -9.034,-0.789c-8.043,0.919 -8.311,0.962 -8.702,4.654c-0.84,8.383 -3.244,17.294 -6.241,23.223c-1.737,3.526 -3.026,6.428 -2.794,6.501z"/>
   <path fill="#E8E8E8" d="m647.10468,172.005c0.869,1.289 3.547,4.923 6.023,7.985l4.401,5.444l6.856,-0.781c9.497,-1.1 10.294,-1.614 9.78,-4.444c-0.333,-1.376 -1.325,-3.084 -2.454,-3.946c-4.394,-3.026 -3.207,-7.232 6.69,-25.879c5.039,-9.614 9.629,-18.604 10.1,-20.11c1.122,-3.591 -1.405,-5.27 -7.341,-4.583l-5.053,0.709l-10.454,19.618l-10.338,19.654l-4.293,0.311c-4.865,0.513 -6.095,2.417 -3.917,6.022z"/>
   <path fill="#E8E8E8" d="m636.11968,249.051c0.55,0.68 3.511,0.97 6.501,0.76l5.444,-0.333l12.408,-21.803c6.798,-11.988 12.503,-22.919 12.634,-24.149c0.13,-1.231 -2.085,-4.72 -4.865,-7.623c-4.466,-4.829 -5.436,-5.387 -8.846,-5.054c-7.854,0.724 -7.29,4.206 2.497,16.419c4.836,6.088 3.685,8.144 -4.966,9.381l-6.812,1.05l-6.784,12.755c-7.558,14.42 -8.507,17.047 -7.211,18.597z"/>
   <path fill="#E8E8E8" d="m683.76368,176.343l5.103,6.045l4.358,-0.926c6.877,-1.665 6.993,-3.663 0.507,-11.793c-8.961,-11.192 -8.802,-12.922 1.384,-14.188l7.123,-0.825l5.111,-9.845c9.188,-17.598 10.071,-19.61 8.124,-21.109c-0.934,-0.673 -3.823,-1.195 -6.465,-0.876l-4.792,0.282l-11.707,20.37c-6.544,11.177 -12.257,21.724 -12.836,23.577c-0.912,2.512 -0.152,4.148 4.09,9.288z"/>
   <path fill="#E8E8E8" d="m647.69368,280.766c-0.449,6.725 -0.022,6.986 9.628,5.806l8.962,-1.013l0.159,-5.798c0.015,-7.37 2.006,-13.74 4.96,-15.868c3.974,-2.954 5.125,1.093 3.025,9.845c-2.57,10.258 -1.781,11.394 6.913,10.425c3.794,-0.34 7.391,-0.869 8,-1.187c0.571,-0.203 1.679,-4.561 2.505,-9.643c0.999,-6.044 2.737,-11.604 4.988,-16.367l3.396,-7.203l-3.49,0.181c-3.757,0.224 -6.037,3.453 -9.006,12.95c-1.194,3.823 -2.02,4.836 -3.409,4.402c-1.738,-0.543 -1.528,-1.622 1.223,-8.39l3.193,-7.775l-9.693,0.912l-9.657,0.796l-3.844,7.825c-2.223,4.264 -4.294,8.448 -4.547,9.258c-0.369,0.775 -1.281,1.253 -1.824,0.956c-1.39,-0.435 1.1,-8.81 4.119,-13.588c1.97,-3.453 1.97,-3.453 -1.751,-3.344c-3.07,0.058 -4.242,0.962 -6.805,5.501c-3.497,5.9 -6.581,15.361 -7.045,21.319z"/>
   <path fill="#E8E8E8" d="m680.17268,195.563c1.693,2.309 3.054,5.277 3.04,6.544c-0.015,1.267 -4.257,10.367 -9.448,20.059c-5.075,9.73 -9.738,18.952 -10.208,20.458c-1.195,3.822 1.056,5.161 7.101,4.126l5.241,-0.904l10.498,-19.35c10.092,-18.459 10.729,-19.277 14.551,-20.117c4.206,-0.847 5.567,-1.947 4.793,-4.35c-0.615,-2.1 -10.163,-13.856 -11.669,-14.327c-2.432,-0.76 -14.797,0.969 -15.81,2.178c-0.637,0.818 0.253,3.258 1.911,5.683z"/>
   <path fill="#E8E8E8" d="m713.70868,87.043c0.145,3.605 -6.06,24.678 -8.377,28.022c-1.535,2.064 -1.419,2.1 2.483,1.412c3.214,-0.521 4.307,-1.578 6.414,-5.878c1.289,-2.903 2.867,-6.732 3.41,-8.469c0.688,-2.201 1.629,-3.178 2.787,-2.816c1.969,0.615 0.76,5.704 -2.997,12.031c-1.339,2.251 -2.187,4.148 -2.071,4.184c1.159,0.362 17.28,-1.592 18.764,-2.272c1.028,-0.442 3.786,-4.792 6.19,-9.635c2.556,-4.922 4.909,-8.383 5.379,-7.854c1.173,1.129 -0.384,6.11 -3.758,12.429l-2.447,4.575l3.873,-0.188c3.642,-0.26 4.206,-0.847 8.123,-8.904c3.062,-6.544 4.257,-10.366 4.88,-16.02c0.5,-4.039 0.623,-7.687 0.232,-8.064c-0.275,-0.34 -4.648,-0.181 -9.549,0.449c-6.855,0.781 -8.991,1.512 -8.846,3.083c0.318,4.676 -1.144,12.61 -3.142,16.563c-1.629,3.178 -2.65,4.003 -4.387,3.46c-1.969,-0.615 -2.107,-1.803 -0.659,-8.47c1.832,-8.708 1.767,-12.161 -0.202,-12.777c-0.731,-0.101 -4.64,0.203 -8.89,0.782c-7.043,0.977 -7.536,1.331 -7.21,4.357z"/>
   <path fill="#E8E8E8" d="m704.02668,172.124l6.131,7.638l7.775,-0.876c9.077,-0.977 10.2,-2.533 5.856,-8.976c-1.737,-2.577 -2.714,-5.553 -2.28,-6.943c0.399,-1.274 5.133,-10.728 10.469,-20.884c8.34,-15.701 9.586,-18.872 8.71,-20.544c-0.956,-1.824 -1.919,-1.998 -6.515,-1.528l-5.437,0.717l-9.607,17.72c-12.09,22.412 -11.381,21.363 -15.63,21.941c-6.161,0.999 -6.074,3.569 0.528,11.735z"/>
   <path fill="#E8E8E8" d="m688.52368,243.689c1.571,1.889 11.518,0.167 12.857,-2.084c13.726,-23.172 23.782,-41.516 23.855,-43.781c0.217,-2.73 -7.203,-11.533 -10.561,-12.582c-2.896,-0.905 -8.268,1.23 -8.572,3.423c-0.094,1.115 2.367,5.444 5.632,9.643c3.265,4.199 5.689,8.644 5.595,9.759c-0.166,1.346 -2.526,2.388 -7.348,3.17c-3.865,0.572 -7.232,1.172 -7.536,1.332c-0.723,0.282 -12.828,23.961 -13.77,26.972c-0.543,1.737 -0.622,3.619 -0.152,4.148z"/>
   <path fill="#E8E8E8" d="m735.42268,170.113c4.828,5.704 5.798,6.262 10.699,5.632c5.936,-0.687 5.668,-4.712 -1.085,-12.799c-7.579,-9.107 -6.971,-11.459 2.823,-13.102l6.697,-1.086l7.333,-14.109c6.263,-11.9 7.175,-14.412 6.335,-16.2c-0.991,-1.709 -1.918,-1.998 -6.515,-1.528l-5.4,0.6l-11.627,20.523c-6.429,11.213 -12.061,21.912 -12.641,23.765c-0.796,2.548 -0.072,4.3 3.381,8.304z"/>
   <path fill="#E8E8E8" d="m699.94568,277.518c0,2.034 0.492,3.713 1.071,3.894c0.579,0.181 4.604,-0.086 9.085,-0.593c6.972,-0.745 8.115,-1.15 8.072,-3.452c0.058,-5.068 3.613,-18.069 5.314,-19.444c1.361,-1.101 2.056,-0.884 3.388,0.55c1.216,1.397 1.187,3.931 -0.123,9.751c-0.956,4.278 -1.412,8.586 -0.934,9.498c0.557,1.064 3.286,1.281 8.954,0.637c8.123,-0.767 8.275,-0.846 8.434,-4.611c0.152,-2.114 2.006,-9.671 4.214,-16.736c3.844,-11.894 4.018,-12.857 1.868,-12.893c-3.113,-0.21 -3.337,0.101 -7.992,9.707c-5.249,10.692 -7.594,10.467 -3.345,-0.282c3.591,-9.049 4.134,-8.752 -8.845,-7.088c-7.812,0.991 -8.528,1.657 -12.981,11.835c-1.766,4.025 -3.706,6.979 -4.742,7.037c-1.766,-0.044 0.066,-6.718 3.671,-12.965c2.346,-3.844 2.266,-3.996 -0.268,-4.025c-1.498,-0.087 -3.373,0.217 -3.981,0.535c-3.728,1.759 -11.222,21.666 -10.86,28.645z"/>
   <path fill="#E8E8E8" d="m731.94668,189.369c4.495,6.363 3.996,8.368 -5.641,26.589c-4.778,9.186 -9.288,18.329 -9.904,20.298c-1.339,4.285 -0.094,5.183 6.885,4.821c4.756,-0.166 4.119,0.652 17.954,-24.901c7.601,-14.153 8.202,-14.855 11.728,-15.151c3.829,-0.456 5.871,-2.107 5.292,-4.322c-0.283,-0.724 -2.925,-4.474 -5.95,-8.217l-5.581,-6.957l-6.472,0.775c-11.416,1.136 -11.981,1.722 -8.311,7.065z"/>
   <path fill="#E8E8E8" d="m765.64968,83.571c-0.217,2.729 -2.114,10.019 -4.265,16.085c-3.902,10.858 -3.895,11.242 -1.361,11.271c3.569,-0.029 3.192,0.362 7.695,-9.164c4.576,-9.758 4.989,-10.265 5.886,-7.442c0.42,1.911 -2.396,9.295 -5.227,13.877c-0.97,1.477 0.376,1.644 8.614,0.913c5.365,-0.485 10.446,-1.694 11.084,-2.512c0.789,-0.897 2.635,-4.77 4.177,-8.484c3.417,-8.086 5.292,-10.424 6.725,-7.687c0.637,1.216 -0.087,3.532 -3.243,9.157l-4.156,7.601l3.642,-0.261c1.918,-0.036 4.09,-0.883 4.879,-1.78c2.063,-2.534 8.304,-19.654 8.796,-24.077c0.819,-7.5 0.428,-7.876 -9.338,-6.733c-8.462,1.042 -8.766,1.201 -8.933,4.582c0.036,1.919 -1.137,6.892 -2.44,11.061c-2.1,6.718 -2.585,7.457 -4.894,7.116c-2.309,-0.34 -2.44,-1.144 -0.883,-8.158c0.956,-4.279 1.441,-9.085 1.108,-10.461c-0.47,-2.562 -0.586,-2.599 -8.057,-1.882c-4.097,0.499 -7.999,1.187 -8.455,1.425c-0.492,0.355 -1.137,2.824 -1.354,5.553z"/>
   <path fill="#E8E8E8" d="m755.92368,166.349c3.026,3.743 6.08,6.986 6.66,7.167c2.779,0.869 15.824,-1.41 16.259,-2.8c0.253,-0.811 -0.912,-3.591 -2.57,-6.016c-3.829,-5.647 -3.503,-6.689 8.544,-29.369c7.862,-14.579 9.071,-17.634 8.231,-19.422c-0.991,-1.709 -1.918,-1.998 -6.479,-1.644c-6.015,0.536 -4.256,-1.839 -19.018,25.459c-7.906,14.312 -8.318,14.819 -11.808,14.999c-6.022,0.152 -5.914,3.873 0.181,11.626z"/>
   <path fill="#E8E8E8" d="m740.83368,237.408c1.716,1.426 9.969,1.463 11.554,0.051c2.91,-2.396 25.571,-44.389 25.187,-46.416c-0.253,-1.223 -2.461,-4.329 -5.045,-7.044c-4.228,-4.372 -4.886,-4.705 -8.911,-4.438c-6.168,0.615 -6.603,4.039 -1.449,10.736c9.671,12.176 9.555,14.174 -0.826,15.252c-3.178,0.406 -5.936,0.688 -6.204,0.731c-0.456,0.239 -14.957,27.11 -15.572,29.079c-0.145,0.463 0.449,1.412 1.266,2.049z"/>
   <path fill="#E8E8E8" d="m783.83768,158.8c0.37,1.26 2.577,4.366 4.93,7.008c4.235,4.756 4.582,4.865 8.868,4.17c7.043,-0.977 7.022,-4.162 0.036,-12.321c-8.672,-10.084 -8.15,-12.973 3.005,-13.681c3.106,-0.174 5.712,-0.377 5.748,-0.492c0.036,-0.116 3.41,-6.436 7.566,-14.037c7.449,-14.072 8.463,-17.315 5.567,-18.22c-3.243,-1.014 -11.112,0.976 -12.299,3.148c-5.242,9.041 -23.782,41.515 -23.855,41.747c-0.072,0.232 0.217,1.339 0.434,2.678z"/>
   <path fill="#E8E8E8" d="m752.90768,267.118c-0.623,3.619 -0.826,7.116 -0.507,7.724c0.398,0.76 4.662,0.949 9.374,0.514c8.239,-0.73 8.847,-1.049 8.869,-3.966c0.043,-1.767 1.136,-6.892 2.512,-11.293c2.353,-7.529 2.766,-8.035 5.191,-7.659c2.541,0.413 2.628,0.949 1.288,5.234c-1.339,4.286 -2.621,15.709 -1.81,15.962c0.231,0.073 4.292,-0.311 8.926,-0.897l8.73,-1.085l0.065,-4.684c0.181,-2.613 2.151,-10.135 4.41,-16.549c3.967,-11.473 4.076,-11.821 1.542,-11.85c-3.569,0.029 -3.308,-0.398 -7.92,9.476c-2.396,5.226 -4.597,8.607 -5.22,8.158c-1.129,-0.862 0.059,-5.067 3.382,-12.039l2.215,-4.647l-9.462,0.984c-5.132,0.557 -9.874,1.491 -10.518,1.925c-0.529,0.471 -2.983,4.662 -5.271,9.541c-2.736,5.502 -4.756,8.303 -5.494,7.818c-1.361,-0.934 -0.384,-4.061 3.388,-11.655c2.548,-5.306 2.585,-5.422 -0.333,-5.443c-1.65,-0.008 -3.373,0.217 -3.981,0.535c-1.94,0.919 -8.391,17.084 -9.376,23.896z"/>
   <path fill="#E8E8E8" d="m785.13968,185.144c2.02,3.301 2.606,5.9 1.954,7.984c-0.543,1.738 -5.314,11.308 -10.577,21.232c-6.747,12.639 -9.325,18.445 -8.688,19.661c0.876,1.672 10.367,2.223 12.104,0.732c0.377,-0.391 4.872,-8.267 9.882,-17.381c4.894,-9.15 9.607,-17.721 10.273,-19.038c0.819,-1.397 3.287,-2.787 5.43,-3.134c6.312,-1.079 6.103,-4.069 -0.535,-12.119l-5.893,-7.181l-7.738,0.76c-4.177,0.347 -7.92,1.338 -8.441,2.193c-0.369,0.774 0.644,3.634 2.229,6.291z"/>
   <path fill="#E8E8E8" d="m817.77168,79.519c-0.218,2.729 -2.122,9.635 -4.279,15.318c-3.765,10.011 -3.794,10.511 -1.528,10.583c3.496,0.203 4.133,-0.615 7.992,-9.707c2.165,-5.299 3.881,-7.941 5.032,-7.963c1.534,-0.029 1.18,1.513 -1.608,8.398l-3.33,8.621l3.518,-0.68c1.991,-0.268 6.356,-0.811 9.766,-1.143c5.784,-0.608 6.24,-0.847 9.244,-6.392c1.745,-3.142 3.779,-7.21 4.474,-9.027c0.811,-1.781 2.165,-3.265 2.969,-3.395c1.882,0.08 0.05,6.754 -3.519,12.885c-1.825,2.99 -2.071,4.185 -1.028,4.51c4.864,1.521 9.664,-4.48 13.617,-16.721c2.208,-7.066 3.15,-16.18 1.644,-16.65c-0.463,-0.145 -4.488,0.123 -9.085,0.593c-7.739,0.76 -8.347,1.078 -8.6,3.923c-1.058,13.146 -3.99,20.494 -7.812,19.299c-2.548,-0.796 -2.584,-2.715 -0.275,-12.545c0.819,-3.431 1.137,-6.892 0.739,-7.652c-0.912,-1.556 -16.968,-0.218 -17.359,1.44c-0.102,0.731 -0.471,3.54 -0.572,6.305z"/>
   <path fill="#E8E8E8" d="m803.10868,152.872c0.094,0.92 2.584,4.749 5.61,8.492l5.349,6.885l7.051,-0.594c10.461,-0.926 11.706,-2.062 7.986,-8.056c-1.665,-2.809 -2.99,-5.893 -3.012,-7.044c-0.021,-1.151 4.004,-9.556 8.934,-18.822c4.931,-9.265 9.325,-18.444 9.788,-20.334c0.594,-3.12 0.276,-3.728 -2.692,-4.401c-7.326,-1.781 -8.456,-0.609 -19.655,20.174c-9.904,18.264 -10.614,19.314 -14.132,19.994c-4.286,0.695 -5.27,1.404 -5.227,3.706z"/>
   <path fill="#E8E8E8" d="m792.89068,231.938c0.55,0.68 3.475,1.086 6.465,0.876l5.443,-0.333l11.852,-20.834c6.465,-11.328 12.249,-22.107 12.792,-23.845c0.833,-2.664 0.153,-4.148 -4.039,-8.636c-5.327,-5.734 -7.876,-6.53 -13.044,-3.823c-3.005,1.477 -3.005,1.477 -0.276,5.762c1.426,2.353 4.38,6.328 6.385,8.861c5.19,6.581 4.046,9.021 -4.684,10.106l-7.008,0.861l-6.928,13.218c-7.892,15.079 -8.369,16.201 -6.958,17.787z"/>
   <path fill="#E8E8E8" d="m836.77068,155.002c0.869,1.289 3.185,4.047 5.263,6.349c3.525,3.772 3.757,3.844 7.999,2.882c6.725,-1.585 6.761,-3.735 0.355,-11.713c-8.962,-11.192 -8.838,-12.807 1.311,-13.957l7.007,-0.861l6.639,-12.292c8.637,-16.244 9.361,-18.561 5.886,-19.647c-1.389,-0.434 -4.459,-0.376 -6.71,0.319c-3.975,0.919 -4.648,1.853 -16.166,22.027c-6.538,11.561 -12.141,21.761 -12.467,22.803c-0.29,0.927 0.13,2.838 0.883,4.09z"/>
   <path fill="#E8E8E8" d="m804.71068,262.458c-0.492,8.492 -0.768,8.151 8.962,7.124c4.98,-0.478 8.991,-1.513 9.013,-2.396c0.558,-11.141 3.461,-20.023 6.784,-20.892c2.635,-0.702 3.663,2.925 2.142,7.79c-0.796,2.548 -1.52,6.898 -1.665,9.396l-0.066,4.684l9.114,-1.093c8.847,-1.049 8.999,-1.129 8.782,-4.502c-0.304,-3.909 5.683,-24.287 8.188,-27.827c1.76,-2.374 1.644,-2.411 -2.258,-1.723c-4.17,0.731 -4.358,0.926 -10.679,15.86c-0.514,1.238 -1.498,1.948 -2.005,1.535c-0.659,-0.333 0.152,-4.148 1.68,-8.629l2.729,-7.92l-8.846,1.05c-4.901,0.629 -9.302,1.288 -9.91,1.606c-0.608,0.319 -3.026,4.394 -5.51,9.085c-2.367,4.727 -4.756,8.303 -5.335,8.122c-1.354,-0.55 0.348,-5.994 3.678,-12.581l2.367,-4.727l-3.902,0.687c-2.179,0.464 -4.531,1.89 -5.465,3.25c-2.867,4.698 -7.602,18.221 -7.798,22.101z"/>
   <path fill="#E8E8E8" d="m837.14568,179.022c1.571,1.889 2.736,4.669 2.686,6.052c0.065,1.418 -4.583,11.408 -10.252,22.223c-11.822,22.369 -11.924,23.1 -2.875,22.622l5.712,-0.376l10.164,-18.691c5.524,-10.351 10.462,-19.234 10.947,-19.972c0.564,-0.586 2.7,-1.317 4.77,-1.433c3.794,-0.34 4.959,-1.629 4.098,-4.568c-0.615,-2.099 -10.163,-13.856 -11.669,-14.327c-2.78,-0.868 -15.13,1.629 -15.636,3.25c-0.29,0.927 0.636,3.25 2.055,5.22z"/>
   <path fill="#E8E8E8" d="m861.99368,100.334c0.464,0.145 2.143,-0.348 3.895,-1.071c2.44,-0.891 3.822,-2.874 6.501,-9.411c2.455,-6.225 3.765,-7.977 5.039,-7.579c1.39,0.434 1.187,1.897 -1.607,8.397l-3.23,7.891l4.865,-0.514c2.722,-0.166 7.051,-0.593 9.657,-0.796c4.597,-0.47 4.901,-0.629 9.006,-8.882c5.582,-11.351 5.995,-11.857 7.109,-9.729c0.717,1.368 0.029,3.569 -2.744,9.186c-2.15,4.032 -3.772,7.594 -3.612,7.898c0.195,0.188 1.809,0.311 3.684,0.008c2.758,-0.283 3.96,-1.687 7.037,-7.464c3.859,-7.058 6.357,-17.084 5.973,-23.179l-0.137,-3.221l-9.23,1.056c-8.195,0.999 -9.071,1.361 -8.948,3.815c0.492,9.816 -4.467,21.615 -8.383,19.501c-1.513,-0.854 -1.434,-2.736 0.007,-9.787c1.101,-4.741 1.55,-9.432 1.152,-10.192c-0.717,-1.369 -12.647,-1.029 -15.999,0.339c-0.572,0.203 -1.679,4.561 -2.469,9.527c-0.963,5.928 -2.7,11.488 -4.872,16.403c-1.955,4.22 -3.157,7.659 -2.694,7.804z"/>
   <path fill="#E8E8E8" d="m860.76068,155.126l6.131,7.638l7.276,-0.905c3.945,-0.419 7.355,-0.752 7.586,-0.68c0.232,0.073 0.753,-0.781 1.152,-2.056c0.362,-1.158 -0.333,-3.409 -1.629,-4.958c-4.401,-5.444 -4.119,-6.755 6.958,-27.958c11.743,-22.52 11.88,-23.367 3.02,-23.085l-5.408,0.217l-10.686,19.545c-10.461,19.234 -10.685,19.545 -15.043,20.472c-2.447,0.506 -4.612,1.737 -4.901,2.663c-0.254,0.811 2.243,5.024 5.544,9.107z"/>
   <path fill="#E8E8E8" d="m845.25868,226.691c0.471,0.529 3.431,0.819 6.494,0.377l5.668,-0.644l12.257,-21.724c6.762,-11.872 12.394,-22.571 12.524,-23.802c0.435,-3.424 -8.252,-12.241 -12.443,-12.661c-3.96,-0.348 -7.152,1.324 -7.145,3.742c0.094,0.919 2.627,5.017 5.856,9.331c7.202,9.499 6.898,11.692 -2.404,12.98l-6.892,0.897l-6.487,12.213c-7.225,13.761 -8.839,17.706 -7.428,19.291z"/>
   <path fill="#E8E8E8" d="m892.04168,153.079c4.828,5.705 10.004,7.45 13.79,4.692c2.954,-2.128 2.223,-4.264 -3.786,-11.482c-5.262,-6.349 -6.674,-9.968 -4.408,-11.93c0.529,-0.47 3.931,-1.187 7.341,-1.52l6.204,-0.731l6.964,-13.334c3.816,-7.326 7.218,-14.145 7.544,-15.187c0.942,-3.011 -1.614,-4.192 -7.434,-3.468l-5.133,0.557l-11.887,20.95c-6.538,11.56 -12.25,22.107 -12.72,23.613c-0.58,1.853 0.499,4.097 3.525,7.84z"/>
   <path fill="#E8E8E8" d="m856.66568,259.753c-0.072,2.266 0.427,4.329 1.007,4.51c0.579,0.181 4.835,-0.014 9.396,-0.369l8.354,-0.694l0.159,-5.799c-0.028,-7.637 2.477,-15.245 5.257,-16.411c3.808,-1.606 4.683,2.1 2.728,10.389c-2.606,10.373 -1.861,11.242 7.905,10.099l8.079,-1.035l0.492,-4.423c0.145,-2.498 2.115,-10.019 4.366,-16.817l3.953,-12.241l-3.025,0.326c-3.063,0.441 -3.359,0.984 -9.427,15.108c-0.514,1.237 -1.723,2.258 -2.722,2.2c-1.534,0.029 -1.216,-1.397 1.536,-8.166c2.418,-6.109 2.917,-8.114 1.73,-7.977c-16.556,1.31 -17.432,1.671 -20.704,7.26c-1.825,2.99 -3.779,7.21 -4.467,9.411c-0.869,2.779 -1.81,3.757 -2.968,3.395c-1.969,-0.616 -0.76,-5.705 3.222,-12.343c1.375,-2.367 2.295,-4.495 2.251,-4.763c-0.195,-0.188 -1.846,-0.196 -3.684,-0.008c-2.643,0.319 -4.076,1.651 -6.378,5.762c-3.642,6.363 -6.972,17.019 -7.06,22.586z"/>
   <path fill="#E8E8E8" d="m888.99268,172.596c4.452,6.095 4.141,7.905 -5.908,26.632c-13.126,24.504 -13.329,25.966 -3.331,24.895l5.248,-0.521l10.382,-19.386l10.345,-19.27l4.547,-1.121c6.725,-1.585 6.631,-2.505 -1.31,-12.488l-5.501,-6.805l-8.311,0.962c-4.481,0.507 -8.376,1.578 -8.557,2.157c-0.217,0.695 0.862,2.939 2.396,4.945z"/>
   <path fill="#E8E8E8" d="m922.48568,65.842c0.007,2.418 -2.078,9.903 -4.445,16.664c-4.113,11.937 -4.185,12.169 -1.507,11.735c3.938,-0.804 4.88,-1.781 8.405,-10.214c1.803,-4.141 3.808,-7.71 4.38,-7.912c2.331,-0.543 1.571,3.923 -1.759,10.511c-1.738,3.525 -3.178,6.508 -3.063,6.544c0.232,0.072 4.713,-0.434 10.265,-1.115l9.918,-1.223l4.655,-9.606c2.693,-5.769 4.894,-9.15 5.633,-8.665c1.361,0.934 0.021,5.22 -3.751,12.813l-2.548,5.307l3.902,-0.688c3.214,-0.521 4.611,-1.737 6.385,-5.378c3.851,-7.442 7.196,-19.365 6.726,-23.961l-0.463,-4.214l-8.542,0.89c-6.704,0.702 -8.571,1.39 -8.883,3.2c-0.999,8.078 -4.141,18.539 -5.886,19.646c-3.222,2.172 -4.85,-0.753 -3.221,-5.965c1.846,-5.907 2.23,-14.051 0.609,-14.558c-1.39,-0.434 -14.341,0.731 -15.673,1.332c-0.456,0.239 -1.028,2.475 -1.137,4.857z"/>
   <path fill="#E8E8E8" d="m912.57868,149.2c3.026,3.742 6.196,7.022 7.007,7.275c2.896,0.905 15.441,-1.403 15.912,-2.909c0.253,-0.811 -0.912,-3.591 -2.57,-6.016c-3.749,-5.495 -3.677,-5.726 8.406,-28.522c8.08,-15.274 9.405,-18.292 8.413,-20.001c-0.956,-1.824 -1.882,-2.114 -6.479,-1.643l-5.4,0.6l-8.015,14.659c-14.284,26.176 -13.198,24.735 -17.491,25.047c-5.9,0.571 -5.878,3.756 0.217,11.51z"/>
   <path fill="#E8E8E8" d="m896.88868,218.926c0.26,3.642 11.119,3.476 13.624,-0.064c5.191,-7.659 23.927,-41.979 24.007,-43.861c0.014,-1.267 -2.237,-4.64 -4.901,-7.507c-4.741,-5.169 -4.937,-5.357 -9.338,-4.699c-6.124,0.883 -6.53,3.808 -1.456,10.352c9.592,12.025 9.454,14.906 -0.283,15.55c-6.746,0.434 -7.159,0.941 -14.493,15.049c-2.925,5.697 -5.893,11.127 -6.414,11.981c-0.522,0.854 -0.876,2.396 -0.746,3.199z"/>
   <path fill="#E8E8E8" d="m944.56168,147.754c4.473,5.212 8.187,6.754 12.451,4.908c4.076,-1.65 3.28,-5.204 -2.801,-12.19c-7.89,-9.332 -7.405,-12.105 2.665,-13.407l6.891,-0.897l5.85,-11.395c3.222,-6.24 6.48,-12.595 7.334,-14.108c2.592,-5.039 1.101,-6.776 -5.646,-6.342c-3.258,0.253 -6.016,0.535 -6.088,0.767c-0.073,0.232 -5.199,9.309 -11.367,20.095c-14.675,25.8 -14.747,26.032 -9.289,32.569z"/>
   <path fill="#E8E8E8" d="m908.92568,254.855c0.224,1.723 0.565,3.482 0.724,3.786c0.123,0.42 4.227,0.304 8.976,-0.246c8.427,-0.926 8.579,-1.006 8.854,-4.734c0.116,-1.998 1.209,-7.123 2.513,-11.293c2.172,-6.949 2.584,-7.456 5.009,-7.079c1.578,0.239 2.664,0.832 2.599,1.448c-0.145,0.463 -0.999,4.01 -1.89,7.673c-0.811,3.815 -1.383,8.086 -1.05,9.462c0.471,2.562 0.702,2.635 8.788,1.984c8.354,-0.695 8.47,-0.659 8.782,-4.503c0.152,-2.114 2.157,-9.751 4.402,-16.932c2.208,-7.065 3.823,-13.045 3.359,-13.189c-2.895,-0.905 -6.059,2.301 -9.751,10.047c-5.169,10.844 -7.247,10.576 -3.041,-0.442l3.258,-8.39l-9.114,1.093c-5.132,0.557 -9.983,1.838 -10.887,2.7c-0.942,0.977 -3.208,4.973 -4.858,9.034c-3.085,7.427 -4.967,9.382 -6.4,6.645c-0.478,-0.912 0.652,-4.119 3.215,-8.658c4.416,-8.028 4.047,-9.287 -2.049,-6.87c-3.048,1.209 -3.714,2.527 -7.58,13.269c-2.331,6.646 -3.931,13.392 -3.859,15.195z"/>
   <path fill="#E8E8E8" d="m941.79568,167.994c3.684,6.11 3.25,7.5 -8.544,29.369c-8.934,16.787 -10.063,19.994 -7.052,20.935c3.359,1.05 10.548,-0.39 11.778,-2.294c1.383,-1.984 19.598,-35.449 19.96,-36.608c0.109,-0.347 1.941,-0.919 4.235,-1.346c6.313,-1.078 6.103,-4.068 -0.499,-12.234l-6.044,-7.102l-7.616,1.18c-4.249,0.579 -7.992,1.57 -8.44,2.193c-0.413,0.507 0.636,3.25 2.222,5.907z"/>
   <path fill="#E8E8E8" d="m974.60768,61.791c0.007,2.417 -1.897,9.324 -4.199,15.469c-2.303,6.146 -3.78,11.279 -3.316,11.424c3.127,0.977 6.102,-2.034 9.867,-10.012c5.206,-10.959 7.399,-10.655 3.156,0.478l-3.258,8.39l9.114,-1.092c5.133,-0.558 9.983,-1.839 10.888,-2.7c0.941,-0.977 3.207,-4.973 4.858,-9.034c3.012,-7.196 4.967,-9.382 6.32,-6.798c0.601,1.332 -3.562,10.584 -6.776,15.173l-1.456,2.215l4.51,-1.006c5.35,-1.252 6.957,-3.546 11.171,-16.215c2.469,-7.492 3.642,-16.534 2.136,-17.004c-0.231,-0.073 -4.256,0.195 -8.969,0.629c-8.47,0.658 -8.622,0.738 -8.781,4.502c-0.152,2.114 -1.246,7.239 -2.549,11.409c-2.172,6.95 -2.584,7.456 -5.125,7.044c-1.463,-0.203 -2.621,-0.565 -2.664,-0.833c0.072,-0.232 0.811,-3.815 1.846,-7.941c0.92,-4.163 1.564,-8.665 1.347,-10.005c-0.543,-2.331 -1.042,-2.36 -9.013,-1.672c-4.712,0.434 -8.535,1.273 -8.752,1.968c-0.181,0.579 -0.362,3.193 -0.355,5.611z"/>
   <path fill="#E8E8E8" d="m965.25868,144.179l5.581,6.957l7.782,-0.492c4.293,-0.311 8.383,-1.194 9.02,-2.012c0.637,-0.818 -0.101,-3.338 -1.998,-6.219c-4.024,-5.835 -3.67,-7.377 8.493,-30.02c7.71,-14.5 8.811,-17.207 7.855,-19.031c-0.955,-1.825 -1.882,-2.114 -6.399,-1.492c-6.052,0.651 -5.487,0.065 -14.016,15.962c-12.713,23.997 -12.264,23.374 -16.549,24.069c-6.081,1.151 -6.06,4.336 0.231,12.278z"/>
   <path fill="#E8E8E8" d="m950.05268,215.201c1.209,1.014 11.757,0.623 12.082,-0.419c0.073,-0.232 5.198,-9.31 11.555,-20.291c6.241,-11.018 11.757,-21.753 12.141,-23.794c0.71,-3.084 -0.05,-4.72 -4.162,-9.057c-4.778,-5.053 -5.089,-5.277 -9.143,-4.51c-6.197,1.114 -6.132,4.568 0.434,12.849c7.391,9.303 6.905,12.076 -2.324,13.132l-6.972,0.745l-7.153,13.53c-8.521,16.28 -8.485,16.164 -6.458,17.815z"/>
   <path fill="#E8E8E8" d="m993.42568,137.853c0.869,1.289 3.185,4.047 5.183,6.197c3.33,3.583 3.989,3.916 8.086,3.417c7.051,-0.593 7.145,-3.742 0.037,-12.321c-8.448,-10.396 -8.064,-12.437 2.585,-13.559c3.178,-0.405 5.82,-0.723 6.052,-0.651c0.84,-0.246 15.124,-28.456 15.058,-29.875c-0.094,-0.919 -0.919,-1.94 -1.73,-2.193c-3.358,-1.05 -10.547,0.39 -11.894,2.258c-2.092,3.033 -23.97,41.71 -24.405,43.1c-0.217,0.695 0.275,2.375 1.028,3.627z"/>
   <path fill="#E8E8E8" d="m961.56868,245.881c-0.326,3.076 -0.232,6.03 0.05,6.754c0.319,0.608 4.619,0.68 9.52,0.051c7.275,-0.905 8.875,-1.549 8.687,-3.388c-0.463,-4.213 3.497,-18.104 5.582,-19.487c3.526,-2.331 4.85,0.753 2.975,7.16c-1.014,3.243 -1.658,7.745 -1.615,10.047l0.232,4.141l8.578,-1.006c7.507,-0.832 8.571,-1.389 8.832,-3.85c0.123,-1.615 2.245,-9.216 4.634,-16.86c4.38,-14.015 4.38,-14.015 1.47,-13.653c-3.562,0.412 -4.763,1.817 -8.434,10.713c-1.578,3.83 -3.511,7.167 -4.199,7.333c-2.215,0.58 -1.455,-3.887 1.875,-10.474c1.738,-3.526 3.179,-6.508 3.063,-6.544c-0.232,-0.073 -4.713,0.434 -10.265,1.114l-9.918,1.223l-4.655,9.606c-2.693,5.769 -4.894,9.15 -5.633,8.665c-1.36,-0.934 -0.021,-5.219 3.751,-12.813l2.548,-5.306l-3.902,0.687c-3.634,0.644 -4.271,1.462 -8.043,9.056c-4.467,9.411 -4.43,9.295 -5.133,16.831z"/>
   <path fill="#E8E8E8" d="m993.80168,161.872c1.534,2.005 2.779,4.937 2.62,6.667c-0.123,1.615 -4.655,11.641 -10.252,22.224c-11.641,21.789 -11.663,22.672 -2.694,22.043l5.712,-0.376l8.087,-14.891c14.544,-26.603 13.386,-24.931 17.643,-25.126c6.175,-0.231 5.842,-3.641 -0.876,-11.843l-6.008,-7.218l-7.587,0.68c-4.097,0.5 -7.876,1.607 -8.397,2.461c-0.558,0.97 0.333,3.41 1.752,5.379z"/>
   <path fill="#E8E8E8" d="m1018.07068,83.003c0.232,0.073 1.803,-0.072 3.641,-0.26c3.33,-0.485 3.555,-0.796 9.694,-15.151c0.514,-1.238 1.726,-2.259 2.726,-2.201c1.53,-0.028 1.21,1.398 -1.539,8.166c-2.418,6.11 -2.918,8.115 -1.73,7.977c16.559,-1.309 17.429,-1.671 20.699,-7.259c1.83,-2.99 3.78,-7.21 4.47,-9.411c0.87,-2.78 1.81,-3.757 2.97,-3.395c1.97,0.615 0.76,5.704 -3.22,12.342c-1.38,2.368 -2.3,4.496 -2.25,4.764c0.19,0.188 1.84,0.195 3.68,0.007c3.83,-0.456 8.09,-6.754 11.06,-16.251c1.91,-6.139 2.65,-16.208 1.26,-16.643c-0.58,-0.181 -4.72,0.051 -9.28,0.405l-8.36,0.695l-0.15,6.182c-0.12,7.717 -3.01,15.332 -6.22,16.237c-3.44,0.832 -3.81,-0.811 -1.8,-10.099c1.06,-4.625 1.44,-9.085 1.04,-9.845c-0.48,-0.912 -3.59,-1.122 -8.95,-0.637c-6.975,0.745 -8.271,1.23 -8.343,3.496c-0.16,5.798 -3.852,19.647 -6.784,24.96c-1.629,3.178 -2.846,5.849 -2.614,5.921z"/>
   <path fill="#E8E8E8" d="m1017.53168,138.014c6.016,7.601 6.016,7.601 10.728,7.167c2.643,-0.319 6.052,-0.652 7.582,-0.68c4.83,-0.398 5.26,-2.172 1.81,-8.209c-1.91,-3.265 -3.23,-6.349 -3.05,-6.928c0.18,-0.58 4.55,-8.875 9.59,-18.489c11.16,-21.051 12.07,-23.562 8.94,-24.54c-1.15,-0.362 -4.19,-0.42 -6.6,-0.029l-4.36,0.543l-10.573,19.581l-10.454,19.617l-4.329,0.427c-2.374,0.275 -4.582,1.238 -4.872,2.165c-0.326,1.042 2.172,5.255 5.588,9.375z"/>
   <path fill="#E8E8E8" d="m1001.91368,209.542c0.551,0.681 3.511,0.971 6.537,0.645l5.632,-0.528l11.924,-21.065c6.69,-11.641 12.325,-22.34 12.755,-23.73c1.05,-3.359 -7.621,-13.443 -11.732,-13.711c-3.497,-0.203 -7.717,1.911 -7.717,3.945c0.014,0.767 2.584,4.749 5.812,9.063c7.203,9.499 6.783,11.656 -2.404,12.98l-6.812,1.049l-6.965,13.335c-7.811,15.23 -8.325,16.468 -7.03,18.017z"/>
   <path fill="#E8E8E8" d="m1049.56168,136.835l5.1,6.045l4.36,-0.926c6.46,-1.542 6.91,-3.815 1.88,-10.092c-5.86,-7.297 -8.24,-11.474 -7.66,-13.327c0.29,-0.927 3.69,-2.027 7.67,-2.563l7.01,-0.861l6.67,-12.407c10.19,-19.191 10.17,-20.342 -0.29,-19.415l-4.44,0.39l-12.19,21.493c-6.61,11.792 -12.32,22.339 -12.68,23.497c-0.36,1.158 1.5,4.539 4.57,8.166z"/>
   <path fill="#E8E8E8" d="m1013.74168,242.48c-0.102,2.766 0.325,5.061 0.825,5.09c0.463,0.144 4.64,-0.203 9.237,-0.673l8.274,-0.847l0.225,-6.414c0.42,-8.259 1.939,-13.124 4.899,-15.252c3.97,-2.954 5.12,1.093 3.02,9.845c-2.57,10.258 -1.78,11.394 6.91,10.425c3.8,-0.34 7.39,-0.869 8.12,-1.151c0.61,-0.318 1.71,-4.676 2.5,-9.642c0.97,-5.929 2.7,-11.489 4.91,-16.52c1.92,-4.104 3.12,-7.543 2.66,-7.688c-0.46,-0.144 -2.14,0.348 -3.86,0.956c-2.47,1.006 -3.86,2.989 -6.5,9.41c-2.49,6.342 -3.8,8.094 -5.07,7.695c-1.39,-0.434 -1.19,-1.896 1.6,-8.397l3.23,-7.89l-4.86,0.513c-2.76,0.283 -7.21,0.673 -9.81,0.876c-5.1,0.441 -4.69,-0.066 -13.258,17.597c-0.369,0.775 -1.245,1.137 -1.752,0.724c-1.245,-0.897 0.594,-7.188 3.751,-12.813l2.266,-3.996l-3.721,0.109c-3.337,0.101 -4.242,0.962 -7.138,6.16c-4.156,7.601 -6.429,15.281 -6.458,21.883z"/>
   <path fill="#E8E8E8" d="m1046.28168,156.662c1.57,1.89 2.78,4.554 2.76,5.821c-0.05,1.382 -4.29,10.482 -9.56,20.406c-13.114,24.888 -13.107,25.271 -3.49,24.208l5.51,-0.565l10.65,-19.429c10.13,-18.575 10.77,-19.393 14.59,-20.233c4.21,-0.846 5.57,-1.947 4.79,-4.35c-0.61,-2.1 -10.16,-13.856 -11.67,-14.327c-0.57,-0.181 -4.18,-0.036 -7.97,0.304c-8.09,0.651 -9.54,2.866 -5.61,8.165z"/>
   <path fill="#E8E8E8" d="m1079.50168,47.535c0.23,3.757 -5.83,24.366 -8.3,27.79c-1.61,2.295 -1.49,2.331 2.41,1.644c4.17,-0.731 6.64,-4.155 9.53,-13.421c0.94,-3.012 1.8,-4.141 3.08,-3.743c1.97,0.616 0.76,5.705 -3,12.032c-1.34,2.251 -2.19,4.148 -1.84,4.256c0.23,0.073 4.83,-0.398 10.27,-1.114l9.68,-1.296l4.04,-8.02c4.98,-10.265 5.66,-11.199 6.95,-9.65c1.06,1.093 -0.58,5.538 -5.19,13.762l-1.85,3.489l3.87,-0.188c3.64,-0.261 4.21,-0.847 7.98,-8.441c3.88,-7.941 5.99,-15.926 5.53,-22.173l-0.06,-3.069l-6.32,0.694c-3.44,0.449 -7.62,0.796 -9.04,0.861c-2.72,0.167 -2.79,0.398 -3.35,7.471c-0.51,7.34 -3.29,14.608 -5.93,15.31c-3.17,0.789 -4.1,-1.918 -2.4,-7.362c1.99,-6.37 2.01,-13.356 0.16,-13.935c-0.85,-0.138 -4.76,0.166 -9.01,0.745c-7.04,0.977 -7.5,1.216 -7.21,4.358z"/>
   <path fill="#E8E8E8" d="m1069.82168,132.615l6.01,7.602l7.93,-0.956c8.58,-1.005 10.35,-2.996 6.65,-7.456c-4.51,-5.48 -4.01,-7.485 6.99,-28.456c8.71,-16.476 10.04,-19.495 9.08,-21.319c-0.96,-1.824 -1.92,-1.998 -6.52,-1.528l-5.43,0.717l-9.61,17.721c-12.09,22.411 -11.38,21.362 -15.63,21.941c-6.16,0.998 -6.07,3.568 0.53,11.734z"/>
   <path fill="#E8E8E8" d="m1054.32168,204.181c0.47,0.528 3.31,0.781 6.45,0.492l5.52,-0.564l12.34,-21.572c6.61,-11.793 12.47,-22.419 12.8,-23.462c0.76,-2.432 -7.02,-12.111 -10.5,-13.197c-3.36,-1.05 -8.81,0.933 -9.03,3.279c-0.1,1.115 2.36,5.444 5.63,9.643c3.26,4.198 5.69,8.643 5.59,9.758c-0.12,1.614 -2.29,2.461 -7.58,3.098c-4.09,0.499 -7.46,1.1 -7.5,1.216c-0.03,0.116 -2.89,5.581 -6.33,12.132c-6.89,13.103 -8.73,17.743 -7.39,19.177z"/>
   <path fill="#E8E8E8" d="m1101.21168,130.604c4.95,5.741 6.27,6.407 10.44,5.676c6.5,-1.274 6.62,-4.922 0.27,-11.865c-5.09,-5.661 -7.09,-9.845 -5.56,-11.908c0.76,-0.782 4.15,-1.882 7.63,-2.447l6.36,-0.81l7.59,-14.536c8.97,-16.903 8.95,-18.054 0.06,-17.272l-5.75,0.492l-11.77,20.601c-6.32,11.25 -12.07,21.913 -12.61,23.65c-0.8,2.548 -0.07,4.3 3.34,8.419z"/>
   <path fill="#E8E8E8" d="m1065.80168,237.394c-0.07,2.266 0.43,4.329 1.01,4.51c0.58,0.181 4.6,-0.087 9.08,-0.593c7.48,-0.717 8.08,-1.035 8.26,-4.032c0.85,-12.068 4.22,-20.421 7.81,-19.299c2.78,0.869 2.9,3.323 0.55,10.851c-1.05,3.359 -1.48,7.167 -0.99,8.463c0.69,2.251 1.27,2.432 9.01,1.672l8.16,-0.882l0.49,-4.423c0.15,-2.498 2.11,-10.019 4.33,-16.701c3.7,-11.43 3.84,-12.277 1.57,-12.35c-3.23,-0.246 -3.9,0.688 -7.72,9.664c-2.17,5.299 -3.88,7.941 -5.03,7.963c-1.42,0.065 -1.18,-1.513 1.38,-8.086c3.66,-9.28 4.17,-8.868 -8.81,-7.203c-6.89,0.897 -7.23,1.172 -10.2,6.601c-1.75,3.142 -3.74,7.094 -4.44,8.911c-0.81,1.781 -2.16,3.265 -3.08,3.359c-1.77,-0.043 0.06,-6.718 3.67,-12.965c2.34,-3.844 2.26,-3.996 -0.27,-4.025c-1.5,-0.087 -3.37,0.217 -3.98,0.536c-3.73,1.759 -10.64,19.813 -10.8,28.029z"/>
   <path fill="#E8E8E8" d="m1098.09168,149.969c4.52,5.864 4.06,7.753 -5.8,26.285c-10.49,19.733 -12.1,24.062 -9.32,24.931c2.89,0.905 10.29,0.42 11.19,-0.825c0.45,-0.623 5.42,-9.621 10.98,-20.088c9.87,-18.148 10.36,-18.886 13.69,-18.988c7.18,-0.173 6.84,-3.583 -0.97,-13.146c-4.76,-5.936 -5.11,-6.045 -9.4,-5.734c-13.1,1.245 -14.43,2.229 -10.37,7.565z"/>
   <path fill="#E8E8E8" d="m1131.62168,43.483c-0.11,2.382 -2,9.671 -4.26,16.085c-3.97,11.474 -4.08,11.821 -1.54,11.85c3.57,-0.028 3.3,0.399 7.92,-9.475c2.39,-5.227 4.59,-8.607 5.22,-8.159c1.13,0.862 -0.06,5.068 -3.39,12.039l-2.21,4.647l9.46,-0.984c5.13,-0.557 9.88,-1.491 10.52,-1.925c0.53,-0.47 2.98,-4.662 5.23,-9.425c2.41,-4.843 4.72,-8.571 5.3,-8.39c1.97,0.616 1.52,3.272 -1.89,9.708c-1.93,3.721 -3.33,6.971 -3.17,7.275c0.13,0.42 1.86,0.579 3.54,0.471c2.61,-0.203 3.82,-1.224 5.7,-5.212c5.91,-12.01 8.95,-28.225 5.19,-28.001c-16.94,1.317 -16.52,1.194 -16.75,5.19c-0.12,1.998 -1.21,7.123 -2.51,11.293c-2.17,6.949 -2.59,7.456 -5.13,7.043c-2.42,-0.376 -2.51,-0.912 -1.17,-5.198c1.34,-4.285 2.62,-15.708 1.81,-15.962c-0.81,-0.253 -17.77,1.947 -17.77,2.33c-0.07,0.232 -0.1,2.382 -0.1,4.8z"/>
   <path fill="#E8E8E8" d="m1121.72168,126.841c3.02,3.743 6.08,6.986 6.66,7.167c2.89,0.905 15.82,-1.411 16.29,-2.916c0.29,-0.927 -0.87,-3.707 -2.57,-6.016c-3.86,-5.531 -3.5,-6.689 8.33,-28.674c8.56,-16.013 10.35,-20.921 8.03,-21.645c-1.04,-0.325 -11.51,0.217 -11.65,0.68c-0.04,0.116 -4.75,8.687 -10.43,19.118c-5.67,10.432 -10.49,19.35 -10.64,19.813c-0.11,0.348 -2.02,0.768 -4.09,0.883c-6.14,0.116 -6.11,3.685 0.07,11.59z"/>
   <path fill="#E8E8E8" d="m1106.19168,196.872c0.86,2.939 10.41,2.874 12.85,-0.05c1.02,-1.209 7.12,-11.38 13.4,-22.514c7.98,-14.159 11.27,-21.014 11.04,-22.737c-0.25,-1.223 -2.54,-4.481 -5.16,-7.08c-4.31,-4.525 -4.88,-4.706 -8.95,-4.322c-6.51,0.506 -6.44,4.343 0,12.205c2.95,3.591 5.48,7.688 5.78,9.179c0.43,2.295 -0.14,2.881 -4,3.837c-2.48,0.622 -5.81,1.107 -7.42,0.984c-1.54,0.029 -2.8,0.014 -2.84,0.13c0,0 -3.41,6.436 -7.64,14.268c-4.19,7.717 -7.56,14.036 -7.6,14.152c0,0 0.25,0.84 0.54,1.948z"/>
   <path fill="#E8E8E8" d="m1150.22168,120.24c0.76,1.636 3.09,4.778 5.32,7c3.75,3.844 4.22,3.989 8.24,3.338c6.34,-1.194 6.37,-4.112 -0.16,-12.509c-7.44,-9.571 -7.03,-12.495 1.66,-13.465c3.41,-0.333 6.59,-0.738 6.89,-0.897c1.18,-0.521 14.95,-27.877 14.87,-29.68c-0.15,-2.338 -2.47,-3.062 -7.71,-2.158c-2.41,0.391 -4.44,0.775 -4.74,0.934c-0.31,0.159 -25.14,42.999 -25.47,44.042c-0.07,0.231 0.46,1.795 1.1,3.395z"/>
   <path fill="#E8E8E8" d="m1118.19168,232.915c0,2.034 0.79,3.555 1.68,3.576c16.93,-1.316 16.51,-1.193 16.75,-5.189c0.15,-2.114 1.21,-7.123 2.51,-11.293c2.14,-6.834 2.58,-7.456 4.89,-7.116c2.31,0.34 2.44,1.144 0.81,8.007c-0.92,4.162 -1.37,8.853 -1.11,10.46l0.51,2.831l8.31,-0.963c7.66,-0.912 8.23,-1.114 8.67,-4.538c0.23,-1.962 2.31,-9.447 4.52,-16.513c3.91,-12.509 3.98,-13.124 1.56,-13.117c-3.57,0.029 -3.31,-0.398 -7.92,9.476c-2.17,4.915 -4.52,8.759 -4.86,8.65c-1.74,-0.543 -0.79,-4.821 2.09,-10.786c1.67,-3.294 2.96,-6.196 2.84,-6.233c-0.2,-0.571 -18.65,1.925 -19.67,2.75c-0.53,0.471 -2.83,4.583 -5.01,9.114c-4.4,9.179 -5.15,9.961 -6.42,7.529c-0.64,-1.217 0.31,-3.844 3.28,-9.274l4.11,-7.485l-4.02,0.268c-2.64,0.318 -4.54,1.506 -5.69,3.561c-2.79,4.85 -7.99,22.297 -7.83,26.285z"/>
   <path fill="#E8E8E8" d="m1150.93168,145.635c3.57,6.074 3.39,6.653 -8.32,28.674c-9.2,17.214 -10.28,20.689 -7.16,21.666c1.28,0.398 8.78,-0.434 10.65,-1.121c0.27,-0.044 20.76,-37.122 21.05,-38.048c0.07,-0.232 1.87,-0.688 4.16,-1.115c6.31,-1.078 6.1,-4.068 -0.53,-12.118l-5.9,-7.182l-7.74,0.76c-4.17,0.347 -7.92,1.339 -8.44,2.193c-0.37,0.775 0.65,3.634 2.23,6.291z"/>
   <path fill="#E8E8E8" d="m1183.75168,39.431c0,2.418 -1.9,9.324 -4.2,15.47c-4.06,10.938 -4.09,11.054 -1.37,10.888c2.83,-0.13 3.99,-1.803 10.01,-14.543c0.96,-1.861 2.32,-3.345 3.01,-3.127c0.81,0.253 0.21,2.989 -1.84,8.325c-3.59,9.048 -4.13,8.751 8.85,7.087c6.89,-0.897 7.23,-1.172 10.2,-6.602c1.74,-3.141 3.74,-7.094 4.55,-8.874c0.7,-1.817 2.05,-3.301 2.85,-3.432c1.89,0.08 0.05,6.754 -3.55,13.002c-2.35,3.843 -2.27,3.995 0.27,4.025c3.91,0.079 4.9,-0.63 7.73,-5.212c4.72,-8.187 9.05,-26.922 6.27,-27.791c-0.46,-0.145 -4.49,0.123 -9.09,0.593c-7.08,0.709 -8.38,1.194 -8.3,3.381c-0.14,4.915 -2.4,15.013 -4.16,17.771c-1.86,3.106 -5.93,2.722 -6.15,-0.651c-0.02,-1.151 0.72,-4.735 1.77,-8.094c1.05,-3.359 1.44,-7.05 0.95,-8.346c-0.73,-2.136 -1.57,-2.273 -9.01,-1.673c-8.47,0.658 -8.66,0.854 -8.79,7.803z"/>
   <path fill="#E8E8E8" d="m1168.94168,113.248c0.01,0.767 2.62,4.633 5.88,8.448l5.81,7.03l7.35,-0.753c3.98,-0.536 7.81,-1.375 8.52,-2.041c0.84,-0.63 0.18,-2.997 -1.57,-5.958c-1.7,-2.693 -3.02,-5.777 -3.08,-6.812c0.09,-1.115 3.93,-9.324 8.75,-18.242c4.74,-9.071 9.29,-18.329 10.2,-20.841c1.38,-4.401 1.38,-4.401 -2.54,-4.865c-8.24,-0.92 -8.8,-0.333 -20,20.45c-9.82,18.415 -10.46,19.233 -14.1,19.878c-4.32,0.81 -5.3,1.52 -5.22,3.706z"/>
   <path fill="#E8E8E8" d="m1158.68168,192.429c0.55,0.68 3.48,1.086 6.47,0.876l5.56,-0.296l11.85,-20.834c6.46,-11.329 12.13,-22.144 12.68,-23.881c0.76,-2.433 0.03,-4.185 -3.73,-8.412c-5.14,-5.929 -8.62,-7.015 -13.29,-4.279c-2.5,1.505 -2.57,1.737 -0.71,5.118c1.04,1.976 3.84,6.03 6.24,8.94c5.62,7.225 4.82,9.39 -4.14,10.786l-7.08,1.093l-7,13.45c-8.15,15.506 -8.26,15.853 -6.85,17.439z"/>
   <path fill="#E8E8E8" d="m1206.21168,119.685l5.1,6.045l4.36,-0.926c6.46,-1.542 6.92,-3.815 1.89,-10.091c-5.86,-7.298 -8.24,-11.475 -7.66,-13.328c0.29,-0.927 3.8,-1.991 7.63,-2.446c6.58,-0.739 7.5,-1.216 9.42,-4.937c1.11,-2.324 3.89,-7.558 6.16,-11.553c2.3,-4.112 4.66,-9.223 5.35,-11.424c1.05,-3.358 0.76,-4.082 -1.44,-4.77c-1.39,-0.435 -4.46,-0.377 -6.71,0.318c-3.97,0.919 -4.61,1.737 -16.31,22.491c-6.61,11.792 -12.28,22.224 -12.54,23.035c-0.25,0.81 1.89,4.148 4.75,7.586z"/>
   <path fill="#E8E8E8" d="m1170.46168,224.716c-0.22,6.414 -0.22,6.414 11.11,5.126c5.82,-0.724 7.57,-1.448 7.55,-2.983c-0.57,-7.55 2.97,-19.284 6.03,-20.11c3.17,-0.788 4.1,1.919 2.4,7.363c-1.81,5.791 -2.13,13.32 -0.51,13.826c0.58,0.181 4.61,-0.086 8.93,-0.513c7.63,-0.796 7.82,-0.992 7.6,-4.365c-0.23,-3.757 5.87,-24.482 8.34,-27.906c1.61,-2.295 1.49,-2.331 -2.41,-1.644c-4.17,0.731 -6.64,4.155 -9.5,13.305c-0.98,3.128 -1.84,4.257 -3.11,3.859c-1.97,-0.616 -0.76,-5.705 3.03,-12.147c1.3,-2.136 2.15,-4.033 2.04,-4.069c-0.24,-0.072 -4.83,0.398 -10.27,1.115l-9.92,1.223l-4.03,8.02c-4.99,10.265 -5.66,11.199 -6.96,9.65c-1.05,-1.093 0.59,-5.538 5.27,-13.993l2,-3.569l-4.05,0.767c-4.44,0.775 -5.75,2.526 -10.44,14.282c-1.69,4.177 -2.97,9.498 -3.1,12.763z"/>
   <path fill="#E8E8E8" d="m1202.94168,139.513c1.57,1.889 2.73,4.669 2.68,6.052c0.03,1.535 -4.62,11.524 -10.25,22.223c-11.7,22.405 -11.81,23.136 -2.87,22.623l5.71,-0.377l10.16,-18.691c5.53,-10.351 10.46,-19.233 10.95,-19.972c0.56,-0.586 2.7,-1.317 4.77,-1.433c6.02,-0.535 5.73,-3.677 -0.8,-11.691c-6.47,-7.746 -7.17,-7.963 -16.93,-6.436c-6.04,1.035 -6.93,3.047 -3.42,7.702z"/>
   <path fill="#E8E8E8" d="m1227.21168,60.644c0.23,0.072 1.8,-0.072 3.52,-0.297c3.45,-0.448 5.99,-4.104 8.89,-13.37c1.15,-3.706 1.98,-4.72 3.37,-4.285c1.74,0.543 1.53,1.621 -1.38,8.469l-3.23,7.891l4.87,-0.514c2.72,-0.166 7.17,-0.557 9.81,-0.876c4.56,-0.354 4.9,-0.629 8.67,-8.223c2.26,-4.379 4.33,-8.563 4.62,-9.49c0.41,-0.89 1.17,-1.289 1.75,-0.724c1.21,1.014 -0.63,7.304 -3.78,12.929l-2.27,3.996l3.72,-0.108c3.34,-0.102 4.24,-0.963 7.4,-6.588c3.75,-6.71 6.65,-17.627 6.23,-23.606l-0.18,-3.489l-9.08,0.976l-9.11,1.093l-0.22,6.414c-0.42,8.26 -1.95,13.124 -4.9,15.253c-3.97,2.953 -5.12,-1.094 -3.02,-9.846c2.57,-10.258 1.81,-11.51 -6.92,-10.424c-3.83,0.455 -7.46,1.1 -8.15,1.266c-0.57,0.203 -1.75,4.792 -2.65,10.106c-0.99,6.428 -2.66,11.756 -4.87,16.403c-1.85,3.873 -3.21,7.008 -3.09,7.044z"/>
   <path fill="#E8E8E8" d="m1226.55168,115.618l6.14,7.638l7.27,-0.905c3.95,-0.42 7.36,-0.752 7.59,-0.68c0.23,0.072 0.75,-0.782 1.15,-2.056c0.36,-1.158 -0.33,-3.409 -1.63,-4.959c-4.44,-5.328 -3.94,-7.333 6.29,-26.639c5.23,-9.809 9.89,-19.032 10.36,-20.537c1.02,-3.243 -1.54,-4.423 -8.09,-3.801l-4.18,0.347l-10.5,19.35c-10.34,19.27 -10.53,19.465 -14.92,20.508c-2.45,0.506 -4.73,1.701 -5.02,2.627c-0.25,0.811 2.24,5.024 5.54,9.107z"/>
   <path fill="#E8E8E8" d="m1211.05168,187.183c0.47,0.529 3.47,0.703 6.61,0.413l5.67,-0.644l11.92,-21.065c6.54,-11.561 12.25,-22.108 12.69,-23.498c1.16,-3.706 -6.81,-12.806 -11.58,-13.407c-4.5,-0.645 -7.58,0.68 -7.81,3.025c-0.09,1.115 2.37,5.444 5.63,9.643c7.28,9.65 6.98,11.844 -2.32,13.132l-6.74,0.818l-6.67,12.791c-7.6,14.152 -8.69,17.243 -7.4,18.792z"/>
   <path fill="#E8E8E8" d="m1257.87168,113.455c4.75,5.552 9.54,7.304 13.91,5.111c3.2,-1.672 2.33,-4.611 -3.12,-11.148c-8.8,-10.504 -8.39,-13.045 2,-14.124l6.43,-0.658l6.74,-13.023c10.23,-19.306 10.25,-20.189 0.75,-19.089l-5.55,0.68l-12,20.913c-6.54,11.561 -12.25,22.108 -12.69,23.498c-0.57,1.853 0.47,4.213 3.53,7.84z"/>
   <path fill="#E8E8E8" d="m1222.76168,219.701c-0.07,2.65 0.24,4.909 0.82,5.09c0.58,0.181 4.72,-0.051 9.28,-0.405l8.36,-0.695l0.15,-5.799c0.08,-10.018 3.89,-18.112 7.94,-16.845c1.85,0.58 1.82,3.113 -0.31,12.365c-0.81,3.431 -1.05,7.043 -0.65,7.804c0.47,0.912 3.59,1.122 8.95,0.637c8.04,-0.919 8.31,-0.962 8.59,-4.691c0.92,-8.23 3.6,-18.452 6.57,-23.881c1.59,-3.062 2.81,-5.733 2.58,-5.806c-0.23,-0.072 -1.8,0.073 -3.64,0.261c-3.33,0.485 -3.56,0.796 -9.7,15.151c-0.51,1.238 -1.72,2.258 -2.72,2.2c-1.53,0.029 -1.22,-1.397 1.54,-8.165c2.41,-6.11 2.91,-8.115 1.73,-7.978c-0.92,0.094 -5.25,0.521 -9.62,1.064l-8.16,0.883l-3.26,5.972c-1.82,3.373 -3.77,7.594 -4.35,9.447c-0.65,2.085 -1.59,3.062 -2.75,2.7c-1.97,-0.616 -0.76,-5.705 3.22,-12.343c1.37,-2.367 2.29,-4.495 2.25,-4.763c-0.19,-0.188 -1.85,-0.196 -3.68,-0.007c-2.65,0.318 -4.08,1.65 -6.38,5.762c-3.64,6.363 -6.54,15.629 -6.76,22.042z"/>
   <path fill="#E8E8E8" d="m1255.06168,133.427c1.69,2.31 3.06,5.278 3.04,6.545c0.1,1.303 -4.1,10.286 -9.3,19.979c-5.03,9.614 -9.7,18.836 -10.2,20.458c-1.09,3.474 1.31,4.734 8.02,4.032l4.29,-0.311l10.38,-19.386c10.35,-19.27 10.38,-19.386 14.89,-20.392c2.49,-0.622 4.66,-1.469 4.8,-1.932c0.55,-1.738 -1.68,-5.611 -6.35,-11.395c-5.46,-6.537 -5.81,-6.646 -18.28,-4.569c-4.74,0.934 -4.88,1.781 -1.29,6.971z"/>
   <path fill="#E8E8E8" d="m1288.46168,25.755c-0.11,4.415 -5.56,22.672 -8.06,26.596c-1.6,2.678 -1.52,2.83 1.66,2.425c4.21,-0.463 5.26,-1.788 8.97,-10.8c1.58,-3.83 3.51,-7.167 4.2,-7.333c2.21,-0.58 1.45,3.887 -1.88,10.474c-1.73,3.526 -3.18,6.508 -3.06,6.544c0.23,0.073 4.71,-0.434 10.27,-1.114l9.91,-1.223l4.66,-9.606c2.69,-5.769 4.89,-9.15 5.63,-8.665c1.36,0.934 0.02,5.219 -3.75,12.813l-2.55,5.306l4.06,-0.767c2.25,-0.311 4.27,-1.078 4.42,-1.542c0.14,-0.463 1.95,-4.22 3.91,-8.44c3.65,-7.63 6.15,-19.69 4.72,-22.427c-0.4,-0.76 -4.7,-0.832 -9.6,-0.203c-7.27,0.905 -8.87,1.549 -8.69,3.388c0.47,4.213 -3.49,18.104 -5.58,19.487c-3.37,2.251 -4.85,-0.753 -3.11,-6.313c0.9,-2.895 1.7,-7.478 1.73,-10.011l0.1,-4.8l-8.09,0.651c-4.32,0.427 -8.42,0.927 -8.88,1.165c-0.61,0.319 -0.95,2.245 -0.99,4.395z"/>
   <path fill="#E8E8E8" d="m1278.37168,109.691c3.03,3.743 6.2,7.023 7.01,7.276c3.13,0.977 15.48,-1.519 15.98,-3.141c0.29,-0.927 -0.63,-3.25 -2.17,-5.256c-1.42,-1.969 -2.66,-4.901 -2.54,-6.515c0.12,-1.614 4.62,-11.524 10.11,-21.76c8.41,-15.933 9.77,-19.068 8.78,-20.776c-0.96,-1.824 -1.88,-2.114 -6.44,-1.76l-5.33,0.369l-9.75,18.185c-12.27,22.99 -11.3,21.514 -15.75,21.904c-6.01,0.536 -5.99,3.721 0.1,11.474z"/>
   <path fill="#E8E8E8" d="m1265.11168,181.829c1.5,0.47 4.46,0.376 6.79,-0.167c4.01,-1.035 4.64,-1.853 16.71,-23.381c9.63,-16.954 12.32,-22.723 11.79,-24.287c-0.56,-1.064 -2.92,-4.09 -5.5,-6.805l-4.62,-4.749l-4.55,1.122c-5.92,1.455 -5.95,3.988 -0.33,10.83c9.11,11.112 8.9,14.225 -0.95,14.833c-3.22,0.137 -6.2,0.73 -6.69,1.085c-1.44,1.332 -12.78,22.962 -14.01,26.9c-1.01,3.243 -0.73,3.967 1.36,4.619z"/>
   <path fill="#E8E8E8" d="m1307.13168,104.314c0.6,0.948 2.99,3.475 5.06,5.777c3.56,3.656 4.34,4.025 7.79,3.576c6.66,-0.969 6.82,-4.35 0.41,-12.711c-7.63,-9.759 -7.14,-12.148 2.13,-13.32l7.04,-0.977l7.44,-14.456c8.86,-16.939 8.8,-17.975 0.1,-17.389c-5.6,0.413 -5.9,0.572 -9.17,6.544c-1.93,3.337 -7.06,12.415 -11.48,20.059c-8.77,15.057 -10.97,20.472 -9.32,22.897z"/>
   <path fill="#E8E8E8" d="m1274.94168,215.035c-0.07,2.266 0.2,4.256 0.43,4.329c0.35,0.108 4.37,-0.159 9.09,-0.593c8.47,-0.659 8.62,-0.738 8.78,-4.503c0.15,-2.114 1.24,-7.239 2.55,-11.409c2.17,-6.949 2.58,-7.456 5.01,-7.079c1.57,0.239 2.73,0.601 2.77,0.869c-0.07,0.231 -0.81,3.815 -1.84,7.941c-0.92,4.162 -1.57,8.665 -1.35,10.004c0.54,2.331 1.04,2.36 9.01,1.673c8.36,-0.695 8.55,-0.89 8.79,-4.502c0.03,-2.15 2,-9.672 4.36,-16.817c2.21,-7.065 3.71,-13.081 3.36,-13.189c-3.01,-0.941 -6.02,2.186 -9.75,10.047c-5.21,10.96 -7.4,10.656 -3.16,-0.478l3.26,-8.39l-9.11,1.093c-5.14,0.557 -9.99,1.838 -10.89,2.7c-0.94,0.977 -3.21,4.973 -4.86,9.034c-3.01,7.195 -4.97,9.382 -6.32,6.797c-0.6,-1.332 3.56,-10.583 6.63,-15.093c1.53,-2.063 1.41,-2.099 -2.6,-1.448c-2.83,0.514 -4.84,2.048 -6.59,4.806c-3.14,4.742 -7.48,18.641 -7.57,24.208z"/>
   <path fill="#E8E8E8" d="m1307.66168,128.254c3.87,5.531 3.32,7.268 -8.57,29.868c-4.93,9.266 -8.81,17.591 -8.83,18.474c0.2,2.222 2.44,2.794 7.8,2.31c5.25,-0.521 4.39,0.608 16.66,-21.999c9.21,-16.831 9.76,-17.801 13.51,-18.409c6.05,-1.035 5.76,-4.176 -0.76,-12.19l-6.05,-7.102l-7.61,1.179c-4.25,0.579 -8.15,1.651 -8.48,2.309c-0.45,0.623 0.56,3.099 2.33,5.56z"/>
   <path fill="#E8E8E8" d="m1340.58168,21.703c-0.22,2.729 -2.11,10.019 -4.38,16.049c-2.18,6.182 -3.66,11.314 -3.2,11.459c3.01,0.941 6.14,-2.149 9.87,-10.011c5.17,-10.844 7.25,-10.576 3.04,0.442l-3.26,8.39l9.12,-1.093c5.13,-0.557 9.94,-1.722 10.88,-2.7c0.91,-0.861 2.99,-4.662 4.53,-8.375c3.39,-7.587 5.38,-9.888 6.65,-7.456c0.56,1.064 -0.46,3.923 -3.31,9.389l-4.23,7.832l4.24,-0.962c4.93,-1.129 6.61,-3.656 10.75,-16.092c2.47,-7.493 3.64,-16.534 2.14,-17.005c-0.24,-0.072 -4.26,0.195 -8.97,0.63c-8.47,0.658 -8.62,0.738 -8.78,4.502c-0.16,2.114 -1.25,7.239 -2.55,11.409c-1.99,6.37 -2.7,7.42 -4.67,7.188c-2.72,-0.217 -3.82,-3.229 -2.17,-5.64c1.12,-1.556 2.99,-14.065 2.36,-15.281c-0.4,-0.76 -17.57,0.868 -17.7,1.715c0,0.383 -0.26,2.845 -0.36,5.61z"/>
   <path fill="#E8E8E8" d="m1331.47168,104.547l5.89,7.182l7.74,-0.76c4.18,-0.347 7.96,-1.455 8.48,-2.309c0.48,-0.738 -0.56,-3.482 -2.34,-5.943c-3.86,-5.531 -3.47,-6.805 8.39,-29.289c9.13,-16.983 10.18,-20.342 7.4,-21.211c-1.51,-0.47 -10.86,0.166 -11.04,0.746c-0.08,0.231 -4.83,8.918 -10.47,19.233c-5.64,10.316 -10.38,19.003 -10.42,19.118c-0.07,0.232 -1.98,0.652 -4.16,1.115c-6.32,1.078 -6.11,4.068 0.53,12.118z"/>
   <path fill="#E8E8E8" d="m1315.17168,174.208c0.08,2.187 2.66,2.867 7.75,2.042c2.41,-0.391 4.44,-0.774 4.74,-0.934c1.03,-0.441 22.93,-40.002 23.98,-43.361c1.05,-3.359 0.64,-4.502 -3.67,-9.411c-4.67,-5.4 -4.87,-5.589 -9.27,-4.93c-6.66,0.97 -6.68,3.887 -0.19,12.401c7.63,9.758 7.26,12.567 -1.78,13.428c-7.47,0.716 -6.94,0.246 -13.98,13.812c-7.7,14.883 -7.81,15.23 -7.58,16.953z"/>
   <path fill="#E8E8E8" d="m1359.00168,97.005c0.49,1.296 2.69,4.402 4.97,6.892c3.73,4.344 4.19,4.488 8.48,4.177c6.82,-0.665 7.07,-3.894 0.78,-11.836c-9.04,-11.344 -8.77,-13.038 1.88,-14.159c3.18,-0.405 5.82,-0.724 5.94,-0.688c0.95,-0.21 15.2,-28.304 15.17,-29.839c-0.09,-0.919 -0.92,-1.94 -1.73,-2.193c-3.36,-1.05 -10.55,0.39 -11.89,2.258c-1.46,2.215 -23.94,41.595 -24.23,42.521c-0.11,0.348 0.26,1.607 0.63,2.867z"/>
   <path fill="#E8E8E8" d="m1327.60168,204.794c-0.94,9.114 -0.74,9.302 8.83,8.354c6.71,-0.702 8.57,-1.389 8.88,-3.199c1,-8.079 4.15,-18.539 5.89,-19.647c3.22,-2.171 4.85,0.753 3.22,5.965c-0.79,2.548 -1.52,6.899 -1.58,9.549c-0.21,5.53 0.49,5.748 11.44,4.467l6.05,-0.652l0.18,-4.647c0.15,-2.498 2.15,-10.135 4.52,-16.896l4.19,-12.169l-2.91,0.362c-3.03,0.326 -7.7,7.13 -9.94,14.311c-1.16,3.707 -3.75,5.06 -3.96,2.071c-0.05,-1.036 1.41,-4.901 3.18,-8.542c1.81,-3.757 3.14,-6.776 3.02,-6.812c-0.23,-0.073 -4.71,0.434 -10.26,1.114l-9.92,1.223l-4.66,9.606c-2.69,5.77 -4.89,9.15 -5.63,8.665c-1.36,-0.934 -0.02,-5.219 3.75,-12.813l2.82,-5.35l-4.17,0.731c-3.64,0.645 -4.39,1.426 -6.93,7.116c-1.51,3.598 -3.42,7.702 -4.16,9.252c-0.63,1.585 -1.48,5.132 -1.85,7.941z"/>
   <path fill="#E8E8E8" d="m1360.07168,123.276c1.75,2.961 2.61,5.9 2.1,7.521c-0.47,1.506 -5.1,10.613 -10.17,20.342c-8.78,16.707 -10.53,21.499 -8.1,22.26c0.58,0.181 3.26,0.13 6.02,-0.152l5.06,-0.326l8.2,-14.854c14.43,-26.639 13.27,-24.967 17.53,-25.162c6.18,-0.232 5.84,-3.641 -0.87,-11.844l-6.09,-7.369l-7.51,0.832c-4.06,0.383 -7.8,1.375 -8.32,2.229c-0.41,0.891 0.57,3.866 2.15,6.523z"/>
   <path fill="#E8E8E8" d="m1392.70168,17.651c-0.21,2.729 -2.12,9.635 -4.31,15.434l-3.91,10.475l3.18,-0.406c3.17,-0.405 4.59,-2.504 8.88,-13.37c0.92,-2.128 2.38,-3.959 3.38,-3.901c1.42,-0.066 1.18,1.513 -1.38,8.086c-2.31,5.762 -2.8,8.151 -1.77,8.093c16.98,-1.433 17.7,-1.715 20.81,-7.608c1.71,-3.025 3.82,-7.325 4.62,-9.49c0.92,-2.128 2.04,-3.684 2.7,-3.351c1.48,0.97 -0.3,8.296 -3.28,12.957c-1.42,2.1 -2.42,4.076 -2.26,4.38c0.16,0.304 1.77,0.427 3.65,0.123c2.37,-0.275 4.11,-1.766 6.16,-5.067c3.61,-5.863 6.98,-16.635 7.13,-22.817c0.2,-5.531 -0.49,-5.748 -11.71,-4.424c-5.79,0.608 -6.28,0.963 -6.57,3.923c-0.08,1.883 -0.91,6.581 -1.76,10.512c-1.2,5.856 -1.93,7.405 -3.84,8.209c-3.96,1.686 -4.91,-1.789 -2.88,-10.309c1.07,-4.242 1.49,-8.434 1.1,-9.194c-1.04,-1.976 -16.98,-0.601 -17.36,1.44c-0.11,0.731 -0.47,3.54 -0.58,6.305z"/>
   <path fill="#E8E8E8" d="m1378.48168,91.649c0.52,1.18 3.12,5.046 5.91,8.332c3.77,4.612 5.49,6.038 7.71,5.843c8.32,-0.579 12.49,-1.31 13.51,-2.135c0.68,-0.55 -0.26,-3.641 -2.17,-6.906c-1.9,-3.265 -3.23,-6.349 -3.04,-6.928c0.18,-0.579 4.51,-8.759 9.55,-18.373c5.12,-9.461 9.67,-18.72 10.25,-20.573c1.23,-3.938 -0.75,-4.937 -7.68,-4.307l-4.45,0.39l-10.64,19.813l-10.49,19.734l-4.33,0.426c-4.71,0.435 -5.35,1.253 -4.13,4.684z"/>
   <path fill="#E8E8E8" d="m1367.71168,170.034c0.55,0.68 3.51,0.97 6.53,0.644l5.64,-0.528l12.04,-21.029c6.69,-11.64 12.24,-22.491 12.48,-24.07c0.73,-3.967 -7.23,-13.067 -11.46,-13.371c-3.61,-0.239 -7.83,1.875 -7.83,3.909c0.01,0.767 2.58,4.749 5.81,9.064c7.2,9.498 6.78,11.655 -2.41,12.979l-6.81,1.05l-6.96,13.334c-7.81,15.23 -8.33,16.468 -7.03,18.018z"/>
   <path fill="#E8E8E8" d="m1414.53168,96.305c5.25,5.966 8.15,7.254 12.77,5.517c4.22,-1.73 4.02,-4.336 -1,-10.229c-5.46,-6.537 -7.84,-10.714 -7.26,-12.567c0.29,-0.927 3.68,-2.027 7.66,-2.563l7.13,-0.825l6.56,-12.443c10.15,-19.075 10.12,-20.61 0.66,-19.625l-5.21,0.405l-12.04,21.029c-6.54,11.56 -12.25,22.107 -12.8,23.461c-0.61,1.969 0.38,4.061 3.53,7.84z"/>
   <path fill="#E8E8E8" d="m1379.60168,202.357c-0.09,3.149 0.26,5.675 0.76,5.704c0.46,0.145 4.64,-0.202 9.24,-0.673l8.27,-0.846l0.62,-8.072c0.82,-9.534 3.7,-15.115 7.29,-13.993c1.97,0.616 2.11,1.803 0.66,8.47c-1.65,8.13 -1.76,12.162 -0.26,12.632c1.16,0.362 15.71,-1.447 15.89,-2.026c0.07,-0.231 0.76,-4.466 1.63,-9.28c0.86,-5.198 2.81,-11.836 4.87,-16.404c1.92,-4.104 3.01,-7.579 2.54,-7.724c-0.46,-0.145 -2.14,0.347 -3.85,0.955c-2.48,1.007 -3.86,2.99 -6.5,9.411c-2.5,6.341 -3.81,8.093 -5.08,7.695c-1.39,-0.434 -1.19,-1.897 1.61,-8.397l3.23,-7.891l-4.87,0.514c-2.72,0.166 -7.05,0.593 -9.66,0.796c-4.59,0.47 -4.9,0.629 -9,8.882c-5.58,11.35 -6,11.857 -7.11,9.729c-0.72,-1.368 -0.03,-3.569 2.74,-9.187c2.15,-4.032 3.78,-7.593 3.62,-7.897c-0.2,-0.188 -1.81,-0.312 -3.69,-0.008c-5.43,0.717 -12.26,15.238 -12.95,27.61z"/>
   <path fill="#E8E8E8" d="m1412.27168,116.959c1.42,1.969 2.51,4.98 2.42,6.479c-0.01,1.65 -4.36,10.714 -9.37,20.211c-5.12,9.461 -9.67,18.336 -10.14,19.842c-1.12,3.591 1.05,4.778 7.25,4.047l5.29,-0.637l10.38,-19.386c10.16,-18.691 10.5,-19.349 14.44,-20.153c6.65,-1.353 6.57,-3.539 -0.11,-11.857l-6.02,-7.602l-7.92,0.955c-8.81,0.934 -10.16,2.802 -6.22,8.101z"/>
   <path fill="#E8E8E8" d="m1439.40168,37.46c4.29,-0.695 3.84,-0.072 10.61,-15.629c0.48,-1.122 1.38,-1.983 2.11,-1.882c1.73,0.159 -0.27,8.18 -3.21,12.726c-1.27,2.02 -2.2,3.764 -1.96,3.837c0.23,0.072 4.82,-0.398 10.26,-1.115l9.92,-1.223l4.03,-8.02c5.29,-10.424 5.78,-11.163 6.96,-9.65c1.05,1.093 -2.05,9.404 -5.56,14.92c-1.45,2.215 -1.22,2.287 2.39,2.143c3.52,-0.297 4.2,-0.847 7.94,-8.325c4.15,-7.984 6.12,-15.506 5.69,-21.869l-0.22,-3.373l-8.92,0.897c-4.98,0.477 -8.99,1.512 -9.02,2.396c-0.32,7.145 -1.87,14.543 -3.36,17.257c-3.9,6.791 -8.02,3.721 -5.56,-4.155c0.79,-2.548 1.52,-6.899 1.66,-9.396l0.07,-4.684l-8.2,0.999c-7.54,0.948 -8.26,1.23 -9.01,4.43c-2.02,8.904 -7.42,25.778 -8.88,27.993c-1.76,2.374 -1.64,2.41 2.26,1.723z"/>
   <path fill="#E8E8E8" d="m1435.06168,92.426c2.99,3.859 6.16,7.138 6.97,7.392c3.13,0.977 15.26,-0.825 15.77,-2.446c0.26,-0.811 -0.84,-3.823 -2.39,-6.595c-1.51,-2.889 -2.53,-6.132 -2.17,-7.29c0.4,-1.274 4.85,-9.802 9.78,-19.068c4.93,-9.265 9.44,-18.025 9.84,-19.299c1.12,-3.59 -1.16,-4.814 -7.25,-4.047l-5.29,0.637l-9.9,18.264c-5.45,10.12 -10.51,18.966 -11.11,19.668c-0.75,0.782 -2.77,1.549 -4.61,1.737c-5.62,0.912 -5.57,3.598 0.36,11.047z"/>
   <path fill="#E8E8E8" d="m1421.41168,164.571c1.16,0.362 4.16,0.536 6.53,0.261l4.45,-0.391l12.52,-22.151c6.87,-12.219 12.42,-23.071 12.36,-24.106c-0.02,-1.151 -2.39,-4.56 -5.17,-7.463c-4.93,-5.358 -5.05,-5.394 -9.14,-4.511c-5.92,1.455 -6.25,4.532 -1.22,10.808c5.82,7.03 7.88,10.598 7.26,12.567c-0.28,0.927 -3.68,2.027 -7.66,2.563l-7.12,0.825l-6.56,12.443c-8.27,15.47 -9.14,18.25 -6.25,19.155z"/>
   <path fill="#E8E8E8" d="m1463.79168,87.165c0.59,0.948 2.98,3.475 5.17,5.813c3.57,3.656 4.46,4.061 7.95,3.881c7.62,-0.796 7.17,-4.242 -1.84,-15.702c-5.34,-6.885 -4.46,-8.897 4.46,-10.178l6.69,-1.086l7.6,-14.536c8.89,-17.054 8.83,-18.09 0.17,-17.62l-5.72,0.377l-11.99,21.297c-13,22.889 -14.15,25.329 -12.49,27.754z"/>
   <path fill="#E8E8E8" d="m1431.60168,197.885c-0.07,2.266 0.31,4.293 0.77,4.438c0.47,0.145 4.49,-0.123 9.09,-0.593c7.74,-0.76 8.34,-1.078 8.6,-3.923c1.06,-13.147 3.99,-20.494 7.81,-19.299c2.55,0.796 2.58,2.714 0.27,12.545c-0.81,3.431 -1.13,6.892 -0.73,7.652c0.39,0.76 4.39,0.992 8.95,0.637l8.09,-0.651l0.53,-4.539c0.14,-2.497 2.11,-10.019 4.33,-16.7c3.7,-11.431 3.83,-12.278 1.57,-12.35c-3.23,-0.247 -3.91,0.687 -7.73,9.664c-2.16,5.299 -3.88,7.941 -5.03,7.962c-1.42,0.066 -1.18,-1.513 1.38,-8.086c3.67,-9.28 4.17,-8.867 -8.81,-7.203c-6.89,0.897 -7.23,1.172 -10.2,6.602c-1.74,3.141 -3.74,7.094 -4.43,8.911c-0.81,1.781 -2.17,3.265 -3.09,3.359c-1.76,-0.044 0.07,-6.718 3.67,-12.965c1.31,-2.136 2.15,-4.033 2.04,-4.069c-0.23,-0.072 -1.89,-0.079 -3.57,0.029c-2.34,0.159 -3.93,1.571 -6.16,5.067c-3.43,5.668 -7.19,17.714 -7.35,23.512z"/>
   <path fill="#E8E8E8" d="m1463.88168,110.46c4.76,6.32 4.63,7.167 -5.57,25.974c-11.38,21.362 -12.44,24.337 -8.97,25.423c1.51,0.471 4.58,0.413 6.79,-0.166c4.01,-1.035 4.61,-1.737 14.66,-20.464c10.02,-18.611 10.62,-19.313 13.84,-19.451c7.17,-0.173 6.84,-3.583 -0.98,-13.146c-4.75,-5.936 -5.1,-6.045 -9.39,-5.734c-13.11,1.245 -14.43,2.229 -10.38,7.564z"/>
   <path fill="#E8E8E8" d="m1472.10168,157.399c0.71,3.019 10.3,2.838 12.74,-0.086c3.6,-4.213 24.72,-42.493 24.6,-44.563c-0.05,-1.036 -2.19,-4.373 -4.7,-7.319c-4.39,-5.061 -4.86,-5.205 -9.15,-4.894c-6.82,0.665 -7.07,3.894 -0.78,11.836c9.05,11.344 8.77,13.038 -1.88,14.159c-3.18,0.405 -5.78,0.608 -5.93,0.688c-0.16,0.079 -3.2,5.356 -6.69,12.023c-3.44,6.552 -6.82,12.871 -7.56,14.037c-0.63,1.201 -0.98,3.127 -0.65,4.119z"/>
  </g>
 </g>
</svg>